<svg width="421" height="131" viewBox="0 0 421 131" fill="none" xmlns="http://www.w3.org/2000/svg">
<path d="M49.25 88.5V76H56.75V88.5M41.75 72.25L53 63.5L64.25 72.25V86C64.25 86.663 63.9866 87.2989 63.5178 87.7678C63.0489 88.2366 62.413 88.5 61.75 88.5H44.25C43.587 88.5 42.9511 88.2366 42.4822 87.7678C42.0134 87.2989 41.75 86.663 41.75 86V72.25Z" stroke="url(#paint0_linear_2078_612)" stroke-width="3" stroke-linecap="round" stroke-linejoin="round"/>
<path d="M37.6953 102V94H39.3867V97.3008H42.8203V94H44.5078V102H42.8203V98.6953H39.3867V102H37.6953ZM48.582 102.117C47.9753 102.117 47.4505 101.988 47.0078 101.73C46.5677 101.47 46.2279 101.108 45.9883 100.645C45.7487 100.178 45.6289 99.638 45.6289 99.0234C45.6289 98.4036 45.7487 97.862 45.9883 97.3984C46.2279 96.9323 46.5677 96.5703 47.0078 96.3125C47.4505 96.0521 47.9753 95.9219 48.582 95.9219C49.1888 95.9219 49.7122 96.0521 50.1523 96.3125C50.5951 96.5703 50.9362 96.9323 51.1758 97.3984C51.4154 97.862 51.5352 98.4036 51.5352 99.0234C51.5352 99.638 51.4154 100.178 51.1758 100.645C50.9362 101.108 50.5951 101.47 50.1523 101.73C49.7122 101.988 49.1888 102.117 48.582 102.117ZM48.5898 100.828C48.8659 100.828 49.0964 100.75 49.2813 100.594C49.4661 100.435 49.6055 100.219 49.6992 99.9453C49.7956 99.6719 49.8438 99.3607 49.8438 99.0117C49.8438 98.6628 49.7956 98.3516 49.6992 98.0781C49.6055 97.8047 49.4661 97.5885 49.2813 97.4297C49.0964 97.2708 48.8659 97.1914 48.5898 97.1914C48.3112 97.1914 48.0768 97.2708 47.8867 97.4297C47.6992 97.5885 47.5573 97.8047 47.4609 98.0781C47.3672 98.3516 47.3203 98.6628 47.3203 99.0117C47.3203 99.3607 47.3672 99.6719 47.4609 99.9453C47.5573 100.219 47.6992 100.435 47.8867 100.594C48.0768 100.75 48.3112 100.828 48.5898 100.828ZM52.6172 102V96H54.2031V97.0586H54.2734C54.3984 96.707 54.6068 96.4297 54.8984 96.2266C55.1901 96.0234 55.5391 95.9219 55.9453 95.9219C56.3568 95.9219 56.707 96.0247 56.9961 96.2305C57.2852 96.4336 57.4779 96.7096 57.5742 97.0586H57.6367C57.7591 96.7148 57.9805 96.4401 58.3008 96.2344C58.6237 96.026 59.0052 95.9219 59.4453 95.9219C60.0052 95.9219 60.4596 96.1003 60.8086 96.457C61.1602 96.8112 61.3359 97.3138 61.3359 97.9648V102H59.6758V98.293C59.6758 97.9596 59.5872 97.7096 59.4102 97.543C59.2331 97.3763 59.0117 97.293 58.7461 97.293C58.444 97.293 58.2083 97.3893 58.0391 97.582C57.8698 97.7721 57.7852 98.0234 57.7852 98.3359V102H56.1719V98.2578C56.1719 97.9635 56.0872 97.7292 55.918 97.5547C55.7513 97.3802 55.5313 97.293 55.2578 97.293C55.0729 97.293 54.9062 97.3398 54.7578 97.4336C54.612 97.5247 54.4961 97.6536 54.4102 97.8203C54.3242 97.9844 54.2813 98.1771 54.2813 98.3984V102H52.6172ZM65.3848 102.117C64.7676 102.117 64.2363 101.992 63.791 101.742C63.3483 101.49 63.0072 101.133 62.7676 100.672C62.528 100.208 62.4082 99.6602 62.4082 99.0273C62.4082 98.4102 62.528 97.8685 62.7676 97.4023C63.0072 96.9362 63.3444 96.5729 63.7793 96.3125C64.2168 96.0521 64.7298 95.9219 65.3184 95.9219C65.7142 95.9219 66.0827 95.9857 66.4238 96.1133C66.7676 96.2383 67.0671 96.4271 67.3223 96.6797C67.5801 96.9323 67.7806 97.25 67.9238 97.6328C68.0671 98.013 68.1387 98.4583 68.1387 98.9687V99.4258H63.0723V98.3945H66.5723C66.5723 98.1549 66.5202 97.9427 66.416 97.7578C66.3118 97.5729 66.1673 97.4284 65.9824 97.3242C65.8001 97.2174 65.5879 97.1641 65.3457 97.1641C65.0931 97.1641 64.8691 97.2227 64.6738 97.3398C64.4811 97.4544 64.3301 97.6094 64.2207 97.8047C64.1113 97.9974 64.0553 98.2122 64.0527 98.4492V99.4297C64.0527 99.7266 64.1074 99.9831 64.2168 100.199C64.3288 100.415 64.4863 100.582 64.6895 100.699C64.8926 100.816 65.1335 100.875 65.4121 100.875C65.597 100.875 65.7663 100.849 65.9199 100.797C66.0736 100.745 66.2051 100.667 66.3145 100.562C66.4238 100.458 66.5072 100.331 66.5645 100.18L68.1035 100.281C68.0254 100.651 67.8652 100.974 67.623 101.25C67.3835 101.523 67.0736 101.737 66.6934 101.891C66.3158 102.042 65.8796 102.117 65.3848 102.117Z" fill="#FFCB14"/>
<g filter="url(#filter0_d_2078_612)">
<path d="M14 38C14 26.9543 22.9543 18 34 18H387C398.046 18 407 26.9543 407 38V121H14V38Z" fill="white"/>
</g>
<path d="M47.25 73.5V61H54.75V73.5M39.75 57.25L51 48.5L62.25 57.25V71C62.25 71.663 61.9866 72.2989 61.5178 72.7678C61.0489 73.2366 60.413 73.5 59.75 73.5H42.25C41.587 73.5 40.9511 73.2366 40.4822 72.7678C40.0134 72.2989 39.75 71.663 39.75 71V57.25Z" stroke="black" stroke-width="2" stroke-linecap="round" stroke-linejoin="round"/>
<path d="M37.1343 87V79H38.103V82.5625H42.3687V79H43.3374V87H42.3687V83.4219H38.103V87H37.1343ZM47.5894 87.125C47.0477 87.125 46.5724 86.9961 46.1636 86.7383C45.7573 86.4805 45.4396 86.1198 45.2104 85.6562C44.9839 85.1927 44.8706 84.651 44.8706 84.0312C44.8706 83.4062 44.9839 82.8607 45.2104 82.3945C45.4396 81.9284 45.7573 81.5664 46.1636 81.3086C46.5724 81.0508 47.0477 80.9219 47.5894 80.9219C48.131 80.9219 48.605 81.0508 49.0112 81.3086C49.4201 81.5664 49.7378 81.9284 49.9644 82.3945C50.1935 82.8607 50.3081 83.4062 50.3081 84.0312C50.3081 84.651 50.1935 85.1927 49.9644 85.6562C49.7378 86.1198 49.4201 86.4805 49.0112 86.7383C48.605 86.9961 48.131 87.125 47.5894 87.125ZM47.5894 86.2969C48.0008 86.2969 48.3394 86.1914 48.605 85.9805C48.8706 85.7695 49.0672 85.4922 49.1948 85.1484C49.3224 84.8047 49.3862 84.4323 49.3862 84.0312C49.3862 83.6302 49.3224 83.2565 49.1948 82.9102C49.0672 82.5638 48.8706 82.2839 48.605 82.0703C48.3394 81.8568 48.0008 81.75 47.5894 81.75C47.1779 81.75 46.8394 81.8568 46.5737 82.0703C46.3081 82.2839 46.1115 82.5638 45.9839 82.9102C45.8563 83.2565 45.7925 83.6302 45.7925 84.0312C45.7925 84.4323 45.8563 84.8047 45.9839 85.1484C46.1115 85.4922 46.3081 85.7695 46.5737 85.9805C46.8394 86.1914 47.1779 86.2969 47.5894 86.2969ZM51.7153 87V81H52.606V81.9375H52.6841C52.8091 81.6172 53.0109 81.3685 53.2896 81.1914C53.5682 81.0117 53.9028 80.9219 54.2935 80.9219C54.6893 80.9219 55.0187 81.0117 55.2817 81.1914C55.5474 81.3685 55.7544 81.6172 55.9028 81.9375H55.9653C56.119 81.6276 56.3494 81.3815 56.6567 81.1992C56.964 81.0143 57.3325 80.9219 57.7622 80.9219C58.2987 80.9219 58.7375 81.0898 59.0786 81.4258C59.4198 81.7591 59.5903 82.2786 59.5903 82.9844V87H58.6685V82.9844C58.6685 82.5417 58.5474 82.2253 58.3052 82.0352C58.063 81.8451 57.7778 81.75 57.4497 81.75C57.0278 81.75 56.701 81.8776 56.4692 82.1328C56.2375 82.3854 56.1216 82.7057 56.1216 83.0937V87H55.1841V82.8906C55.1841 82.5495 55.0734 82.2747 54.8521 82.0664C54.6307 81.8555 54.3455 81.75 53.9966 81.75C53.757 81.75 53.533 81.8138 53.3247 81.9414C53.119 82.069 52.9523 82.2461 52.8247 82.4727C52.6997 82.6966 52.6372 82.9557 52.6372 83.25V87H51.7153ZM63.7915 87.125C63.2134 87.125 62.7147 86.9974 62.2954 86.7422C61.8787 86.4844 61.5571 86.125 61.3306 85.6641C61.1066 85.2005 60.9946 84.6615 60.9946 84.0469C60.9946 83.4323 61.1066 82.8906 61.3306 82.4219C61.5571 81.9505 61.8722 81.5833 62.2759 81.3203C62.6821 81.0547 63.1561 80.9219 63.6978 80.9219C64.0103 80.9219 64.3188 80.974 64.6235 81.0781C64.9282 81.1823 65.2056 81.3516 65.4556 81.5859C65.7056 81.8177 65.9048 82.125 66.0532 82.5078C66.2017 82.8906 66.2759 83.362 66.2759 83.9219V84.3125H61.6509V83.5156H65.3384C65.3384 83.1771 65.2707 82.875 65.1353 82.6094C65.0024 82.3437 64.8123 82.1341 64.5649 81.9805C64.3201 81.8268 64.0311 81.75 63.6978 81.75C63.3306 81.75 63.0129 81.8411 62.7446 82.0234C62.479 82.2031 62.2746 82.4375 62.1313 82.7266C61.9881 83.0156 61.9165 83.3255 61.9165 83.6562V84.1875C61.9165 84.6406 61.9946 85.0247 62.1509 85.3398C62.3097 85.6523 62.5298 85.8906 62.811 86.0547C63.0923 86.2161 63.4191 86.2969 63.7915 86.2969C64.0337 86.2969 64.2524 86.263 64.4478 86.1953C64.6457 86.125 64.8162 86.0208 64.9595 85.8828C65.1027 85.7422 65.2134 85.5677 65.2915 85.3594L66.1821 85.6094C66.0884 85.9115 65.9308 86.1771 65.7095 86.4062C65.4881 86.6328 65.2147 86.8099 64.8892 86.9375C64.5636 87.0625 64.1978 87.125 63.7915 87.125Z" fill="black"/>
<path d="M108.545 79L110.479 85.0781H110.553L112.49 79H114.365L111.607 87H109.428L106.666 79H108.545ZM117.354 87.1172C116.737 87.1172 116.206 86.9922 115.761 86.7422C115.318 86.4896 114.977 86.1328 114.737 85.6719C114.498 85.2083 114.378 84.6602 114.378 84.0273C114.378 83.4102 114.498 82.8685 114.737 82.4023C114.977 81.9362 115.314 81.5729 115.749 81.3125C116.187 81.0521 116.7 80.9219 117.288 80.9219C117.684 80.9219 118.052 80.9857 118.394 81.1133C118.737 81.2383 119.037 81.4271 119.292 81.6797C119.55 81.9323 119.75 82.25 119.894 82.6328C120.037 83.013 120.108 83.4583 120.108 83.9687V84.4258H115.042V83.3945H118.542C118.542 83.1549 118.49 82.9427 118.386 82.7578C118.282 82.5729 118.137 82.4284 117.952 82.3242C117.77 82.2174 117.558 82.1641 117.315 82.1641C117.063 82.1641 116.839 82.2227 116.644 82.3398C116.451 82.4544 116.3 82.6094 116.19 82.8047C116.081 82.9974 116.025 83.2122 116.022 83.4492V84.4297C116.022 84.7266 116.077 84.9831 116.187 85.1992C116.299 85.4154 116.456 85.582 116.659 85.6992C116.862 85.8164 117.103 85.875 117.382 85.875C117.567 85.875 117.736 85.849 117.89 85.7969C118.043 85.7448 118.175 85.6667 118.284 85.5625C118.394 85.4583 118.477 85.3307 118.534 85.1797L120.073 85.2812C119.995 85.651 119.835 85.974 119.593 86.25C119.353 86.5234 119.043 86.737 118.663 86.8906C118.285 87.0417 117.849 87.1172 117.354 87.1172ZM122.858 83.5313V87H121.194V79H122.812V82.0586H122.882C123.017 81.7044 123.236 81.4271 123.538 81.2266C123.84 81.0234 124.219 80.9219 124.675 80.9219C125.091 80.9219 125.455 81.013 125.765 81.1953C126.077 81.375 126.319 81.6341 126.491 81.9727C126.666 82.3086 126.752 82.7109 126.749 83.1797V87H125.085V83.4766C125.088 83.1068 124.994 82.819 124.804 82.6133C124.616 82.4076 124.353 82.3047 124.015 82.3047C123.788 82.3047 123.588 82.3529 123.413 82.4492C123.241 82.5456 123.106 82.6862 123.007 82.8711C122.91 83.0534 122.861 83.2734 122.858 83.5313ZM128.059 87V81H129.723V87H128.059ZM128.895 80.2266C128.647 80.2266 128.435 80.1445 128.258 79.9805C128.083 79.8138 127.996 79.6146 127.996 79.3828C127.996 79.1536 128.083 78.957 128.258 78.793C128.435 78.6263 128.647 78.543 128.895 78.543C129.142 78.543 129.353 78.6263 129.527 78.793C129.704 78.957 129.793 79.1536 129.793 79.3828C129.793 79.6146 129.704 79.8138 129.527 79.9805C129.353 80.1445 129.142 80.2266 128.895 80.2266ZM133.767 87.1172C133.152 87.1172 132.623 86.987 132.181 86.7266C131.741 86.4635 131.402 86.099 131.165 85.6328C130.931 85.1667 130.813 84.6302 130.813 84.0234C130.813 83.4089 130.932 82.8698 131.169 82.4062C131.409 81.9401 131.748 81.5768 132.188 81.3164C132.629 81.0534 133.152 80.9219 133.759 80.9219C134.282 80.9219 134.741 81.0169 135.134 81.207C135.527 81.3971 135.838 81.6641 136.067 82.0078C136.297 82.3516 136.423 82.7552 136.446 83.2188H134.876C134.832 82.9193 134.715 82.6784 134.524 82.4961C134.337 82.3112 134.091 82.2187 133.786 82.2187C133.528 82.2187 133.303 82.2891 133.11 82.4297C132.92 82.5677 132.772 82.7695 132.665 83.0352C132.558 83.3008 132.505 83.6224 132.505 84C132.505 84.3828 132.557 84.7083 132.661 84.9766C132.768 85.2448 132.918 85.4492 133.11 85.5898C133.303 85.7305 133.528 85.8008 133.786 85.8008C133.976 85.8008 134.147 85.7617 134.298 85.6836C134.451 85.6055 134.578 85.4922 134.677 85.3437C134.778 85.1927 134.845 85.0117 134.876 84.8008H136.446C136.42 85.2591 136.295 85.6628 136.071 86.0117C135.85 86.3581 135.544 86.6289 135.153 86.8242C134.763 87.0195 134.3 87.1172 133.767 87.1172ZM139.176 79V87H137.512V79H139.176ZM143.243 87.1172C142.626 87.1172 142.095 86.9922 141.649 86.7422C141.207 86.4896 140.866 86.1328 140.626 85.6719C140.386 85.2083 140.267 84.6602 140.267 84.0273C140.267 83.4102 140.386 82.8685 140.626 82.4023C140.866 81.9362 141.203 81.5729 141.638 81.3125C142.075 81.0521 142.588 80.9219 143.177 80.9219C143.573 80.9219 143.941 80.9857 144.282 81.1133C144.626 81.2383 144.925 81.4271 145.181 81.6797C145.438 81.9323 145.639 82.25 145.782 82.6328C145.925 83.013 145.997 83.4583 145.997 83.9687V84.4258H140.931V83.3945H144.431C144.431 83.1549 144.379 82.9427 144.274 82.7578C144.17 82.5729 144.026 82.4284 143.841 82.3242C143.659 82.2174 143.446 82.1641 143.204 82.1641C142.951 82.1641 142.728 82.2227 142.532 82.3398C142.34 82.4544 142.188 82.6094 142.079 82.8047C141.97 82.9974 141.914 83.2122 141.911 83.4492V84.4297C141.911 84.7266 141.966 84.9831 142.075 85.1992C142.187 85.4154 142.345 85.582 142.548 85.6992C142.751 85.8164 142.992 85.875 143.271 85.875C143.455 85.875 143.625 85.849 143.778 85.7969C143.932 85.7448 144.063 85.6667 144.173 85.5625C144.282 85.4583 144.366 85.3307 144.423 85.1797L145.962 85.2812C145.884 85.651 145.724 85.974 145.481 86.25C145.242 86.5234 144.932 86.737 144.552 86.8906C144.174 87.0417 143.738 87.1172 143.243 87.1172ZM152.075 82.7109L150.552 82.8047C150.526 82.6745 150.47 82.5573 150.384 82.4531C150.298 82.3464 150.185 82.2617 150.044 82.1992C149.906 82.1341 149.741 82.1016 149.548 82.1016C149.29 82.1016 149.073 82.1562 148.896 82.2656C148.718 82.3724 148.63 82.5156 148.63 82.6953C148.63 82.8385 148.687 82.9596 148.802 83.0586C148.916 83.1576 149.113 83.237 149.392 83.2969L150.478 83.5156C151.061 83.6354 151.496 83.8281 151.782 84.0937C152.069 84.3594 152.212 84.7083 152.212 85.1406C152.212 85.5339 152.096 85.8789 151.864 86.1758C151.635 86.4727 151.32 86.7044 150.919 86.8711C150.521 87.0352 150.061 87.1172 149.54 87.1172C148.746 87.1172 148.113 86.9518 147.642 86.6211C147.173 86.2878 146.898 85.8346 146.817 85.2617L148.454 85.1758C148.504 85.418 148.623 85.6029 148.813 85.7305C149.004 85.8555 149.247 85.918 149.544 85.918C149.836 85.918 150.07 85.862 150.247 85.75C150.427 85.6354 150.518 85.4883 150.521 85.3086C150.518 85.1576 150.454 85.0339 150.329 84.9375C150.204 84.8385 150.011 84.763 149.751 84.7109L148.712 84.5039C148.126 84.3867 147.69 84.1836 147.403 83.8945C147.119 83.6055 146.978 83.237 146.978 82.7891C146.978 82.4036 147.082 82.0716 147.29 81.793C147.501 81.5143 147.797 81.2995 148.177 81.1484C148.56 80.9974 149.007 80.9219 149.521 80.9219C150.278 80.9219 150.875 81.082 151.31 81.4023C151.747 81.7227 152.002 82.1589 152.075 82.7109Z" fill="url(#paint1_linear_2078_612)"/>
<path d="M350.505 87H348.037V79H350.615C351.391 79 352.055 79.1602 352.607 79.4805C353.159 79.7982 353.582 80.2552 353.876 80.8516C354.171 81.4453 354.318 82.1562 354.318 82.9844C354.318 83.8177 354.169 84.5352 353.873 85.1367C353.576 85.7357 353.143 86.1966 352.576 86.5195C352.008 86.8398 351.318 87 350.505 87ZM349.005 86.1406H350.443C351.104 86.1406 351.653 86.013 352.087 85.7578C352.522 85.5026 352.847 85.1393 353.06 84.668C353.274 84.1966 353.38 83.6354 353.38 82.9844C353.38 82.3385 353.275 81.7826 353.064 81.3164C352.853 80.8477 352.538 80.4883 352.119 80.2383C351.699 79.9857 351.177 79.8594 350.552 79.8594H349.005V86.1406ZM358.333 87.125C357.755 87.125 357.257 86.9974 356.837 86.7422C356.421 86.4844 356.099 86.125 355.873 85.6641C355.649 85.2005 355.537 84.6615 355.537 84.0469C355.537 83.4323 355.649 82.8906 355.873 82.4219C356.099 81.9505 356.414 81.5833 356.818 81.3203C357.224 81.0547 357.698 80.9219 358.24 80.9219C358.552 80.9219 358.861 80.974 359.166 81.0781C359.47 81.1823 359.748 81.3516 359.998 81.5859C360.248 81.8177 360.447 82.125 360.595 82.5078C360.744 82.8906 360.818 83.362 360.818 83.9219V84.3125H356.193V83.5156H359.88C359.88 83.1771 359.813 82.875 359.677 82.6094C359.544 82.3437 359.354 82.1341 359.107 81.9805C358.862 81.8268 358.573 81.75 358.24 81.75C357.873 81.75 357.555 81.8411 357.287 82.0234C357.021 82.2031 356.817 82.4375 356.673 82.7266C356.53 83.0156 356.458 83.3255 356.458 83.6562V84.1875C356.458 84.6406 356.537 85.0247 356.693 85.3398C356.852 85.6523 357.072 85.8906 357.353 86.0547C357.634 86.2161 357.961 86.2969 358.333 86.2969C358.576 86.2969 358.794 86.263 358.99 86.1953C359.188 86.125 359.358 86.0208 359.501 85.8828C359.645 85.7422 359.755 85.5677 359.833 85.3594L360.724 85.6094C360.63 85.9115 360.473 86.1771 360.251 86.4062C360.03 86.6328 359.757 86.8099 359.431 86.9375C359.106 87.0625 358.74 87.125 358.333 87.125ZM363.986 87.1406C363.606 87.1406 363.261 87.069 362.951 86.9258C362.641 86.7799 362.395 86.5703 362.212 86.2969C362.03 86.0208 361.939 85.6875 361.939 85.2969C361.939 84.9531 362.007 84.6745 362.142 84.4609C362.278 84.2448 362.458 84.0755 362.685 83.9531C362.912 83.8307 363.162 83.7396 363.435 83.6797C363.711 83.6172 363.988 83.5677 364.267 83.5313C364.632 83.4844 364.927 83.4492 365.154 83.4258C365.383 83.3997 365.55 83.3568 365.654 83.2969C365.761 83.237 365.814 83.1328 365.814 82.9844V82.9531C365.814 82.5677 365.708 82.2682 365.498 82.0547C365.289 81.8411 364.973 81.7344 364.548 81.7344C364.108 81.7344 363.763 81.8307 363.513 82.0234C363.263 82.2161 363.087 82.4219 362.986 82.6406L362.111 82.3281C362.267 81.9635 362.475 81.6797 362.736 81.4766C362.999 81.2708 363.285 81.1276 363.595 81.0469C363.908 80.9635 364.215 80.9219 364.517 80.9219C364.71 80.9219 364.931 80.9453 365.181 80.9922C365.434 81.0365 365.677 81.1289 365.912 81.2695C366.149 81.4102 366.345 81.6224 366.501 81.9062C366.658 82.1901 366.736 82.5703 366.736 83.0469V87H365.814V86.1875H365.767C365.705 86.3177 365.6 86.457 365.455 86.6055C365.309 86.7539 365.115 86.8802 364.873 86.9844C364.63 87.0885 364.335 87.1406 363.986 87.1406ZM364.126 86.3125C364.491 86.3125 364.798 86.2409 365.048 86.0977C365.301 85.9544 365.491 85.7695 365.619 85.543C365.749 85.3164 365.814 85.0781 365.814 84.8281V83.9844C365.775 84.0312 365.689 84.0742 365.556 84.1133C365.426 84.1497 365.275 84.1823 365.103 84.2109C364.934 84.237 364.768 84.2604 364.607 84.2812C364.448 84.2995 364.319 84.3151 364.22 84.3281C363.981 84.3594 363.757 84.4102 363.548 84.4805C363.343 84.5482 363.176 84.651 363.048 84.7891C362.923 84.9245 362.861 85.1094 362.861 85.3437C362.861 85.6641 362.979 85.9062 363.216 86.0703C363.456 86.2318 363.759 86.3125 364.126 86.3125ZM369.34 79V87H368.418V79H369.34ZM375.279 82.3437L374.451 82.5781C374.399 82.4401 374.322 82.306 374.22 82.1758C374.121 82.043 373.986 81.9336 373.814 81.8477C373.642 81.7617 373.422 81.7187 373.154 81.7187C372.787 81.7187 372.481 81.8034 372.236 81.9727C371.994 82.1393 371.873 82.3516 371.873 82.6094C371.873 82.8385 371.956 83.0195 372.123 83.1523C372.289 83.2852 372.55 83.3958 372.904 83.4844L373.794 83.7031C374.331 83.8333 374.731 84.0326 374.994 84.3008C375.257 84.5664 375.388 84.9089 375.388 85.3281C375.388 85.6719 375.289 85.9792 375.091 86.25C374.896 86.5208 374.623 86.7344 374.271 86.8906C373.919 87.0469 373.511 87.125 373.044 87.125C372.432 87.125 371.926 86.9922 371.525 86.7266C371.124 86.4609 370.87 86.0729 370.763 85.5625L371.638 85.3437C371.722 85.6667 371.879 85.9089 372.111 86.0703C372.345 86.2318 372.651 86.3125 373.029 86.3125C373.458 86.3125 373.8 86.2214 374.052 86.0391C374.307 85.8542 374.435 85.6328 374.435 85.375C374.435 85.1667 374.362 84.9922 374.216 84.8516C374.07 84.7083 373.847 84.6016 373.544 84.5312L372.544 84.2969C371.995 84.1667 371.591 83.9648 371.333 83.6914C371.078 83.4154 370.951 83.0703 370.951 82.6562C370.951 82.3177 371.046 82.0182 371.236 81.7578C371.429 81.4974 371.69 81.293 372.021 81.1445C372.354 80.9961 372.732 80.9219 373.154 80.9219C373.748 80.9219 374.214 81.0521 374.552 81.3125C374.893 81.5729 375.136 81.9167 375.279 82.3437Z" fill="black"/>
<circle cx="130.5" cy="36.5" r="4.5" fill="url(#paint2_linear_2078_612)"/>
<path d="M191.98 87V79H192.949V82.5625H197.214V79H198.183V87H197.214V83.4219H192.949V87H191.98ZM202.513 87.125C201.935 87.125 201.436 86.9974 201.017 86.7422C200.6 86.4844 200.279 86.125 200.052 85.6641C199.828 85.2005 199.716 84.6615 199.716 84.0469C199.716 83.4323 199.828 82.8906 200.052 82.4219C200.279 81.9505 200.594 81.5833 200.998 81.3203C201.404 81.0547 201.878 80.9219 202.419 80.9219C202.732 80.9219 203.041 80.974 203.345 81.0781C203.65 81.1823 203.927 81.3516 204.177 81.5859C204.427 81.8177 204.626 82.125 204.775 82.5078C204.923 82.8906 204.998 83.362 204.998 83.9219V84.3125H200.373V83.5156H204.06C204.06 83.1771 203.992 82.875 203.857 82.6094C203.724 82.3437 203.534 82.1341 203.287 81.9805C203.042 81.8268 202.753 81.75 202.419 81.75C202.052 81.75 201.735 81.8411 201.466 82.0234C201.201 82.2031 200.996 82.4375 200.853 82.7266C200.71 83.0156 200.638 83.3255 200.638 83.6562V84.1875C200.638 84.6406 200.716 85.0247 200.873 85.3398C201.031 85.6523 201.251 85.8906 201.533 86.0547C201.814 86.2161 202.141 86.2969 202.513 86.2969C202.755 86.2969 202.974 86.263 203.169 86.1953C203.367 86.125 203.538 86.0208 203.681 85.8828C203.824 85.7422 203.935 85.5677 204.013 85.3594L204.904 85.6094C204.81 85.9115 204.653 86.1771 204.431 86.4062C204.21 86.6328 203.936 86.8099 203.611 86.9375C203.285 87.0625 202.919 87.125 202.513 87.125ZM208.166 87.1406C207.785 87.1406 207.44 87.069 207.13 86.9258C206.82 86.7799 206.574 86.5703 206.392 86.2969C206.21 86.0208 206.119 85.6875 206.119 85.2969C206.119 84.9531 206.186 84.6745 206.322 84.4609C206.457 84.2448 206.638 84.0755 206.865 83.9531C207.091 83.8307 207.341 83.7396 207.615 83.6797C207.891 83.6172 208.168 83.5677 208.447 83.5313C208.811 83.4844 209.107 83.4492 209.333 83.4258C209.563 83.3997 209.729 83.3568 209.833 83.2969C209.94 83.237 209.994 83.1328 209.994 82.9844V82.9531C209.994 82.5677 209.888 82.2682 209.677 82.0547C209.469 81.8411 209.153 81.7344 208.728 81.7344C208.288 81.7344 207.943 81.8307 207.693 82.0234C207.443 82.2161 207.267 82.4219 207.166 82.6406L206.291 82.3281C206.447 81.9635 206.655 81.6797 206.916 81.4766C207.179 81.2708 207.465 81.1276 207.775 81.0469C208.087 80.9635 208.395 80.9219 208.697 80.9219C208.889 80.9219 209.111 80.9453 209.361 80.9922C209.613 81.0365 209.857 81.1289 210.091 81.2695C210.328 81.4102 210.525 81.6224 210.681 81.9062C210.837 82.1901 210.916 82.5703 210.916 83.0469V87H209.994V86.1875H209.947C209.884 86.3177 209.78 86.457 209.634 86.6055C209.488 86.7539 209.294 86.8802 209.052 86.9844C208.81 87.0885 208.514 87.1406 208.166 87.1406ZM208.306 86.3125C208.671 86.3125 208.978 86.2409 209.228 86.0977C209.481 85.9544 209.671 85.7695 209.798 85.543C209.929 85.3164 209.994 85.0781 209.994 84.8281V83.9844C209.955 84.0312 209.869 84.0742 209.736 84.1133C209.606 84.1497 209.455 84.1823 209.283 84.2109C209.113 84.237 208.948 84.2604 208.787 84.2812C208.628 84.2995 208.499 84.3151 208.4 84.3281C208.16 84.3594 207.936 84.4102 207.728 84.4805C207.522 84.5482 207.356 84.651 207.228 84.7891C207.103 84.9245 207.041 85.1094 207.041 85.3437C207.041 85.6641 207.159 85.9062 207.396 86.0703C207.636 86.2318 207.939 86.3125 208.306 86.3125ZM213.52 79V87H212.598V79H213.52ZM217.818 81V81.7812H214.708V81H217.818ZM215.615 79.5625H216.537V85.2812C216.537 85.5417 216.574 85.737 216.65 85.8672C216.728 85.9948 216.827 86.0807 216.947 86.125C217.069 86.1667 217.198 86.1875 217.333 86.1875C217.435 86.1875 217.518 86.1823 217.583 86.1719C217.649 86.1589 217.701 86.1484 217.74 86.1406L217.927 86.9687C217.865 86.9922 217.778 87.0156 217.666 87.0391C217.554 87.0651 217.412 87.0781 217.24 87.0781C216.979 87.0781 216.724 87.0221 216.474 86.9102C216.227 86.7982 216.021 86.6276 215.857 86.3984C215.695 86.1693 215.615 85.8802 215.615 85.5312V79.5625ZM220.255 83.3906V87H219.333V79H220.255V81.9375H220.333C220.474 81.6276 220.685 81.3815 220.966 81.1992C221.25 81.0143 221.628 80.9219 222.099 80.9219C222.508 80.9219 222.866 81.0039 223.173 81.168C223.481 81.3294 223.719 81.5781 223.888 81.9141C224.06 82.2474 224.146 82.6719 224.146 83.1875V87H223.224V83.25C223.224 82.7734 223.1 82.4049 222.853 82.1445C222.608 81.8815 222.268 81.75 221.833 81.75C221.531 81.75 221.261 81.8138 221.021 81.9414C220.784 82.069 220.597 82.2552 220.458 82.5C220.323 82.7448 220.255 83.0417 220.255 83.3906Z" fill="black"/>
<path d="M218.05 51.7623C217.412 51.1236 216.654 50.6169 215.819 50.2712C214.985 49.9255 214.091 49.7476 213.188 49.7476C212.285 49.7476 211.39 49.9255 210.556 50.2712C209.722 50.6169 208.964 51.1236 208.325 51.7623L207 53.0873L205.675 51.7623C204.386 50.4727 202.636 49.7482 200.813 49.7482C198.989 49.7482 197.24 50.4727 195.95 51.7623C194.661 53.052 193.936 54.801 193.936 56.6248C193.936 58.4486 194.661 60.1977 195.95 61.4873L207 72.5373L218.05 61.4873C218.689 60.8489 219.196 60.0909 219.541 59.2565C219.887 58.4222 220.065 57.5279 220.065 56.6248C220.065 55.7217 219.887 54.8275 219.541 53.9931C219.196 53.1588 218.689 52.4008 218.05 51.7623Z" stroke="#1E1E1E" stroke-width="2" stroke-linecap="round" stroke-linejoin="round"/>
<path d="M356.75 54.75H356.763M373.738 62.7625L364.775 71.725C364.543 71.9574 364.267 72.1418 363.964 72.2676C363.66 72.3935 363.335 72.4582 363.006 72.4582C362.678 72.4582 362.352 72.3935 362.049 72.2676C361.745 72.1418 361.47 71.9574 361.238 71.725L350.5 61V48.5H363L373.738 59.2375C374.203 59.7059 374.464 60.3395 374.464 61C374.464 61.6605 374.203 62.2941 373.738 62.7625Z" stroke="#1E1E1E" stroke-width="2" stroke-linecap="round" stroke-linejoin="round"/>
<path d="M130 71.8002C135.965 71.8002 140.8 66.9649 140.8 61.0002C140.8 55.0355 135.965 50.2002 130 50.2002C124.036 50.2002 119.2 55.0355 119.2 61.0002C119.2 66.9649 124.036 71.8002 130 71.8002Z" stroke="url(#paint3_linear_2078_612)" stroke-width="2.5" stroke-linecap="round"/>
<path d="M130 63.4001C131.326 63.4001 132.4 62.3256 132.4 61.0001C132.4 59.6746 131.326 58.6001 130 58.6001C128.675 58.6001 127.6 59.6746 127.6 61.0001C127.6 62.3256 128.675 63.4001 130 63.4001Z" stroke="url(#paint4_linear_2078_612)" stroke-width="2.5"/>
<path d="M130 58.5999V51.3999" stroke="#FFF200" stroke-width="2.5" stroke-linecap="round"/>
<path d="M128.05 62.7998L121.6 66.3998" stroke="#F8BB15" stroke-width="2.5" stroke-linecap="round"/>
<path d="M131.95 62.7998L138.4 66.3998" stroke="url(#paint5_linear_2078_612)" stroke-width="2.5" stroke-linecap="round"/>
<path d="M272.737 79.8594V79H278.737V79.8594H276.222V87H275.253V79.8594H272.737ZM279.484 87V81H280.375V81.9062H280.438C280.547 81.6094 280.745 81.3685 281.031 81.1836C281.318 80.9987 281.641 80.9062 282 80.9062C282.068 80.9062 282.152 80.9076 282.254 80.9102C282.355 80.9128 282.432 80.9167 282.484 80.9219V81.8594C282.453 81.8516 282.382 81.8398 282.27 81.8242C282.16 81.806 282.044 81.7969 281.922 81.7969C281.63 81.7969 281.37 81.8581 281.141 81.9805C280.914 82.1003 280.734 82.2669 280.602 82.4805C280.471 82.6914 280.406 82.9323 280.406 83.2031V87H279.484ZM283.577 87V81H284.499V87H283.577ZM284.046 80C283.866 80 283.711 79.9388 283.581 79.8164C283.453 79.694 283.39 79.5469 283.39 79.375C283.39 79.2031 283.453 79.056 283.581 78.9336C283.711 78.8112 283.866 78.75 284.046 78.75C284.226 78.75 284.379 78.8112 284.507 78.9336C284.637 79.056 284.702 79.2031 284.702 79.375C284.702 79.5469 284.637 79.694 284.507 79.8164C284.379 79.9388 284.226 80 284.046 80ZM286.188 89.25V81H287.078V81.9531H287.188C287.255 81.849 287.349 81.7161 287.469 81.5547C287.591 81.3906 287.766 81.2448 287.992 81.1172C288.221 80.987 288.531 80.9219 288.922 80.9219C289.427 80.9219 289.872 81.0482 290.258 81.3008C290.643 81.5534 290.944 81.9115 291.16 82.375C291.376 82.8385 291.484 83.3854 291.484 84.0156C291.484 84.651 291.376 85.2018 291.16 85.668C290.944 86.1315 290.645 86.4909 290.262 86.7461C289.879 86.9987 289.438 87.125 288.938 87.125C288.552 87.125 288.243 87.0612 288.012 86.9336C287.78 86.8034 287.602 86.6562 287.477 86.4922C287.352 86.3255 287.255 86.1875 287.188 86.0781H287.109V89.25H286.188ZM287.094 84C287.094 84.4531 287.16 84.8529 287.293 85.1992C287.426 85.543 287.62 85.8125 287.875 86.0078C288.13 86.2005 288.443 86.2969 288.812 86.2969C289.198 86.2969 289.52 86.1953 289.777 85.9922C290.038 85.7865 290.233 85.5104 290.363 85.1641C290.496 84.8151 290.563 84.4271 290.563 84C290.563 83.5781 290.497 83.1979 290.367 82.8594C290.24 82.5182 290.046 82.2487 289.785 82.0508C289.527 81.8503 289.203 81.75 288.812 81.75C288.438 81.75 288.122 81.8451 287.867 82.0352C287.612 82.2227 287.419 82.4857 287.289 82.8242C287.159 83.1602 287.094 83.5521 287.094 84ZM297.141 82.3437L296.313 82.5781C296.26 82.4401 296.184 82.306 296.082 82.1758C295.983 82.043 295.848 81.9336 295.676 81.8477C295.504 81.7617 295.284 81.7187 295.016 81.7187C294.648 81.7187 294.342 81.8034 294.098 81.9727C293.855 82.1393 293.734 82.3516 293.734 82.6094C293.734 82.8385 293.818 83.0195 293.984 83.1523C294.151 83.2852 294.411 83.3958 294.766 83.4844L295.656 83.7031C296.193 83.8333 296.592 84.0326 296.855 84.3008C297.118 84.5664 297.25 84.9089 297.25 85.3281C297.25 85.6719 297.151 85.9792 296.953 86.25C296.758 86.5208 296.484 86.7344 296.133 86.8906C295.781 87.0469 295.372 87.125 294.906 87.125C294.294 87.125 293.788 86.9922 293.387 86.7266C292.986 86.4609 292.732 86.0729 292.625 85.5625L293.5 85.3437C293.583 85.6667 293.741 85.9089 293.973 86.0703C294.207 86.2318 294.513 86.3125 294.891 86.3125C295.32 86.3125 295.661 86.2214 295.914 86.0391C296.169 85.8542 296.297 85.6328 296.297 85.375C296.297 85.1667 296.224 84.9922 296.078 84.8516C295.932 84.7083 295.708 84.6016 295.406 84.5312L294.406 84.2969C293.857 84.1667 293.453 83.9648 293.195 83.6914C292.94 83.4154 292.813 83.0703 292.813 82.6562C292.813 82.3177 292.908 82.0182 293.098 81.7578C293.29 81.4974 293.552 81.293 293.883 81.1445C294.216 80.9961 294.594 80.9219 295.016 80.9219C295.609 80.9219 296.076 81.0521 296.414 81.3125C296.755 81.5729 296.997 81.9167 297.141 82.3437Z" fill="black"/>
<path d="M280 68.5L271.25 73.5V53.5L280 48.5M280 68.5L290 73.5M280 68.5V48.5M290 73.5L298.75 68.5V48.5L290 53.5M290 73.5V53.5M290 53.5L280 48.5" stroke="#1E1E1E" stroke-width="2" stroke-linecap="round" stroke-linejoin="round"/>
<defs>
<filter id="filter0_d_2078_612" x="0" y="0" width="421" height="131" filterUnits="userSpaceOnUse" color-interpolation-filters="sRGB">
<feFlood flood-opacity="0" result="BackgroundImageFix"/>
<feColorMatrix in="SourceAlpha" type="matrix" values="0 0 0 0 0 0 0 0 0 0 0 0 0 0 0 0 0 0 127 0" result="hardAlpha"/>
<feOffset dy="-4"/>
<feGaussianBlur stdDeviation="7"/>
<feComposite in2="hardAlpha" operator="out"/>
<feColorMatrix type="matrix" values="0 0 0 0 0 0 0 0 0 0 0 0 0 0 0 0 0 0 0.15 0"/>
<feBlend mode="normal" in2="BackgroundImageFix" result="effect1_dropShadow_2078_612"/>
<feBlend mode="normal" in="SourceGraphic" in2="effect1_dropShadow_2078_612" result="shape"/>
</filter>
<linearGradient id="paint0_linear_2078_612" x1="53" y1="63.5" x2="53" y2="88.5" gradientUnits="userSpaceOnUse">
<stop offset="0.5" stop-color="#FFF200"/>
<stop offset="1" stop-color="#F8BB15"/>
</linearGradient>
<linearGradient id="paint1_linear_2078_612" x1="106" y1="82.5" x2="153" y2="82.5" gradientUnits="userSpaceOnUse">
<stop offset="1" stop-color="#F8BD14"/>
</linearGradient>
<linearGradient id="paint2_linear_2078_612" x1="130.5" y1="32" x2="130.5" y2="41" gradientUnits="userSpaceOnUse">
<stop offset="0.5" stop-color="#FFF200"/>
<stop offset="1" stop-color="#FFCB14"/>
</linearGradient>
<linearGradient id="paint3_linear_2078_612" x1="130" y1="50.2002" x2="130" y2="71.8002" gradientUnits="userSpaceOnUse">
<stop offset="0.5" stop-color="#FFF200"/>
<stop offset="1" stop-color="#F8BB15"/>
</linearGradient>
<linearGradient id="paint4_linear_2078_612" x1="130" y1="58.6001" x2="130" y2="63.4001" gradientUnits="userSpaceOnUse">
<stop offset="0.5" stop-color="#FFF200"/>
<stop offset="1" stop-color="#F8BD14"/>
</linearGradient>
<linearGradient id="paint5_linear_2078_612" x1="135.175" y1="62.7998" x2="135.175" y2="66.3998" gradientUnits="userSpaceOnUse">
<stop stop-color="#F8BB15"/>
<stop offset="1" stop-color="#F8BB15"/>
</linearGradient>
</defs>
</svg>
