<svg width="393" height="852" viewBox="0 0 393 852" fill="none" xmlns="http://www.w3.org/2000/svg">
<rect width="393" height="852" fill="white"/>
<rect x="51" y="489.838" width="288" height="42" rx="10" fill="url(#paint0_linear_2060_843)"/>
<path d="M172.65 516.943C171.92 516.943 171.26 516.818 170.67 516.568C170.09 516.318 169.63 515.958 169.29 515.488C168.95 515.018 168.775 514.463 168.765 513.823H171.015C171.045 514.253 171.195 514.593 171.465 514.843C171.745 515.093 172.125 515.218 172.605 515.218C173.095 515.218 173.48 515.103 173.76 514.873C174.04 514.633 174.18 514.323 174.18 513.943C174.18 513.633 174.085 513.378 173.895 513.178C173.705 512.978 173.465 512.823 173.175 512.713C172.895 512.593 172.505 512.463 172.005 512.323C171.325 512.123 170.77 511.928 170.34 511.738C169.92 511.538 169.555 511.243 169.245 510.853C168.945 510.453 168.795 509.923 168.795 509.263C168.795 508.643 168.95 508.103 169.26 507.643C169.57 507.183 170.005 506.833 170.565 506.593C171.125 506.343 171.765 506.218 172.485 506.218C173.565 506.218 174.44 506.483 175.11 507.013C175.79 507.533 176.165 508.263 176.235 509.203H173.925C173.905 508.843 173.75 508.548 173.46 508.318C173.18 508.078 172.805 507.958 172.335 507.958C171.925 507.958 171.595 508.063 171.345 508.273C171.105 508.483 170.985 508.788 170.985 509.188C170.985 509.468 171.075 509.703 171.255 509.893C171.445 510.073 171.675 510.223 171.945 510.343C172.225 510.453 172.615 510.583 173.115 510.733C173.795 510.933 174.35 511.133 174.78 511.333C175.21 511.533 175.58 511.833 175.89 512.233C176.2 512.633 176.355 513.158 176.355 513.808C176.355 514.368 176.21 514.888 175.92 515.368C175.63 515.848 175.205 516.233 174.645 516.523C174.085 516.803 173.42 516.943 172.65 516.943ZM180.576 506.368V516.838H178.476V506.368H180.576ZM190.24 509.518C190 509.078 189.67 508.743 189.25 508.513C188.83 508.283 188.34 508.168 187.78 508.168C187.16 508.168 186.61 508.308 186.13 508.588C185.65 508.868 185.275 509.268 185.005 509.788C184.735 510.308 184.6 510.908 184.6 511.588C184.6 512.288 184.735 512.898 185.005 513.418C185.285 513.938 185.67 514.338 186.16 514.618C186.65 514.898 187.22 515.038 187.87 515.038C188.67 515.038 189.325 514.828 189.835 514.408C190.345 513.978 190.68 513.383 190.84 512.623H187.24V511.018H192.91V512.848C192.77 513.578 192.47 514.253 192.01 514.873C191.55 515.493 190.955 515.993 190.225 516.373C189.505 516.743 188.695 516.928 187.795 516.928C186.785 516.928 185.87 516.703 185.05 516.253C184.24 515.793 183.6 515.158 183.13 514.348C182.67 513.538 182.44 512.618 182.44 511.588C182.44 510.558 182.67 509.638 183.13 508.828C183.6 508.008 184.24 507.373 185.05 506.923C185.87 506.463 186.78 506.233 187.78 506.233C188.96 506.233 189.985 506.523 190.855 507.103C191.725 507.673 192.325 508.478 192.655 509.518H190.24ZM203.719 516.838H201.619L196.864 509.653V516.838H194.764V506.353H196.864L201.619 513.553V506.353H203.719V516.838ZM212.069 506.368V516.838H209.969V506.368H212.069ZM223.398 516.838H221.298L216.543 509.653V516.838H214.443V506.353H216.543L221.298 513.553V506.353H223.398V516.838Z" fill="black"/>
<rect x="51" y="489.838" width="288" height="42" rx="10" fill="url(#paint1_linear_2060_843)"/>
<path d="M175.701 514.843H171.531L170.841 516.838H168.636L172.401 506.353H174.846L178.611 516.838H176.391L175.701 514.843ZM175.131 513.163L173.616 508.783L172.101 513.163H175.131ZM182.418 505.738V516.838H180.318V505.738H182.418ZM186.893 505.738V516.838H184.793V505.738H186.893ZM192.958 516.973C192.158 516.973 191.438 516.798 190.798 516.448C190.158 516.088 189.653 515.583 189.283 514.933C188.923 514.283 188.743 513.533 188.743 512.683C188.743 511.833 188.928 511.083 189.298 510.433C189.678 509.783 190.193 509.283 190.843 508.933C191.493 508.573 192.218 508.393 193.018 508.393C193.818 508.393 194.543 508.573 195.193 508.933C195.843 509.283 196.353 509.783 196.723 510.433C197.103 511.083 197.293 511.833 197.293 512.683C197.293 513.533 197.098 514.283 196.708 514.933C196.328 515.583 195.808 516.088 195.148 516.448C194.498 516.798 193.768 516.973 192.958 516.973ZM192.958 515.143C193.338 515.143 193.693 515.053 194.023 514.873C194.363 514.683 194.633 514.403 194.833 514.033C195.033 513.663 195.133 513.213 195.133 512.683C195.133 511.893 194.923 511.288 194.503 510.868C194.093 510.438 193.588 510.223 192.988 510.223C192.388 510.223 191.883 510.438 191.473 510.868C191.073 511.288 190.873 511.893 190.873 512.683C190.873 513.473 191.068 514.083 191.458 514.513C191.858 514.933 192.358 515.143 192.958 515.143ZM210.653 508.528L208.223 516.838H205.958L204.443 511.033L202.928 516.838H200.648L198.203 508.528H200.333L201.803 514.858L203.393 508.528H205.613L207.173 514.843L208.643 508.528H210.653Z" fill="black"/>
<path d="M51.7281 423.52H46.8641L45.9681 426H44.4321L48.4641 414.912H50.1441L54.1601 426H52.6241L51.7281 423.52ZM51.3121 422.336L49.2961 416.704L47.2801 422.336H51.3121ZM57.6933 414.16V426H56.2373V414.16H57.6933ZM61.9508 414.16V426H60.4948V414.16H61.9508ZM68.5763 426.144C67.755 426.144 67.0083 425.957 66.3363 425.584C65.675 425.211 65.1523 424.683 64.7683 424C64.395 423.307 64.2083 422.507 64.2083 421.6C64.2083 420.704 64.4003 419.915 64.7843 419.232C65.179 418.539 65.7123 418.011 66.3843 417.648C67.0563 417.275 67.8083 417.088 68.6403 417.088C69.4723 417.088 70.2243 417.275 70.8963 417.648C71.5683 418.011 72.0963 418.533 72.4803 419.216C72.875 419.899 73.0723 420.693 73.0723 421.6C73.0723 422.507 72.8697 423.307 72.4643 424C72.0697 424.683 71.531 425.211 70.8483 425.584C70.1657 425.957 69.4083 426.144 68.5763 426.144ZM68.5763 424.864C69.099 424.864 69.5897 424.741 70.0483 424.496C70.507 424.251 70.875 423.883 71.1523 423.392C71.4403 422.901 71.5843 422.304 71.5843 421.6C71.5843 420.896 71.4457 420.299 71.1683 419.808C70.891 419.317 70.5283 418.955 70.0803 418.72C69.6323 418.475 69.147 418.352 68.6243 418.352C68.091 418.352 67.6003 418.475 67.1523 418.72C66.715 418.955 66.363 419.317 66.0963 419.808C65.8297 420.299 65.6963 420.896 65.6963 421.6C65.6963 422.315 65.8243 422.917 66.0803 423.408C66.347 423.899 66.699 424.267 67.1363 424.512C67.5737 424.747 68.0537 424.864 68.5763 424.864ZM86.9867 417.232L84.2507 426H82.7467L80.6347 419.04L78.5227 426H77.0187L74.2667 417.232H75.7547L77.7707 424.592L79.9467 417.232H81.4347L83.5627 424.608L85.5467 417.232H86.9867ZM97.6093 417.072C98.676 417.072 99.54 417.397 100.201 418.048C100.863 418.688 101.193 419.616 101.193 420.832V426H99.7533V421.04C99.7533 420.165 99.5346 419.499 99.0973 419.04C98.66 418.571 98.0626 418.336 97.3053 418.336C96.5373 418.336 95.924 418.576 95.4653 419.056C95.0173 419.536 94.7933 420.235 94.7933 421.152V426H93.3373V417.232H94.7933V418.48C95.0813 418.032 95.4706 417.685 95.9613 417.44C96.4626 417.195 97.012 417.072 97.6093 417.072ZM107.716 426.144C106.894 426.144 106.148 425.957 105.476 425.584C104.814 425.211 104.292 424.683 103.908 424C103.534 423.307 103.348 422.507 103.348 421.6C103.348 420.704 103.54 419.915 103.924 419.232C104.318 418.539 104.852 418.011 105.524 417.648C106.196 417.275 106.948 417.088 107.78 417.088C108.612 417.088 109.364 417.275 110.036 417.648C110.708 418.011 111.236 418.533 111.62 419.216C112.014 419.899 112.212 420.693 112.212 421.6C112.212 422.507 112.009 423.307 111.604 424C111.209 424.683 110.67 425.211 109.988 425.584C109.305 425.957 108.548 426.144 107.716 426.144ZM107.716 424.864C108.238 424.864 108.729 424.741 109.188 424.496C109.646 424.251 110.014 423.883 110.292 423.392C110.58 422.901 110.724 422.304 110.724 421.6C110.724 420.896 110.585 420.299 110.308 419.808C110.03 419.317 109.668 418.955 109.22 418.72C108.772 418.475 108.286 418.352 107.764 418.352C107.23 418.352 106.74 418.475 106.292 418.72C105.854 418.955 105.502 419.317 105.236 419.808C104.969 420.299 104.836 420.896 104.836 421.6C104.836 422.315 104.964 422.917 105.22 423.408C105.486 423.899 105.838 424.267 106.276 424.512C106.713 424.747 107.193 424.864 107.716 424.864ZM116.222 418.432V423.6C116.222 424.027 116.313 424.331 116.494 424.512C116.675 424.683 116.99 424.768 117.438 424.768H118.51V426H117.198C116.387 426 115.779 425.813 115.374 425.44C114.969 425.067 114.766 424.453 114.766 423.6V418.432H113.63V417.232H114.766V415.024H116.222V417.232H118.51V418.432H116.222ZM121.346 415.808C121.069 415.808 120.834 415.712 120.642 415.52C120.45 415.328 120.354 415.093 120.354 414.816C120.354 414.539 120.45 414.304 120.642 414.112C120.834 413.92 121.069 413.824 121.346 413.824C121.613 413.824 121.837 413.92 122.018 414.112C122.21 414.304 122.306 414.539 122.306 414.816C122.306 415.093 122.21 415.328 122.018 415.52C121.837 415.712 121.613 415.808 121.346 415.808ZM122.05 417.232V426H120.594V417.232H122.05ZM128.42 418.432H126.58V426H125.124V418.432H123.988V417.232H125.124V416.608C125.124 415.627 125.374 414.912 125.876 414.464C126.388 414.005 127.204 413.776 128.324 413.776V414.992C127.684 414.992 127.23 415.12 126.964 415.376C126.708 415.621 126.58 416.032 126.58 416.608V417.232H128.42V418.432ZM131.189 415.808C130.912 415.808 130.677 415.712 130.485 415.52C130.293 415.328 130.197 415.093 130.197 414.816C130.197 414.539 130.293 414.304 130.485 414.112C130.677 413.92 130.912 413.824 131.189 413.824C131.456 413.824 131.68 413.92 131.861 414.112C132.053 414.304 132.149 414.539 132.149 414.816C132.149 415.093 132.053 415.328 131.861 415.52C131.68 415.712 131.456 415.808 131.189 415.808ZM131.893 417.232V426H130.437V417.232H131.893ZM134.151 421.6C134.151 420.693 134.332 419.904 134.695 419.232C135.057 418.549 135.559 418.021 136.199 417.648C136.849 417.275 137.591 417.088 138.423 417.088C139.5 417.088 140.385 417.349 141.079 417.872C141.783 418.395 142.247 419.12 142.471 420.048H140.903C140.753 419.515 140.46 419.093 140.023 418.784C139.596 418.475 139.063 418.32 138.423 418.32C137.591 418.32 136.919 418.608 136.407 419.184C135.895 419.749 135.639 420.555 135.639 421.6C135.639 422.656 135.895 423.472 136.407 424.048C136.919 424.624 137.591 424.912 138.423 424.912C139.063 424.912 139.596 424.763 140.023 424.464C140.449 424.165 140.743 423.739 140.903 423.184H142.471C142.236 424.08 141.767 424.8 141.063 425.344C140.359 425.877 139.479 426.144 138.423 426.144C137.591 426.144 136.849 425.957 136.199 425.584C135.559 425.211 135.057 424.683 134.695 424C134.332 423.317 134.151 422.517 134.151 421.6ZM144.19 421.584C144.19 420.688 144.371 419.904 144.734 419.232C145.096 418.549 145.592 418.021 146.222 417.648C146.862 417.275 147.571 417.088 148.35 417.088C149.118 417.088 149.784 417.253 150.35 417.584C150.915 417.915 151.336 418.331 151.614 418.832V417.232H153.086V426H151.614V424.368C151.326 424.88 150.894 425.307 150.318 425.648C149.752 425.979 149.091 426.144 148.334 426.144C147.555 426.144 146.851 425.952 146.222 425.568C145.592 425.184 145.096 424.645 144.734 423.952C144.371 423.259 144.19 422.469 144.19 421.584ZM151.614 421.6C151.614 420.939 151.48 420.363 151.214 419.872C150.947 419.381 150.584 419.008 150.126 418.752C149.678 418.485 149.182 418.352 148.638 418.352C148.094 418.352 147.598 418.48 147.15 418.736C146.702 418.992 146.344 419.365 146.078 419.856C145.811 420.347 145.678 420.923 145.678 421.584C145.678 422.256 145.811 422.843 146.078 423.344C146.344 423.835 146.702 424.213 147.15 424.48C147.598 424.736 148.094 424.864 148.638 424.864C149.182 424.864 149.678 424.736 150.126 424.48C150.584 424.213 150.947 423.835 151.214 423.344C151.48 422.843 151.614 422.261 151.614 421.6ZM157.642 418.432V423.6C157.642 424.027 157.733 424.331 157.914 424.512C158.095 424.683 158.41 424.768 158.858 424.768H159.93V426H158.618C157.807 426 157.199 425.813 156.794 425.44C156.389 425.067 156.186 424.453 156.186 423.6V418.432H155.05V417.232H156.186V415.024H157.642V417.232H159.93V418.432H157.642ZM162.766 415.808C162.489 415.808 162.254 415.712 162.062 415.52C161.87 415.328 161.774 415.093 161.774 414.816C161.774 414.539 161.87 414.304 162.062 414.112C162.254 413.92 162.489 413.824 162.766 413.824C163.033 413.824 163.257 413.92 163.438 414.112C163.63 414.304 163.726 414.539 163.726 414.816C163.726 415.093 163.63 415.328 163.438 415.52C163.257 415.712 163.033 415.808 162.766 415.808ZM163.47 417.232V426H162.014V417.232H163.47ZM170.096 426.144C169.274 426.144 168.528 425.957 167.856 425.584C167.194 425.211 166.672 424.683 166.288 424C165.914 423.307 165.728 422.507 165.728 421.6C165.728 420.704 165.92 419.915 166.304 419.232C166.698 418.539 167.232 418.011 167.904 417.648C168.576 417.275 169.328 417.088 170.16 417.088C170.992 417.088 171.744 417.275 172.416 417.648C173.088 418.011 173.616 418.533 174 419.216C174.394 419.899 174.592 420.693 174.592 421.6C174.592 422.507 174.389 423.307 173.984 424C173.589 424.683 173.05 425.211 172.368 425.584C171.685 425.957 170.928 426.144 170.096 426.144ZM170.096 424.864C170.618 424.864 171.109 424.741 171.568 424.496C172.026 424.251 172.394 423.883 172.672 423.392C172.96 422.901 173.104 422.304 173.104 421.6C173.104 420.896 172.965 420.299 172.688 419.808C172.41 419.317 172.048 418.955 171.6 418.72C171.152 418.475 170.666 418.352 170.144 418.352C169.61 418.352 169.12 418.475 168.672 418.72C168.234 418.955 167.882 419.317 167.616 419.808C167.349 420.299 167.216 420.896 167.216 421.6C167.216 422.315 167.344 422.917 167.6 423.408C167.866 423.899 168.218 424.267 168.656 424.512C169.093 424.747 169.573 424.864 170.096 424.864ZM181.098 417.072C182.165 417.072 183.029 417.397 183.69 418.048C184.351 418.688 184.682 419.616 184.682 420.832V426H183.242V421.04C183.242 420.165 183.023 419.499 182.586 419.04C182.149 418.571 181.551 418.336 180.794 418.336C180.026 418.336 179.413 418.576 178.954 419.056C178.506 419.536 178.282 420.235 178.282 421.152V426H176.826V417.232H178.282V418.48C178.57 418.032 178.959 417.685 179.45 417.44C179.951 417.195 180.501 417.072 181.098 417.072ZM190.484 426.144C189.812 426.144 189.21 426.032 188.676 425.808C188.143 425.573 187.722 425.253 187.412 424.848C187.103 424.432 186.932 423.957 186.9 423.424H188.404C188.447 423.861 188.65 424.219 189.012 424.496C189.386 424.773 189.871 424.912 190.468 424.912C191.023 424.912 191.46 424.789 191.78 424.544C192.1 424.299 192.26 423.989 192.26 423.616C192.26 423.232 192.09 422.949 191.748 422.768C191.407 422.576 190.879 422.389 190.164 422.208C189.514 422.037 188.98 421.867 188.564 421.696C188.159 421.515 187.807 421.253 187.508 420.912C187.22 420.56 187.076 420.101 187.076 419.536C187.076 419.088 187.21 418.677 187.476 418.304C187.743 417.931 188.122 417.637 188.612 417.424C189.103 417.2 189.663 417.088 190.292 417.088C191.263 417.088 192.047 417.333 192.644 417.824C193.242 418.315 193.562 418.987 193.604 419.84H192.148C192.116 419.381 191.93 419.013 191.588 418.736C191.258 418.459 190.81 418.32 190.244 418.32C189.722 418.32 189.306 418.432 188.996 418.656C188.687 418.88 188.532 419.173 188.532 419.536C188.532 419.824 188.623 420.064 188.804 420.256C188.996 420.437 189.231 420.587 189.508 420.704C189.796 420.811 190.191 420.933 190.692 421.072C191.322 421.243 191.834 421.413 192.228 421.584C192.623 421.744 192.959 421.989 193.236 422.32C193.524 422.651 193.674 423.083 193.684 423.616C193.684 424.096 193.551 424.528 193.284 424.912C193.018 425.296 192.639 425.6 192.148 425.824C191.668 426.037 191.114 426.144 190.484 426.144ZM203.749 426.144C203.077 426.144 202.475 426.032 201.941 425.808C201.408 425.573 200.987 425.253 200.677 424.848C200.368 424.432 200.197 423.957 200.165 423.424H201.669C201.712 423.861 201.915 424.219 202.277 424.496C202.651 424.773 203.136 424.912 203.733 424.912C204.288 424.912 204.725 424.789 205.045 424.544C205.365 424.299 205.525 423.989 205.525 423.616C205.525 423.232 205.355 422.949 205.013 422.768C204.672 422.576 204.144 422.389 203.429 422.208C202.779 422.037 202.245 421.867 201.829 421.696C201.424 421.515 201.072 421.253 200.773 420.912C200.485 420.56 200.341 420.101 200.341 419.536C200.341 419.088 200.475 418.677 200.741 418.304C201.008 417.931 201.387 417.637 201.877 417.424C202.368 417.2 202.928 417.088 203.557 417.088C204.528 417.088 205.312 417.333 205.909 417.824C206.507 418.315 206.827 418.987 206.869 419.84H205.413C205.381 419.381 205.195 419.013 204.853 418.736C204.523 418.459 204.075 418.32 203.509 418.32C202.987 418.32 202.571 418.432 202.261 418.656C201.952 418.88 201.797 419.173 201.797 419.536C201.797 419.824 201.888 420.064 202.069 420.256C202.261 420.437 202.496 420.587 202.773 420.704C203.061 420.811 203.456 420.933 203.957 421.072C204.587 421.243 205.099 421.413 205.493 421.584C205.888 421.744 206.224 421.989 206.501 422.32C206.789 422.651 206.939 423.083 206.949 423.616C206.949 424.096 206.816 424.528 206.549 424.912C206.283 425.296 205.904 425.6 205.413 425.824C204.933 426.037 204.379 426.144 203.749 426.144ZM213.149 426.144C212.327 426.144 211.581 425.957 210.909 425.584C210.247 425.211 209.725 424.683 209.341 424C208.967 423.307 208.781 422.507 208.781 421.6C208.781 420.704 208.973 419.915 209.357 419.232C209.751 418.539 210.285 418.011 210.957 417.648C211.629 417.275 212.381 417.088 213.213 417.088C214.045 417.088 214.797 417.275 215.469 417.648C216.141 418.011 216.669 418.533 217.053 419.216C217.447 419.899 217.645 420.693 217.645 421.6C217.645 422.507 217.442 423.307 217.037 424C216.642 424.683 216.103 425.211 215.421 425.584C214.738 425.957 213.981 426.144 213.149 426.144ZM213.149 424.864C213.671 424.864 214.162 424.741 214.621 424.496C215.079 424.251 215.447 423.883 215.725 423.392C216.013 422.901 216.157 422.304 216.157 421.6C216.157 420.896 216.018 420.299 215.741 419.808C215.463 419.317 215.101 418.955 214.653 418.72C214.205 418.475 213.719 418.352 213.197 418.352C212.663 418.352 212.173 418.475 211.725 418.72C211.287 418.955 210.935 419.317 210.669 419.808C210.402 420.299 210.269 420.896 210.269 421.6C210.269 422.315 210.397 422.917 210.653 423.408C210.919 423.899 211.271 424.267 211.709 424.512C212.146 424.747 212.626 424.864 213.149 424.864ZM236.145 417.232L233.409 426H231.905L229.793 419.04L227.681 426H226.177L223.425 417.232H224.913L226.929 424.592L229.105 417.232H230.593L232.721 424.608L234.705 417.232H236.145ZM245.91 421.28C245.91 421.557 245.894 421.851 245.862 422.16H238.854C238.907 423.024 239.2 423.701 239.734 424.192C240.278 424.672 240.934 424.912 241.702 424.912C242.331 424.912 242.854 424.768 243.27 424.48C243.696 424.181 243.995 423.787 244.166 423.296H245.734C245.499 424.139 245.03 424.827 244.326 425.36C243.622 425.883 242.747 426.144 241.702 426.144C240.87 426.144 240.123 425.957 239.462 425.584C238.811 425.211 238.299 424.683 237.926 424C237.552 423.307 237.366 422.507 237.366 421.6C237.366 420.693 237.547 419.899 237.91 419.216C238.272 418.533 238.779 418.011 239.43 417.648C240.091 417.275 240.848 417.088 241.702 417.088C242.534 417.088 243.27 417.269 243.91 417.632C244.55 417.995 245.04 418.496 245.382 419.136C245.734 419.765 245.91 420.48 245.91 421.28ZM244.406 420.976C244.406 420.421 244.283 419.947 244.038 419.552C243.792 419.147 243.456 418.843 243.03 418.64C242.614 418.427 242.15 418.32 241.638 418.32C240.902 418.32 240.272 418.555 239.75 419.024C239.238 419.493 238.944 420.144 238.87 420.976H244.406ZM252.193 421.6C252.193 420.693 252.375 419.904 252.737 419.232C253.1 418.549 253.601 418.021 254.241 417.648C254.892 417.275 255.633 417.088 256.465 417.088C257.543 417.088 258.428 417.349 259.121 417.872C259.825 418.395 260.289 419.12 260.513 420.048H258.945C258.796 419.515 258.503 419.093 258.065 418.784C257.639 418.475 257.105 418.32 256.465 418.32C255.633 418.32 254.961 418.608 254.449 419.184C253.937 419.749 253.681 420.555 253.681 421.6C253.681 422.656 253.937 423.472 254.449 424.048C254.961 424.624 255.633 424.912 256.465 424.912C257.105 424.912 257.639 424.763 258.065 424.464C258.492 424.165 258.785 423.739 258.945 423.184H260.513C260.279 424.08 259.809 424.8 259.105 425.344C258.401 425.877 257.521 426.144 256.465 426.144C255.633 426.144 254.892 425.957 254.241 425.584C253.601 425.211 253.1 424.683 252.737 424C252.375 423.317 252.193 422.517 252.193 421.6ZM262.232 421.584C262.232 420.688 262.413 419.904 262.776 419.232C263.139 418.549 263.635 418.021 264.264 417.648C264.904 417.275 265.613 417.088 266.392 417.088C267.16 417.088 267.827 417.253 268.392 417.584C268.957 417.915 269.379 418.331 269.656 418.832V417.232H271.128V426H269.656V424.368C269.368 424.88 268.936 425.307 268.36 425.648C267.795 425.979 267.133 426.144 266.376 426.144C265.597 426.144 264.893 425.952 264.264 425.568C263.635 425.184 263.139 424.645 262.776 423.952C262.413 423.259 262.232 422.469 262.232 421.584ZM269.656 421.6C269.656 420.939 269.523 420.363 269.256 419.872C268.989 419.381 268.627 419.008 268.168 418.752C267.72 418.485 267.224 418.352 266.68 418.352C266.136 418.352 265.64 418.48 265.192 418.736C264.744 418.992 264.387 419.365 264.12 419.856C263.853 420.347 263.72 420.923 263.72 421.584C263.72 422.256 263.853 422.843 264.12 423.344C264.387 423.835 264.744 424.213 265.192 424.48C265.64 424.736 266.136 424.864 266.68 424.864C267.224 424.864 267.72 424.736 268.168 424.48C268.627 424.213 268.989 423.835 269.256 423.344C269.523 422.843 269.656 422.261 269.656 421.6ZM278.181 417.072C279.247 417.072 280.111 417.397 280.773 418.048C281.434 418.688 281.765 419.616 281.765 420.832V426H280.325V421.04C280.325 420.165 280.106 419.499 279.669 419.04C279.231 418.571 278.634 418.336 277.877 418.336C277.109 418.336 276.495 418.576 276.037 419.056C275.589 419.536 275.365 420.235 275.365 421.152V426H273.909V417.232H275.365V418.48C275.653 418.032 276.042 417.685 276.533 417.44C277.034 417.195 277.583 417.072 278.181 417.072ZM290.505 418.656C290.761 418.155 291.123 417.765 291.593 417.488C292.073 417.211 292.654 417.072 293.337 417.072V418.576H292.953C291.321 418.576 290.505 419.461 290.505 421.232V426H289.049V417.232H290.505V418.656ZM303.337 421.28C303.337 421.557 303.321 421.851 303.289 422.16H296.281C296.335 423.024 296.628 423.701 297.161 424.192C297.705 424.672 298.361 424.912 299.129 424.912C299.759 424.912 300.281 424.768 300.697 424.48C301.124 424.181 301.423 423.787 301.593 423.296H303.161C302.927 424.139 302.457 424.827 301.753 425.36C301.049 425.883 300.175 426.144 299.129 426.144C298.297 426.144 297.551 425.957 296.889 425.584C296.239 425.211 295.727 424.683 295.353 424C294.98 423.307 294.793 422.507 294.793 421.6C294.793 420.693 294.975 419.899 295.337 419.216C295.7 418.533 296.207 418.011 296.857 417.648C297.519 417.275 298.276 417.088 299.129 417.088C299.961 417.088 300.697 417.269 301.337 417.632C301.977 417.995 302.468 418.496 302.809 419.136C303.161 419.765 303.337 420.48 303.337 421.28ZM301.833 420.976C301.833 420.421 301.711 419.947 301.465 419.552C301.22 419.147 300.884 418.843 300.457 418.64C300.041 418.427 299.577 418.32 299.065 418.32C298.329 418.32 297.7 418.555 297.177 419.024C296.665 419.493 296.372 420.144 296.297 420.976H301.833ZM316.123 417.072C316.806 417.072 317.414 417.216 317.947 417.504C318.481 417.781 318.902 418.203 319.211 418.768C319.521 419.333 319.675 420.021 319.675 420.832V426H318.235V421.04C318.235 420.165 318.017 419.499 317.579 419.04C317.153 418.571 316.571 418.336 315.835 418.336C315.078 418.336 314.475 418.581 314.027 419.072C313.579 419.552 313.355 420.251 313.355 421.168V426H311.915V421.04C311.915 420.165 311.697 419.499 311.259 419.04C310.833 418.571 310.251 418.336 309.515 418.336C308.758 418.336 308.155 418.581 307.707 419.072C307.259 419.552 307.035 420.251 307.035 421.168V426H305.579V417.232H307.035V418.496C307.323 418.037 307.707 417.685 308.187 417.44C308.678 417.195 309.217 417.072 309.803 417.072C310.539 417.072 311.19 417.237 311.755 417.568C312.321 417.899 312.742 418.384 313.019 419.024C313.265 418.405 313.67 417.925 314.235 417.584C314.801 417.243 315.43 417.072 316.123 417.072ZM323.136 415.808C322.858 415.808 322.624 415.712 322.432 415.52C322.24 415.328 322.144 415.093 322.144 414.816C322.144 414.539 322.24 414.304 322.432 414.112C322.624 413.92 322.858 413.824 323.136 413.824C323.402 413.824 323.626 413.92 323.808 414.112C324 414.304 324.096 414.539 324.096 414.816C324.096 415.093 324 415.328 323.808 415.52C323.626 415.712 323.402 415.808 323.136 415.808ZM323.84 417.232V426H322.384V417.232H323.84ZM330.913 417.072C331.98 417.072 332.844 417.397 333.505 418.048C334.166 418.688 334.497 419.616 334.497 420.832V426H333.057V421.04C333.057 420.165 332.838 419.499 332.401 419.04C331.964 418.571 331.366 418.336 330.609 418.336C329.841 418.336 329.228 418.576 328.769 419.056C328.321 419.536 328.097 420.235 328.097 421.152V426H326.641V417.232H328.097V418.48C328.385 418.032 328.774 417.685 329.265 417.44C329.766 417.195 330.316 417.072 330.913 417.072ZM336.651 421.584C336.651 420.688 336.833 419.904 337.195 419.232C337.558 418.549 338.054 418.021 338.683 417.648C339.323 417.275 340.038 417.088 340.827 417.088C341.51 417.088 342.145 417.248 342.731 417.568C343.318 417.877 343.766 418.288 344.075 418.8V414.16H345.547V426H344.075V424.352C343.787 424.875 343.361 425.307 342.795 425.648C342.23 425.979 341.569 426.144 340.811 426.144C340.033 426.144 339.323 425.952 338.683 425.568C338.054 425.184 337.558 424.645 337.195 423.952C336.833 423.259 336.651 422.469 336.651 421.584ZM344.075 421.6C344.075 420.939 343.942 420.363 343.675 419.872C343.409 419.381 343.046 419.008 342.587 418.752C342.139 418.485 341.643 418.352 341.099 418.352C340.555 418.352 340.059 418.48 339.611 418.736C339.163 418.992 338.806 419.365 338.539 419.856C338.273 420.347 338.139 420.923 338.139 421.584C338.139 422.256 338.273 422.843 338.539 423.344C338.806 423.835 339.163 424.213 339.611 424.48C340.059 424.736 340.555 424.864 341.099 424.864C341.643 424.864 342.139 424.736 342.587 424.48C343.046 424.213 343.409 423.835 343.675 423.344C343.942 422.843 344.075 422.261 344.075 421.6ZM51.1799 433.232L45.8999 446.128H44.3959L46.1239 441.904L42.5879 433.232H44.2039L46.9559 440.336L49.6759 433.232H51.1799ZM56.7876 442.144C55.9662 442.144 55.2196 441.957 54.5476 441.584C53.8862 441.211 53.3636 440.683 52.9796 440C52.6062 439.307 52.4196 438.507 52.4196 437.6C52.4196 436.704 52.6116 435.915 52.9956 435.232C53.3902 434.539 53.9236 434.011 54.5956 433.648C55.2676 433.275 56.0196 433.088 56.8516 433.088C57.6836 433.088 58.4356 433.275 59.1076 433.648C59.7796 434.011 60.3076 434.533 60.6916 435.216C61.0862 435.899 61.2836 436.693 61.2836 437.6C61.2836 438.507 61.0809 439.307 60.6756 440C60.2809 440.683 59.7422 441.211 59.0596 441.584C58.3769 441.957 57.6196 442.144 56.7876 442.144ZM56.7876 440.864C57.3102 440.864 57.8009 440.741 58.2596 440.496C58.7182 440.251 59.0862 439.883 59.3636 439.392C59.6516 438.901 59.7956 438.304 59.7956 437.6C59.7956 436.896 59.6569 436.299 59.3796 435.808C59.1022 435.317 58.7396 434.955 58.2916 434.72C57.8436 434.475 57.3582 434.352 56.8356 434.352C56.3022 434.352 55.8116 434.475 55.3636 434.72C54.9262 434.955 54.5742 435.317 54.3076 435.808C54.0409 436.299 53.9076 436.896 53.9076 437.6C53.9076 438.315 54.0356 438.917 54.2916 439.408C54.5582 439.899 54.9102 440.267 55.3476 440.512C55.7849 440.747 56.2649 440.864 56.7876 440.864ZM71.2939 433.232V442H69.8379V440.704C69.5606 441.152 69.1713 441.504 68.6699 441.76C68.1793 442.005 67.6353 442.128 67.0379 442.128C66.3553 442.128 65.7419 441.989 65.1979 441.712C64.6539 441.424 64.2219 440.997 63.9019 440.432C63.5926 439.867 63.4379 439.179 63.4379 438.368V433.232H64.8779V438.176C64.8779 439.04 65.0966 439.707 65.5339 440.176C65.9713 440.635 66.5686 440.864 67.3259 440.864C68.1046 440.864 68.7179 440.624 69.1659 440.144C69.6139 439.664 69.8379 438.965 69.8379 438.048V433.232H71.2939ZM78.1139 437.584C78.1139 436.688 78.2953 435.904 78.6579 435.232C79.0206 434.549 79.5166 434.021 80.1459 433.648C80.7859 433.275 81.4953 433.088 82.2739 433.088C83.0419 433.088 83.7086 433.253 84.2739 433.584C84.8393 433.915 85.2606 434.331 85.5379 434.832V433.232H87.0099V442H85.5379V440.368C85.2499 440.88 84.8179 441.307 84.2419 441.648C83.6766 441.979 83.0153 442.144 82.2579 442.144C81.4793 442.144 80.7753 441.952 80.1459 441.568C79.5166 441.184 79.0206 440.645 78.6579 439.952C78.2953 439.259 78.1139 438.469 78.1139 437.584ZM85.5379 437.6C85.5379 436.939 85.4046 436.363 85.1379 435.872C84.8713 435.381 84.5086 435.008 84.0499 434.752C83.6019 434.485 83.1059 434.352 82.5619 434.352C82.0179 434.352 81.5219 434.48 81.0739 434.736C80.6259 434.992 80.2686 435.365 80.0019 435.856C79.7353 436.347 79.6019 436.923 79.6019 437.584C79.6019 438.256 79.7353 438.843 80.0019 439.344C80.2686 439.835 80.6259 440.213 81.0739 440.48C81.5219 440.736 82.0179 440.864 82.5619 440.864C83.1059 440.864 83.6019 440.736 84.0499 440.48C84.5086 440.213 84.8713 439.835 85.1379 439.344C85.4046 438.843 85.5379 438.261 85.5379 437.6ZM91.2464 434.864C91.5451 434.341 91.9824 433.915 92.5584 433.584C93.1344 433.253 93.7904 433.088 94.5264 433.088C95.3158 433.088 96.0251 433.275 96.6544 433.648C97.2838 434.021 97.7798 434.549 98.1424 435.232C98.5051 435.904 98.6864 436.688 98.6864 437.584C98.6864 438.469 98.5051 439.259 98.1424 439.952C97.7798 440.645 97.2784 441.184 96.6384 441.568C96.0091 441.952 95.3051 442.144 94.5264 442.144C93.7691 442.144 93.1024 441.979 92.5264 441.648C91.9611 441.317 91.5344 440.896 91.2464 440.384V442H89.7904V430.16H91.2464V434.864ZM97.1984 437.584C97.1984 436.923 97.0651 436.347 96.7984 435.856C96.5318 435.365 96.1691 434.992 95.7104 434.736C95.2624 434.48 94.7664 434.352 94.2224 434.352C93.6891 434.352 93.1931 434.485 92.7344 434.752C92.2864 435.008 91.9238 435.387 91.6464 435.888C91.3798 436.379 91.2464 436.949 91.2464 437.6C91.2464 438.261 91.3798 438.843 91.6464 439.344C91.9238 439.835 92.2864 440.213 92.7344 440.48C93.1931 440.736 93.6891 440.864 94.2224 440.864C94.7664 440.864 95.2624 440.736 95.7104 440.48C96.1691 440.213 96.5318 439.835 96.7984 439.344C97.0651 438.843 97.1984 438.256 97.1984 437.584ZM104.747 442.144C103.926 442.144 103.179 441.957 102.507 441.584C101.846 441.211 101.323 440.683 100.939 440C100.566 439.307 100.379 438.507 100.379 437.6C100.379 436.704 100.571 435.915 100.955 435.232C101.35 434.539 101.883 434.011 102.555 433.648C103.227 433.275 103.979 433.088 104.811 433.088C105.643 433.088 106.395 433.275 107.067 433.648C107.739 434.011 108.267 434.533 108.651 435.216C109.046 435.899 109.243 436.693 109.243 437.6C109.243 438.507 109.04 439.307 108.635 440C108.24 440.683 107.702 441.211 107.019 441.584C106.336 441.957 105.579 442.144 104.747 442.144ZM104.747 440.864C105.27 440.864 105.76 440.741 106.219 440.496C106.678 440.251 107.046 439.883 107.323 439.392C107.611 438.901 107.755 438.304 107.755 437.6C107.755 436.896 107.616 436.299 107.339 435.808C107.062 435.317 106.699 434.955 106.251 434.72C105.803 434.475 105.318 434.352 104.795 434.352C104.262 434.352 103.771 434.475 103.323 434.72C102.886 434.955 102.534 435.317 102.267 435.808C102 436.299 101.867 436.896 101.867 437.6C101.867 438.315 101.995 438.917 102.251 439.408C102.518 439.899 102.87 440.267 103.307 440.512C103.744 440.747 104.224 440.864 104.747 440.864ZM119.253 433.232V442H117.797V440.704C117.52 441.152 117.131 441.504 116.629 441.76C116.139 442.005 115.595 442.128 114.997 442.128C114.315 442.128 113.701 441.989 113.157 441.712C112.613 441.424 112.181 440.997 111.861 440.432C111.552 439.867 111.397 439.179 111.397 438.368V433.232H112.837V438.176C112.837 439.04 113.056 439.707 113.493 440.176C113.931 440.635 114.528 440.864 115.285 440.864C116.064 440.864 116.677 440.624 117.125 440.144C117.573 439.664 117.797 438.965 117.797 438.048V433.232H119.253ZM123.808 434.432V439.6C123.808 440.027 123.898 440.331 124.08 440.512C124.261 440.683 124.576 440.768 125.024 440.768H126.096V442H124.784C123.973 442 123.365 441.813 122.96 441.44C122.554 441.067 122.352 440.453 122.352 439.6V434.432H121.216V433.232H122.352V431.024H123.808V433.232H126.096V434.432H123.808ZM140.541 433.232V442H139.085V440.704C138.808 441.152 138.419 441.504 137.917 441.76C137.427 442.005 136.883 442.128 136.285 442.128C135.603 442.128 134.989 441.989 134.445 441.712C133.901 441.424 133.469 440.997 133.149 440.432C132.84 439.867 132.685 439.179 132.685 438.368V433.232H134.125V438.176C134.125 439.04 134.344 439.707 134.781 440.176C135.219 440.635 135.816 440.864 136.573 440.864C137.352 440.864 137.965 440.624 138.413 440.144C138.861 439.664 139.085 438.965 139.085 438.048V433.232H140.541ZM144.776 434.848C145.064 434.347 145.49 433.931 146.056 433.6C146.632 433.259 147.298 433.088 148.056 433.088C148.834 433.088 149.538 433.275 150.168 433.648C150.808 434.021 151.309 434.549 151.672 435.232C152.034 435.904 152.216 436.688 152.216 437.584C152.216 438.469 152.034 439.259 151.672 439.952C151.309 440.645 150.808 441.184 150.168 441.568C149.538 441.952 148.834 442.144 148.056 442.144C147.309 442.144 146.648 441.979 146.072 441.648C145.506 441.307 145.074 440.885 144.776 440.384V446.16H143.32V433.232H144.776V434.848ZM150.728 437.584C150.728 436.923 150.594 436.347 150.328 435.856C150.061 435.365 149.698 434.992 149.24 434.736C148.792 434.48 148.296 434.352 147.752 434.352C147.218 434.352 146.722 434.485 146.264 434.752C145.816 435.008 145.453 435.387 145.176 435.888C144.909 436.379 144.776 436.949 144.776 437.6C144.776 438.261 144.909 438.843 145.176 439.344C145.453 439.835 145.816 440.213 146.264 440.48C146.722 440.736 147.218 440.864 147.752 440.864C148.296 440.864 148.792 440.736 149.24 440.48C149.698 440.213 150.061 439.835 150.328 439.344C150.594 438.843 150.728 438.256 150.728 437.584ZM153.908 437.6C153.908 436.693 154.09 435.904 154.452 435.232C154.815 434.549 155.316 434.021 155.956 433.648C156.607 433.275 157.348 433.088 158.18 433.088C159.258 433.088 160.143 433.349 160.836 433.872C161.54 434.395 162.004 435.12 162.228 436.048H160.66C160.511 435.515 160.218 435.093 159.78 434.784C159.354 434.475 158.82 434.32 158.18 434.32C157.348 434.32 156.676 434.608 156.164 435.184C155.652 435.749 155.396 436.555 155.396 437.6C155.396 438.656 155.652 439.472 156.164 440.048C156.676 440.624 157.348 440.912 158.18 440.912C158.82 440.912 159.354 440.763 159.78 440.464C160.207 440.165 160.5 439.739 160.66 439.184H162.228C161.994 440.08 161.524 440.8 160.82 441.344C160.116 441.877 159.236 442.144 158.18 442.144C157.348 442.144 156.607 441.957 155.956 441.584C155.316 441.211 154.815 440.683 154.452 440C154.09 439.317 153.908 438.517 153.908 437.6ZM168.315 442.144C167.494 442.144 166.747 441.957 166.075 441.584C165.414 441.211 164.891 440.683 164.507 440C164.134 439.307 163.947 438.507 163.947 437.6C163.947 436.704 164.139 435.915 164.523 435.232C164.918 434.539 165.451 434.011 166.123 433.648C166.795 433.275 167.547 433.088 168.379 433.088C169.211 433.088 169.963 433.275 170.635 433.648C171.307 434.011 171.835 434.533 172.219 435.216C172.614 435.899 172.811 436.693 172.811 437.6C172.811 438.507 172.608 439.307 172.203 440C171.808 440.683 171.27 441.211 170.587 441.584C169.904 441.957 169.147 442.144 168.315 442.144ZM168.315 440.864C168.838 440.864 169.328 440.741 169.787 440.496C170.246 440.251 170.614 439.883 170.891 439.392C171.179 438.901 171.323 438.304 171.323 437.6C171.323 436.896 171.184 436.299 170.907 435.808C170.63 435.317 170.267 434.955 169.819 434.72C169.371 434.475 168.886 434.352 168.363 434.352C167.83 434.352 167.339 434.475 166.891 434.72C166.454 434.955 166.102 435.317 165.835 435.808C165.568 436.299 165.435 436.896 165.435 437.6C165.435 438.315 165.563 438.917 165.819 439.408C166.086 439.899 166.438 440.267 166.875 440.512C167.312 440.747 167.792 440.864 168.315 440.864ZM185.589 433.072C186.272 433.072 186.88 433.216 187.413 433.504C187.947 433.781 188.368 434.203 188.677 434.768C188.987 435.333 189.141 436.021 189.141 436.832V442H187.701V437.04C187.701 436.165 187.483 435.499 187.045 435.04C186.619 434.571 186.037 434.336 185.301 434.336C184.544 434.336 183.941 434.581 183.493 435.072C183.045 435.552 182.821 436.251 182.821 437.168V442H181.381V437.04C181.381 436.165 181.163 435.499 180.725 435.04C180.299 434.571 179.717 434.336 178.981 434.336C178.224 434.336 177.621 434.581 177.173 435.072C176.725 435.552 176.501 436.251 176.501 437.168V442H175.045V433.232H176.501V434.496C176.789 434.037 177.173 433.685 177.653 433.44C178.144 433.195 178.683 433.072 179.269 433.072C180.005 433.072 180.656 433.237 181.221 433.568C181.787 433.899 182.208 434.384 182.485 435.024C182.731 434.405 183.136 433.925 183.701 433.584C184.267 433.243 184.896 433.072 185.589 433.072ZM192.602 431.808C192.324 431.808 192.09 431.712 191.898 431.52C191.706 431.328 191.61 431.093 191.61 430.816C191.61 430.539 191.706 430.304 191.898 430.112C192.09 429.92 192.324 429.824 192.602 429.824C192.868 429.824 193.092 429.92 193.274 430.112C193.466 430.304 193.562 430.539 193.562 430.816C193.562 431.093 193.466 431.328 193.274 431.52C193.092 431.712 192.868 431.808 192.602 431.808ZM193.306 433.232V442H191.85V433.232H193.306ZM200.379 433.072C201.446 433.072 202.31 433.397 202.971 434.048C203.633 434.688 203.963 435.616 203.963 436.832V442H202.523V437.04C202.523 436.165 202.305 435.499 201.867 435.04C201.43 434.571 200.833 434.336 200.075 434.336C199.307 434.336 198.694 434.576 198.235 435.056C197.787 435.536 197.563 436.235 197.563 437.152V442H196.107V433.232H197.563V434.48C197.851 434.032 198.241 433.685 198.731 433.44C199.233 433.195 199.782 433.072 200.379 433.072ZM210.278 433.088C211.035 433.088 211.696 433.253 212.262 433.584C212.838 433.915 213.264 434.331 213.542 434.832V433.232H215.014V442.192C215.014 442.992 214.843 443.701 214.502 444.32C214.16 444.949 213.67 445.44 213.03 445.792C212.4 446.144 211.664 446.32 210.822 446.32C209.67 446.32 208.71 446.048 207.942 445.504C207.174 444.96 206.72 444.219 206.582 443.28H208.022C208.182 443.813 208.512 444.24 209.014 444.56C209.515 444.891 210.118 445.056 210.822 445.056C211.622 445.056 212.272 444.805 212.774 444.304C213.286 443.803 213.542 443.099 213.542 442.192V440.352C213.254 440.864 212.827 441.291 212.262 441.632C211.696 441.973 211.035 442.144 210.278 442.144C209.499 442.144 208.79 441.952 208.15 441.568C207.52 441.184 207.024 440.645 206.662 439.952C206.299 439.259 206.118 438.469 206.118 437.584C206.118 436.688 206.299 435.904 206.662 435.232C207.024 434.549 207.52 434.021 208.15 433.648C208.79 433.275 209.499 433.088 210.278 433.088ZM213.542 437.6C213.542 436.939 213.408 436.363 213.142 435.872C212.875 435.381 212.512 435.008 212.054 434.752C211.606 434.485 211.11 434.352 210.566 434.352C210.022 434.352 209.526 434.48 209.078 434.736C208.63 434.992 208.272 435.365 208.006 435.856C207.739 436.347 207.606 436.923 207.606 437.584C207.606 438.256 207.739 438.843 208.006 439.344C208.272 439.835 208.63 440.213 209.078 440.48C209.526 440.736 210.022 440.864 210.566 440.864C211.11 440.864 211.606 440.736 212.054 440.48C212.512 440.213 212.875 439.835 213.142 439.344C213.408 438.843 213.542 438.261 213.542 437.6ZM221.836 437.6C221.836 436.693 222.017 435.904 222.38 435.232C222.742 434.549 223.244 434.021 223.884 433.648C224.534 433.275 225.276 433.088 226.108 433.088C227.185 433.088 228.07 433.349 228.764 433.872C229.468 434.395 229.932 435.12 230.156 436.048H228.588C228.438 435.515 228.145 435.093 227.708 434.784C227.281 434.475 226.748 434.32 226.108 434.32C225.276 434.32 224.604 434.608 224.092 435.184C223.58 435.749 223.324 436.555 223.324 437.6C223.324 438.656 223.58 439.472 224.092 440.048C224.604 440.624 225.276 440.912 226.108 440.912C226.748 440.912 227.281 440.763 227.708 440.464C228.134 440.165 228.428 439.739 228.588 439.184H230.156C229.921 440.08 229.452 440.8 228.748 441.344C228.044 441.877 227.164 442.144 226.108 442.144C225.276 442.144 224.534 441.957 223.884 441.584C223.244 441.211 222.742 440.683 222.38 440C222.017 439.317 221.836 438.517 221.836 437.6ZM236.771 433.072C237.432 433.072 238.029 433.216 238.563 433.504C239.096 433.781 239.512 434.203 239.811 434.768C240.12 435.333 240.275 436.021 240.275 436.832V442H238.835V437.04C238.835 436.165 238.616 435.499 238.179 435.04C237.741 434.571 237.144 434.336 236.387 434.336C235.619 434.336 235.005 434.576 234.547 435.056C234.099 435.536 233.875 436.235 233.875 437.152V442H232.419V430.16H233.875V434.48C234.163 434.032 234.557 433.685 235.059 433.44C235.571 433.195 236.141 433.072 236.771 433.072ZM250.973 437.28C250.973 437.557 250.957 437.851 250.925 438.16H243.917C243.97 439.024 244.264 439.701 244.797 440.192C245.341 440.672 245.997 440.912 246.765 440.912C247.394 440.912 247.917 440.768 248.333 440.48C248.76 440.181 249.058 439.787 249.229 439.296H250.797C250.562 440.139 250.093 440.827 249.389 441.36C248.685 441.883 247.81 442.144 246.765 442.144C245.933 442.144 245.186 441.957 244.525 441.584C243.874 441.211 243.362 440.683 242.989 440C242.616 439.307 242.429 438.507 242.429 437.6C242.429 436.693 242.61 435.899 242.973 435.216C243.336 434.533 243.842 434.011 244.493 433.648C245.154 433.275 245.912 433.088 246.765 433.088C247.597 433.088 248.333 433.269 248.973 433.632C249.613 433.995 250.104 434.496 250.445 435.136C250.797 435.765 250.973 436.48 250.973 437.28ZM249.469 436.976C249.469 436.421 249.346 435.947 249.101 435.552C248.856 435.147 248.52 434.843 248.093 434.64C247.677 434.427 247.213 434.32 246.701 434.32C245.965 434.32 245.336 434.555 244.813 435.024C244.301 435.493 244.008 436.144 243.933 436.976H249.469ZM252.671 437.6C252.671 436.693 252.852 435.904 253.215 435.232C253.577 434.549 254.079 434.021 254.719 433.648C255.369 433.275 256.111 433.088 256.943 433.088C258.02 433.088 258.905 433.349 259.599 433.872C260.303 434.395 260.767 435.12 260.991 436.048H259.423C259.273 435.515 258.98 435.093 258.543 434.784C258.116 434.475 257.583 434.32 256.943 434.32C256.111 434.32 255.439 434.608 254.927 435.184C254.415 435.749 254.159 436.555 254.159 437.6C254.159 438.656 254.415 439.472 254.927 440.048C255.439 440.624 256.111 440.912 256.943 440.912C257.583 440.912 258.116 440.763 258.543 440.464C258.969 440.165 259.263 439.739 259.423 439.184H260.991C260.756 440.08 260.287 440.8 259.583 441.344C258.879 441.877 257.999 442.144 256.943 442.144C256.111 442.144 255.369 441.957 254.719 441.584C254.079 441.211 253.577 440.683 253.215 440C252.852 439.317 252.671 438.517 252.671 437.6ZM268.15 442L264.71 438.128V442H263.254V430.16H264.71V437.12L268.086 433.232H270.118L265.99 437.6L270.134 442H268.15ZM274.912 442.144C274.24 442.144 273.637 442.032 273.104 441.808C272.571 441.573 272.149 441.253 271.84 440.848C271.531 440.432 271.36 439.957 271.328 439.424H272.832C272.875 439.861 273.077 440.219 273.44 440.496C273.813 440.773 274.299 440.912 274.896 440.912C275.451 440.912 275.888 440.789 276.208 440.544C276.528 440.299 276.688 439.989 276.688 439.616C276.688 439.232 276.517 438.949 276.176 438.768C275.835 438.576 275.307 438.389 274.592 438.208C273.941 438.037 273.408 437.867 272.992 437.696C272.587 437.515 272.235 437.253 271.936 436.912C271.648 436.56 271.504 436.101 271.504 435.536C271.504 435.088 271.637 434.677 271.904 434.304C272.171 433.931 272.549 433.637 273.04 433.424C273.531 433.2 274.091 433.088 274.72 433.088C275.691 433.088 276.475 433.333 277.072 433.824C277.669 434.315 277.989 434.987 278.032 435.84H276.576C276.544 435.381 276.357 435.013 276.016 434.736C275.685 434.459 275.237 434.32 274.672 434.32C274.149 434.32 273.733 434.432 273.424 434.656C273.115 434.88 272.96 435.173 272.96 435.536C272.96 435.824 273.051 436.064 273.232 436.256C273.424 436.437 273.659 436.587 273.936 436.704C274.224 436.811 274.619 436.933 275.12 437.072C275.749 437.243 276.261 437.413 276.656 437.584C277.051 437.744 277.387 437.989 277.664 438.32C277.952 438.651 278.101 439.083 278.112 439.616C278.112 440.096 277.979 440.528 277.712 440.912C277.445 441.296 277.067 441.6 276.576 441.824C276.096 442.037 275.541 442.144 274.912 442.144ZM281.991 439.984L280.199 444.288H279.223L280.391 439.984H281.991ZM296.565 437.28C296.565 437.557 296.549 437.851 296.517 438.16H289.509C289.562 439.024 289.855 439.701 290.389 440.192C290.933 440.672 291.589 440.912 292.357 440.912C292.986 440.912 293.509 440.768 293.925 440.48C294.351 440.181 294.65 439.787 294.821 439.296H296.389C296.154 440.139 295.685 440.827 294.981 441.36C294.277 441.883 293.402 442.144 292.357 442.144C291.525 442.144 290.778 441.957 290.117 441.584C289.466 441.211 288.954 440.683 288.581 440C288.207 439.307 288.021 438.507 288.021 437.6C288.021 436.693 288.202 435.899 288.565 435.216C288.927 434.533 289.434 434.011 290.085 433.648C290.746 433.275 291.503 433.088 292.357 433.088C293.189 433.088 293.925 433.269 294.565 433.632C295.205 433.995 295.695 434.496 296.037 435.136C296.389 435.765 296.565 436.48 296.565 437.28ZM295.061 436.976C295.061 436.421 294.938 435.947 294.693 435.552C294.447 435.147 294.111 434.843 293.685 434.64C293.269 434.427 292.805 434.32 292.293 434.32C291.557 434.32 290.927 434.555 290.405 435.024C289.893 435.493 289.599 436.144 289.525 436.976H295.061ZM303.383 442L301.303 438.736L299.303 442H297.783L300.615 437.648L297.783 433.232H299.431L301.511 436.48L303.495 433.232H305.015L302.199 437.568L305.031 442H303.383ZM308.239 434.848C308.527 434.347 308.954 433.931 309.519 433.6C310.095 433.259 310.762 433.088 311.519 433.088C312.298 433.088 313.002 433.275 313.631 433.648C314.271 434.021 314.772 434.549 315.135 435.232C315.498 435.904 315.679 436.688 315.679 437.584C315.679 438.469 315.498 439.259 315.135 439.952C314.772 440.645 314.271 441.184 313.631 441.568C313.002 441.952 312.298 442.144 311.519 442.144C310.772 442.144 310.111 441.979 309.535 441.648C308.97 441.307 308.538 440.885 308.239 440.384V446.16H306.783V433.232H308.239V434.848ZM314.191 437.584C314.191 436.923 314.058 436.347 313.791 435.856C313.524 435.365 313.162 434.992 312.703 434.736C312.255 434.48 311.759 434.352 311.215 434.352C310.682 434.352 310.186 434.485 309.727 434.752C309.279 435.008 308.916 435.387 308.639 435.888C308.372 436.379 308.239 436.949 308.239 437.6C308.239 438.261 308.372 438.843 308.639 439.344C308.916 439.835 309.279 440.213 309.727 440.48C310.186 440.736 310.682 440.864 311.215 440.864C311.759 440.864 312.255 440.736 312.703 440.48C313.162 440.213 313.524 439.835 313.791 439.344C314.058 438.843 314.191 438.256 314.191 437.584ZM318.667 431.808C318.39 431.808 318.155 431.712 317.963 431.52C317.771 431.328 317.675 431.093 317.675 430.816C317.675 430.539 317.771 430.304 317.963 430.112C318.155 429.92 318.39 429.824 318.667 429.824C318.934 429.824 319.158 429.92 319.339 430.112C319.531 430.304 319.627 430.539 319.627 430.816C319.627 431.093 319.531 431.328 319.339 431.52C319.158 431.712 318.934 431.808 318.667 431.808ZM319.371 433.232V442H317.915V433.232H319.371ZM323.629 434.656C323.885 434.155 324.248 433.765 324.717 433.488C325.197 433.211 325.778 433.072 326.461 433.072V434.576H326.077C324.445 434.576 323.629 435.461 323.629 437.232V442H322.173V433.232H323.629V434.656ZM336.462 437.28C336.462 437.557 336.446 437.851 336.414 438.16H329.406C329.459 439.024 329.752 439.701 330.286 440.192C330.83 440.672 331.486 440.912 332.254 440.912C332.883 440.912 333.406 440.768 333.822 440.48C334.248 440.181 334.547 439.787 334.718 439.296H336.286C336.051 440.139 335.582 440.827 334.878 441.36C334.174 441.883 333.299 442.144 332.254 442.144C331.422 442.144 330.675 441.957 330.014 441.584C329.363 441.211 328.851 440.683 328.478 440C328.104 439.307 327.918 438.507 327.918 437.6C327.918 436.693 328.099 435.899 328.462 435.216C328.824 434.533 329.331 434.011 329.982 433.648C330.643 433.275 331.4 433.088 332.254 433.088C333.086 433.088 333.822 433.269 334.462 433.632C335.102 433.995 335.592 434.496 335.934 435.136C336.286 435.765 336.462 436.48 336.462 437.28ZM334.958 436.976C334.958 436.421 334.835 435.947 334.59 435.552C334.344 435.147 334.008 434.843 333.582 434.64C333.166 434.427 332.702 434.32 332.19 434.32C331.454 434.32 330.824 434.555 330.302 435.024C329.79 435.493 329.496 436.144 329.422 436.976H334.958ZM338.16 437.584C338.16 436.688 338.341 435.904 338.704 435.232C339.066 434.549 339.562 434.021 340.192 433.648C340.832 433.275 341.546 433.088 342.336 433.088C343.018 433.088 343.653 433.248 344.24 433.568C344.826 433.877 345.274 434.288 345.584 434.8V430.16H347.056V442H345.584V440.352C345.296 440.875 344.869 441.307 344.304 441.648C343.738 441.979 343.077 442.144 342.32 442.144C341.541 442.144 340.832 441.952 340.192 441.568C339.562 441.184 339.066 440.645 338.704 439.952C338.341 439.259 338.16 438.469 338.16 437.584ZM345.584 437.6C345.584 436.939 345.45 436.363 345.184 435.872C344.917 435.381 344.554 435.008 344.096 434.752C343.648 434.485 343.152 434.352 342.608 434.352C342.064 434.352 341.568 434.48 341.12 434.736C340.672 434.992 340.314 435.365 340.048 435.856C339.781 436.347 339.648 436.923 339.648 437.584C339.648 438.256 339.781 438.843 340.048 439.344C340.314 439.835 340.672 440.213 341.12 440.48C341.568 440.736 342.064 440.864 342.608 440.864C343.152 440.864 343.648 440.736 344.096 440.48C344.554 440.213 344.917 439.835 345.184 439.344C345.45 438.843 345.584 438.261 345.584 437.6ZM104.214 453.584C104.214 452.688 104.396 451.904 104.758 451.232C105.121 450.549 105.617 450.021 106.246 449.648C106.886 449.275 107.601 449.088 108.39 449.088C109.073 449.088 109.708 449.248 110.294 449.568C110.881 449.877 111.329 450.288 111.638 450.8V446.16H113.11V458H111.638V456.352C111.35 456.875 110.924 457.307 110.358 457.648C109.793 457.979 109.132 458.144 108.374 458.144C107.596 458.144 106.886 457.952 106.246 457.568C105.617 457.184 105.121 456.645 104.758 455.952C104.396 455.259 104.214 454.469 104.214 453.584ZM111.638 453.6C111.638 452.939 111.505 452.363 111.238 451.872C110.972 451.381 110.609 451.008 110.15 450.752C109.702 450.485 109.206 450.352 108.662 450.352C108.118 450.352 107.622 450.48 107.174 450.736C106.726 450.992 106.369 451.365 106.102 451.856C105.836 452.347 105.702 452.923 105.702 453.584C105.702 454.256 105.836 454.843 106.102 455.344C106.369 455.835 106.726 456.213 107.174 456.48C107.622 456.736 108.118 456.864 108.662 456.864C109.206 456.864 109.702 456.736 110.15 456.48C110.609 456.213 110.972 455.835 111.238 455.344C111.505 454.843 111.638 454.261 111.638 453.6ZM119.715 458.144C118.893 458.144 118.147 457.957 117.475 457.584C116.813 457.211 116.291 456.683 115.907 456C115.533 455.307 115.347 454.507 115.347 453.6C115.347 452.704 115.539 451.915 115.923 451.232C116.317 450.539 116.851 450.011 117.523 449.648C118.195 449.275 118.947 449.088 119.779 449.088C120.611 449.088 121.363 449.275 122.035 449.648C122.707 450.011 123.235 450.533 123.619 451.216C124.013 451.899 124.211 452.693 124.211 453.6C124.211 454.507 124.008 455.307 123.603 456C123.208 456.683 122.669 457.211 121.987 457.584C121.304 457.957 120.547 458.144 119.715 458.144ZM119.715 456.864C120.237 456.864 120.728 456.741 121.187 456.496C121.645 456.251 122.013 455.883 122.291 455.392C122.579 454.901 122.723 454.304 122.723 453.6C122.723 452.896 122.584 452.299 122.307 451.808C122.029 451.317 121.667 450.955 121.219 450.72C120.771 450.475 120.285 450.352 119.763 450.352C119.229 450.352 118.739 450.475 118.291 450.72C117.853 450.955 117.501 451.317 117.235 451.808C116.968 452.299 116.835 452.896 116.835 453.6C116.835 454.315 116.963 454.917 117.219 455.408C117.485 455.899 117.837 456.267 118.275 456.512C118.712 456.747 119.192 456.864 119.715 456.864ZM125.901 453.6C125.901 452.693 126.082 451.904 126.445 451.232C126.808 450.549 127.309 450.021 127.949 449.648C128.6 449.275 129.341 449.088 130.173 449.088C131.25 449.088 132.136 449.349 132.829 449.872C133.533 450.395 133.997 451.12 134.221 452.048H132.653C132.504 451.515 132.21 451.093 131.773 450.784C131.346 450.475 130.813 450.32 130.173 450.32C129.341 450.32 128.669 450.608 128.157 451.184C127.645 451.749 127.389 452.555 127.389 453.6C127.389 454.656 127.645 455.472 128.157 456.048C128.669 456.624 129.341 456.912 130.173 456.912C130.813 456.912 131.346 456.763 131.773 456.464C132.2 456.165 132.493 455.739 132.653 455.184H134.221C133.986 456.08 133.517 456.8 132.813 457.344C132.109 457.877 131.229 458.144 130.173 458.144C129.341 458.144 128.6 457.957 127.949 457.584C127.309 457.211 126.808 456.683 126.445 456C126.082 455.317 125.901 454.517 125.901 453.6ZM144.26 449.232V458H142.804V456.704C142.527 457.152 142.137 457.504 141.636 457.76C141.145 458.005 140.601 458.128 140.004 458.128C139.321 458.128 138.708 457.989 138.164 457.712C137.62 457.424 137.188 456.997 136.868 456.432C136.559 455.867 136.404 455.179 136.404 454.368V449.232H137.844V454.176C137.844 455.04 138.063 455.707 138.5 456.176C138.937 456.635 139.535 456.864 140.292 456.864C141.071 456.864 141.684 456.624 142.132 456.144C142.58 455.664 142.804 454.965 142.804 454.048V449.232H144.26ZM157.582 449.072C158.265 449.072 158.873 449.216 159.406 449.504C159.94 449.781 160.361 450.203 160.67 450.768C160.98 451.333 161.134 452.021 161.134 452.832V458H159.694V453.04C159.694 452.165 159.476 451.499 159.038 451.04C158.612 450.571 158.03 450.336 157.294 450.336C156.537 450.336 155.934 450.581 155.486 451.072C155.038 451.552 154.814 452.251 154.814 453.168V458H153.374V453.04C153.374 452.165 153.156 451.499 152.718 451.04C152.292 450.571 151.71 450.336 150.974 450.336C150.217 450.336 149.614 450.581 149.166 451.072C148.718 451.552 148.494 452.251 148.494 453.168V458H147.038V449.232H148.494V450.496C148.782 450.037 149.166 449.685 149.646 449.44C150.137 449.195 150.676 449.072 151.262 449.072C151.998 449.072 152.649 449.237 153.214 449.568C153.78 449.899 154.201 450.384 154.478 451.024C154.724 450.405 155.129 449.925 155.694 449.584C156.26 449.243 156.889 449.072 157.582 449.072ZM171.843 453.28C171.843 453.557 171.827 453.851 171.795 454.16H164.787C164.84 455.024 165.133 455.701 165.667 456.192C166.211 456.672 166.867 456.912 167.635 456.912C168.264 456.912 168.787 456.768 169.203 456.48C169.629 456.181 169.928 455.787 170.099 455.296H171.667C171.432 456.139 170.963 456.827 170.259 457.36C169.555 457.883 168.68 458.144 167.635 458.144C166.803 458.144 166.056 457.957 165.395 457.584C164.744 457.211 164.232 456.683 163.859 456C163.485 455.307 163.299 454.507 163.299 453.6C163.299 452.693 163.48 451.899 163.843 451.216C164.205 450.533 164.712 450.011 165.363 449.648C166.024 449.275 166.781 449.088 167.635 449.088C168.467 449.088 169.203 449.269 169.843 449.632C170.483 449.995 170.973 450.496 171.315 451.136C171.667 451.765 171.843 452.48 171.843 453.28ZM170.339 452.976C170.339 452.421 170.216 451.947 169.971 451.552C169.725 451.147 169.389 450.843 168.963 450.64C168.547 450.427 168.083 450.32 167.571 450.32C166.835 450.32 166.205 450.555 165.683 451.024C165.171 451.493 164.877 452.144 164.803 452.976H170.339ZM178.357 449.072C179.423 449.072 180.287 449.397 180.949 450.048C181.61 450.688 181.941 451.616 181.941 452.832V458H180.501V453.04C180.501 452.165 180.282 451.499 179.845 451.04C179.407 450.571 178.81 450.336 178.053 450.336C177.285 450.336 176.671 450.576 176.213 451.056C175.765 451.536 175.541 452.235 175.541 453.152V458H174.085V449.232H175.541V450.48C175.829 450.032 176.218 449.685 176.709 449.44C177.21 449.195 177.759 449.072 178.357 449.072ZM186.415 450.432V455.6C186.415 456.027 186.506 456.331 186.687 456.512C186.868 456.683 187.183 456.768 187.631 456.768H188.703V458H187.391C186.58 458 185.972 457.813 185.567 457.44C185.162 457.067 184.959 456.453 184.959 455.6V450.432H183.823V449.232H184.959V447.024H186.415V449.232H188.703V450.432H186.415ZM193.891 458.144C193.219 458.144 192.616 458.032 192.083 457.808C191.55 457.573 191.128 457.253 190.819 456.848C190.51 456.432 190.339 455.957 190.307 455.424H191.811C191.854 455.861 192.056 456.219 192.419 456.496C192.792 456.773 193.278 456.912 193.875 456.912C194.43 456.912 194.867 456.789 195.187 456.544C195.507 456.299 195.667 455.989 195.667 455.616C195.667 455.232 195.496 454.949 195.155 454.768C194.814 454.576 194.286 454.389 193.571 454.208C192.92 454.037 192.387 453.867 191.971 453.696C191.566 453.515 191.214 453.253 190.915 452.912C190.627 452.56 190.483 452.101 190.483 451.536C190.483 451.088 190.616 450.677 190.883 450.304C191.15 449.931 191.528 449.637 192.019 449.424C192.51 449.2 193.07 449.088 193.699 449.088C194.67 449.088 195.454 449.333 196.051 449.824C196.648 450.315 196.968 450.987 197.011 451.84H195.555C195.523 451.381 195.336 451.013 194.995 450.736C194.664 450.459 194.216 450.32 193.651 450.32C193.128 450.32 192.712 450.432 192.403 450.656C192.094 450.88 191.939 451.173 191.939 451.536C191.939 451.824 192.03 452.064 192.211 452.256C192.403 452.437 192.638 452.587 192.915 452.704C193.203 452.811 193.598 452.933 194.099 453.072C194.728 453.243 195.24 453.413 195.635 453.584C196.03 453.744 196.366 453.989 196.643 454.32C196.931 454.651 197.08 455.083 197.091 455.616C197.091 456.096 196.958 456.528 196.691 456.912C196.424 457.296 196.046 457.6 195.555 457.824C195.075 458.037 194.52 458.144 193.891 458.144ZM203.508 453.584C203.508 452.688 203.689 451.904 204.052 451.232C204.415 450.549 204.911 450.021 205.54 449.648C206.18 449.275 206.889 449.088 207.668 449.088C208.436 449.088 209.103 449.253 209.668 449.584C210.233 449.915 210.655 450.331 210.932 450.832V449.232H212.404V458H210.932V456.368C210.644 456.88 210.212 457.307 209.636 457.648C209.071 457.979 208.409 458.144 207.652 458.144C206.873 458.144 206.169 457.952 205.54 457.568C204.911 457.184 204.415 456.645 204.052 455.952C203.689 455.259 203.508 454.469 203.508 453.584ZM210.932 453.6C210.932 452.939 210.799 452.363 210.532 451.872C210.265 451.381 209.903 451.008 209.444 450.752C208.996 450.485 208.5 450.352 207.956 450.352C207.412 450.352 206.916 450.48 206.468 450.736C206.02 450.992 205.663 451.365 205.396 451.856C205.129 452.347 204.996 452.923 204.996 453.584C204.996 454.256 205.129 454.843 205.396 455.344C205.663 455.835 206.02 456.213 206.468 456.48C206.916 456.736 207.412 456.864 207.956 456.864C208.5 456.864 208.996 456.736 209.444 456.48C209.903 456.213 210.265 455.835 210.532 455.344C210.799 454.843 210.932 454.261 210.932 453.6ZM219.456 449.072C220.523 449.072 221.387 449.397 222.049 450.048C222.71 450.688 223.04 451.616 223.04 452.832V458H221.6V453.04C221.6 452.165 221.382 451.499 220.944 451.04C220.507 450.571 219.91 450.336 219.152 450.336C218.384 450.336 217.771 450.576 217.312 451.056C216.864 451.536 216.64 452.235 216.64 453.152V458H215.184V449.232H216.64V450.48C216.928 450.032 217.318 449.685 217.808 449.44C218.31 449.195 218.859 449.072 219.456 449.072ZM225.195 453.584C225.195 452.688 225.376 451.904 225.739 451.232C226.102 450.549 226.598 450.021 227.227 449.648C227.867 449.275 228.582 449.088 229.371 449.088C230.054 449.088 230.688 449.248 231.275 449.568C231.862 449.877 232.31 450.288 232.619 450.8V446.16H234.091V458H232.619V456.352C232.331 456.875 231.904 457.307 231.339 457.648C230.774 457.979 230.112 458.144 229.355 458.144C228.576 458.144 227.867 457.952 227.227 457.568C226.598 457.184 226.102 456.645 225.739 455.952C225.376 455.259 225.195 454.469 225.195 453.584ZM232.619 453.6C232.619 452.939 232.486 452.363 232.219 451.872C231.952 451.381 231.59 451.008 231.131 450.752C230.683 450.485 230.187 450.352 229.643 450.352C229.099 450.352 228.603 450.48 228.155 450.736C227.707 450.992 227.35 451.365 227.083 451.856C226.816 452.347 226.683 452.923 226.683 453.584C226.683 454.256 226.816 454.843 227.083 455.344C227.35 455.835 227.707 456.213 228.155 456.48C228.603 456.736 229.099 456.864 229.643 456.864C230.187 456.864 230.683 456.736 231.131 456.48C231.59 456.213 231.952 455.835 232.219 455.344C232.486 454.843 232.619 454.261 232.619 453.6ZM252.001 449.072C252.684 449.072 253.292 449.216 253.825 449.504C254.358 449.781 254.78 450.203 255.089 450.768C255.398 451.333 255.553 452.021 255.553 452.832V458H254.113V453.04C254.113 452.165 253.894 451.499 253.457 451.04C253.03 450.571 252.449 450.336 251.713 450.336C250.956 450.336 250.353 450.581 249.905 451.072C249.457 451.552 249.233 452.251 249.233 453.168V458H247.793V453.04C247.793 452.165 247.574 451.499 247.137 451.04C246.71 450.571 246.129 450.336 245.393 450.336C244.636 450.336 244.033 450.581 243.585 451.072C243.137 451.552 242.913 452.251 242.913 453.168V458H241.457V449.232H242.913V450.496C243.201 450.037 243.585 449.685 244.065 449.44C244.556 449.195 245.094 449.072 245.681 449.072C246.417 449.072 247.068 449.237 247.633 449.568C248.198 449.899 248.62 450.384 248.897 451.024C249.142 450.405 249.548 449.925 250.113 449.584C250.678 449.243 251.308 449.072 252.001 449.072ZM262.085 458.144C261.264 458.144 260.517 457.957 259.845 457.584C259.184 457.211 258.661 456.683 258.277 456C257.904 455.307 257.717 454.507 257.717 453.6C257.717 452.704 257.909 451.915 258.293 451.232C258.688 450.539 259.221 450.011 259.893 449.648C260.565 449.275 261.317 449.088 262.149 449.088C262.981 449.088 263.733 449.275 264.405 449.648C265.077 450.011 265.605 450.533 265.989 451.216C266.384 451.899 266.581 452.693 266.581 453.6C266.581 454.507 266.379 455.307 265.973 456C265.579 456.683 265.04 457.211 264.357 457.584C263.675 457.957 262.917 458.144 262.085 458.144ZM262.085 456.864C262.608 456.864 263.099 456.741 263.557 456.496C264.016 456.251 264.384 455.883 264.661 455.392C264.949 454.901 265.093 454.304 265.093 453.6C265.093 452.896 264.955 452.299 264.677 451.808C264.4 451.317 264.037 450.955 263.589 450.72C263.141 450.475 262.656 450.352 262.133 450.352C261.6 450.352 261.109 450.475 260.661 450.72C260.224 450.955 259.872 451.317 259.605 451.808C259.339 452.299 259.205 452.896 259.205 453.6C259.205 454.315 259.333 454.917 259.589 455.408C259.856 455.899 260.208 456.267 260.645 456.512C261.083 456.747 261.563 456.864 262.085 456.864ZM270.272 450.656C270.528 450.155 270.89 449.765 271.36 449.488C271.84 449.211 272.421 449.072 273.104 449.072V450.576H272.72C271.088 450.576 270.272 451.461 270.272 453.232V458H268.816V449.232H270.272V450.656ZM283.104 453.28C283.104 453.557 283.088 453.851 283.056 454.16H276.048C276.102 455.024 276.395 455.701 276.928 456.192C277.472 456.672 278.128 456.912 278.896 456.912C279.526 456.912 280.048 456.768 280.464 456.48C280.891 456.181 281.19 455.787 281.36 455.296H282.928C282.694 456.139 282.224 456.827 281.52 457.36C280.816 457.883 279.942 458.144 278.896 458.144C278.064 458.144 277.318 457.957 276.656 457.584C276.006 457.211 275.494 456.683 275.12 456C274.747 455.307 274.56 454.507 274.56 453.6C274.56 452.693 274.742 451.899 275.104 451.216C275.467 450.533 275.974 450.011 276.624 449.648C277.286 449.275 278.043 449.088 278.896 449.088C279.728 449.088 280.464 449.269 281.104 449.632C281.744 449.995 282.235 450.496 282.576 451.136C282.928 451.765 283.104 452.48 283.104 453.28ZM281.6 452.976C281.6 452.421 281.478 451.947 281.232 451.552C280.987 451.147 280.651 450.843 280.224 450.64C279.808 450.427 279.344 450.32 278.832 450.32C278.096 450.32 277.467 450.555 276.944 451.024C276.432 451.493 276.139 452.144 276.064 452.976H281.6ZM285.81 458.096C285.533 458.096 285.298 458 285.106 457.808C284.914 457.616 284.818 457.381 284.818 457.104C284.818 456.827 284.914 456.592 285.106 456.4C285.298 456.208 285.533 456.112 285.81 456.112C286.077 456.112 286.301 456.208 286.482 456.4C286.674 456.592 286.77 456.827 286.77 457.104C286.77 457.381 286.674 457.616 286.482 457.808C286.301 458 286.077 458.096 285.81 458.096Z" fill="black"/>
<rect x="147.5" y="245.5" width="84" height="84" rx="10.5" fill="#FAEEDA" stroke="#FFD110"/>
<path d="M192.604 306.75C192.238 307.381 191.712 307.906 191.08 308.27C190.447 308.634 189.73 308.826 189 308.826C188.27 308.826 187.553 308.634 186.92 308.27C186.288 307.906 185.762 307.381 185.396 306.75M201.5 279.667C201.5 276.352 200.183 273.172 197.839 270.828C195.495 268.484 192.315 267.167 189 267.167C185.685 267.167 182.505 268.484 180.161 270.828C177.817 273.172 176.5 276.352 176.5 279.667C176.5 294.25 170.25 298.417 170.25 298.417H207.75C207.75 298.417 201.5 294.25 201.5 279.667Z" stroke="#FFD112" stroke-width="4" stroke-linecap="round" stroke-linejoin="round"/>
<path d="M36.6961 394.168C35.5281 394.168 34.4721 393.968 33.5281 393.568C32.6001 393.168 31.8641 392.592 31.3201 391.84C30.7761 391.088 30.4961 390.2 30.4801 389.176H34.0801C34.1281 389.864 34.3681 390.408 34.8001 390.808C35.2481 391.208 35.8561 391.408 36.6241 391.408C37.4081 391.408 38.0241 391.224 38.4721 390.856C38.9201 390.472 39.1441 389.976 39.1441 389.368C39.1441 388.872 38.9921 388.464 38.6881 388.144C38.3841 387.824 38.0001 387.576 37.5361 387.4C37.0881 387.208 36.4641 387 35.6641 386.776C34.5761 386.456 33.6881 386.144 33.0001 385.84C32.3281 385.52 31.7441 385.048 31.2481 384.424C30.7681 383.784 30.5281 382.936 30.5281 381.88C30.5281 380.888 30.7761 380.024 31.2721 379.288C31.7681 378.552 32.4641 377.992 33.3601 377.608C34.2561 377.208 35.2801 377.008 36.4321 377.008C38.1601 377.008 39.5601 377.432 40.6321 378.28C41.7201 379.112 42.3201 380.28 42.4321 381.784H38.7361C38.7041 381.208 38.4561 380.736 37.9921 380.368C37.5441 379.984 36.9441 379.792 36.1921 379.792C35.5361 379.792 35.0081 379.96 34.6081 380.296C34.2241 380.632 34.0321 381.12 34.0321 381.76C34.0321 382.208 34.1761 382.584 34.4641 382.888C34.7681 383.176 35.1361 383.416 35.5681 383.608C36.0161 383.784 36.6401 383.992 37.4401 384.232C38.5281 384.552 39.4161 384.872 40.1041 385.192C40.7921 385.512 41.3841 385.992 41.8801 386.632C42.3761 387.272 42.6241 388.112 42.6241 389.152C42.6241 390.048 42.3921 390.88 41.9281 391.648C41.4641 392.416 40.7841 393.032 39.8881 393.496C38.9921 393.944 37.9281 394.168 36.6961 394.168ZM49.9291 383.464V389.896C49.9291 390.344 50.0331 390.672 50.2411 390.88C50.4651 391.072 50.8331 391.168 51.3451 391.168H52.9051V394H50.7931C47.9611 394 46.5451 392.624 46.5451 389.872V383.464H44.9611V380.704H46.5451V377.416H49.9291V380.704H52.9051V383.464H49.9291ZM54.9378 387.304C54.9378 385.96 55.2018 384.768 55.7298 383.728C56.2738 382.688 57.0018 381.888 57.9138 381.328C58.8418 380.768 59.8738 380.488 61.0098 380.488C62.0018 380.488 62.8658 380.688 63.6018 381.088C64.3538 381.488 64.9538 381.992 65.4018 382.6V380.704H68.7858V394H65.4018V392.056C64.9698 392.68 64.3698 393.2 63.6018 393.616C62.8498 394.016 61.9778 394.216 60.9858 394.216C59.8658 394.216 58.8418 393.928 57.9138 393.352C57.0018 392.776 56.2738 391.968 55.7298 390.928C55.2018 389.872 54.9378 388.664 54.9378 387.304ZM65.4018 387.352C65.4018 386.536 65.2418 385.84 64.9218 385.264C64.6018 384.672 64.1698 384.224 63.6258 383.92C63.0818 383.6 62.4978 383.44 61.8738 383.44C61.2498 383.44 60.6738 383.592 60.1458 383.896C59.6178 384.2 59.1858 384.648 58.8498 385.24C58.5298 385.816 58.3698 386.504 58.3698 387.304C58.3698 388.104 58.5298 388.808 58.8498 389.416C59.1858 390.008 59.6178 390.464 60.1458 390.784C60.6898 391.104 61.2658 391.264 61.8738 391.264C62.4978 391.264 63.0818 391.112 63.6258 390.808C64.1698 390.488 64.6018 390.04 64.9218 389.464C65.2418 388.872 65.4018 388.168 65.4018 387.352ZM85.2674 380.704L77.0354 400.288H73.4594L76.3394 393.664L71.0114 380.704H74.7794L78.2114 389.992L81.6914 380.704H85.2674ZM99.6614 394.216C98.3814 394.216 97.2294 393.936 96.2054 393.376C95.1814 392.8 94.3734 391.992 93.7814 390.952C93.2054 389.912 92.9174 388.712 92.9174 387.352C92.9174 385.992 93.2134 384.792 93.8054 383.752C94.4134 382.712 95.2374 381.912 96.2774 381.352C97.3174 380.776 98.4774 380.488 99.7574 380.488C101.037 380.488 102.197 380.776 103.237 381.352C104.277 381.912 105.093 382.712 105.685 383.752C106.293 384.792 106.597 385.992 106.597 387.352C106.597 388.712 106.285 389.912 105.661 390.952C105.053 391.992 104.221 392.8 103.165 393.376C102.125 393.936 100.957 394.216 99.6614 394.216ZM99.6614 391.288C100.269 391.288 100.837 391.144 101.365 390.856C101.909 390.552 102.341 390.104 102.661 389.512C102.981 388.92 103.141 388.2 103.141 387.352C103.141 386.088 102.805 385.12 102.133 384.448C101.477 383.76 100.669 383.416 99.7094 383.416C98.7494 383.416 97.9414 383.76 97.2854 384.448C96.6454 385.12 96.3254 386.088 96.3254 387.352C96.3254 388.616 96.6374 389.592 97.2614 390.28C97.9014 390.952 98.7014 391.288 99.6614 391.288ZM116.91 380.512C118.494 380.512 119.774 381.016 120.75 382.024C121.726 383.016 122.214 384.408 122.214 386.2V394H118.854V386.656C118.854 385.6 118.59 384.792 118.062 384.232C117.534 383.656 116.814 383.368 115.902 383.368C114.974 383.368 114.238 383.656 113.694 384.232C113.166 384.792 112.902 385.6 112.902 386.656V394H109.542V380.704H112.902V382.36C113.35 381.784 113.918 381.336 114.606 381.016C115.31 380.68 116.078 380.512 116.91 380.512ZM136 383.464V389.896C136 390.344 136.104 390.672 136.312 390.88C136.536 391.072 136.904 391.168 137.416 391.168H138.976V394H136.864C134.032 394 132.616 392.624 132.616 389.872V383.464H131.032V380.704H132.616V377.416H136V380.704H138.976V383.464H136ZM147.777 394.216C146.497 394.216 145.345 393.936 144.321 393.376C143.297 392.8 142.489 391.992 141.897 390.952C141.321 389.912 141.033 388.712 141.033 387.352C141.033 385.992 141.329 384.792 141.921 383.752C142.529 382.712 143.353 381.912 144.393 381.352C145.433 380.776 146.593 380.488 147.873 380.488C149.153 380.488 150.313 380.776 151.353 381.352C152.393 381.912 153.209 382.712 153.801 383.752C154.409 384.792 154.713 385.992 154.713 387.352C154.713 388.712 154.401 389.912 153.777 390.952C153.169 391.992 152.337 392.8 151.281 393.376C150.241 393.936 149.073 394.216 147.777 394.216ZM147.777 391.288C148.385 391.288 148.953 391.144 149.481 390.856C150.025 390.552 150.457 390.104 150.777 389.512C151.097 388.92 151.257 388.2 151.257 387.352C151.257 386.088 150.921 385.12 150.249 384.448C149.593 383.76 148.785 383.416 147.825 383.416C146.865 383.416 146.057 383.76 145.401 384.448C144.761 385.12 144.441 386.088 144.441 387.352C144.441 388.616 144.753 389.592 145.377 390.28C146.017 390.952 146.817 391.288 147.777 391.288ZM161.017 382.624C161.449 382.016 162.041 381.512 162.793 381.112C163.561 380.696 164.433 380.488 165.409 380.488C166.545 380.488 167.569 380.768 168.481 381.328C169.409 381.888 170.137 382.688 170.665 383.728C171.209 384.752 171.481 385.944 171.481 387.304C171.481 388.664 171.209 389.872 170.665 390.928C170.137 391.968 169.409 392.776 168.481 393.352C167.569 393.928 166.545 394.216 165.409 394.216C164.433 394.216 163.569 394.016 162.817 393.616C162.081 393.216 161.481 392.712 161.017 392.104V400.336H157.657V380.704H161.017V382.624ZM168.049 387.304C168.049 386.504 167.881 385.816 167.545 385.24C167.225 384.648 166.793 384.2 166.249 383.896C165.721 383.592 165.145 383.44 164.521 383.44C163.913 383.44 163.337 383.6 162.793 383.92C162.265 384.224 161.833 384.672 161.497 385.264C161.177 385.856 161.017 386.552 161.017 387.352C161.017 388.152 161.177 388.848 161.497 389.44C161.833 390.032 162.265 390.488 162.793 390.808C163.337 391.112 163.913 391.264 164.521 391.264C165.145 391.264 165.721 391.104 166.249 390.784C166.793 390.464 167.225 390.008 167.545 389.416C167.881 388.824 168.049 388.12 168.049 387.304ZM186.506 394.216C185.226 394.216 184.074 393.936 183.05 393.376C182.026 392.8 181.218 391.992 180.626 390.952C180.05 389.912 179.762 388.712 179.762 387.352C179.762 385.992 180.058 384.792 180.65 383.752C181.258 382.712 182.082 381.912 183.122 381.352C184.162 380.776 185.322 380.488 186.602 380.488C187.882 380.488 189.042 380.776 190.082 381.352C191.122 381.912 191.938 382.712 192.53 383.752C193.138 384.792 193.442 385.992 193.442 387.352C193.442 388.712 193.13 389.912 192.506 390.952C191.898 391.992 191.066 392.8 190.01 393.376C188.97 393.936 187.802 394.216 186.506 394.216ZM186.506 391.288C187.114 391.288 187.682 391.144 188.21 390.856C188.754 390.552 189.186 390.104 189.506 389.512C189.826 388.92 189.986 388.2 189.986 387.352C189.986 386.088 189.65 385.12 188.978 384.448C188.322 383.76 187.514 383.416 186.554 383.416C185.594 383.416 184.786 383.76 184.13 384.448C183.49 385.12 183.17 386.088 183.17 387.352C183.17 388.616 183.482 389.592 184.106 390.28C184.746 390.952 185.546 391.288 186.506 391.288ZM202.482 383.464H200.154V394H196.746V383.464H195.234V380.704H196.746V380.032C196.746 378.4 197.21 377.2 198.138 376.432C199.066 375.664 200.466 375.304 202.338 375.352V378.184C201.522 378.168 200.954 378.304 200.634 378.592C200.314 378.88 200.154 379.4 200.154 380.152V380.704H202.482V383.464ZM224.059 380.704L215.827 400.288H212.251L215.131 393.664L209.803 380.704H213.571L217.003 389.992L220.483 380.704H224.059ZM232.254 394.216C230.974 394.216 229.822 393.936 228.798 393.376C227.774 392.8 226.966 391.992 226.374 390.952C225.798 389.912 225.51 388.712 225.51 387.352C225.51 385.992 225.806 384.792 226.398 383.752C227.006 382.712 227.83 381.912 228.87 381.352C229.91 380.776 231.07 380.488 232.35 380.488C233.63 380.488 234.79 380.776 235.83 381.352C236.87 381.912 237.686 382.712 238.278 383.752C238.886 384.792 239.19 385.992 239.19 387.352C239.19 388.712 238.878 389.912 238.254 390.952C237.646 391.992 236.814 392.8 235.758 393.376C234.718 393.936 233.55 394.216 232.254 394.216ZM232.254 391.288C232.862 391.288 233.43 391.144 233.958 390.856C234.502 390.552 234.934 390.104 235.254 389.512C235.574 388.92 235.734 388.2 235.734 387.352C235.734 386.088 235.398 385.12 234.726 384.448C234.07 383.76 233.262 383.416 232.302 383.416C231.342 383.416 230.534 383.76 229.878 384.448C229.238 385.12 228.918 386.088 228.918 387.352C228.918 388.616 229.23 389.592 229.854 390.28C230.494 390.952 231.294 391.288 232.254 391.288ZM254.687 380.704V394H251.303V392.32C250.871 392.896 250.303 393.352 249.599 393.688C248.911 394.008 248.159 394.168 247.343 394.168C246.303 394.168 245.383 393.952 244.583 393.52C243.783 393.072 243.151 392.424 242.687 391.576C242.239 390.712 242.015 389.688 242.015 388.504V380.704H245.375V388.024C245.375 389.08 245.639 389.896 246.167 390.472C246.695 391.032 247.415 391.312 248.327 391.312C249.255 391.312 249.983 391.032 250.511 390.472C251.039 389.896 251.303 389.08 251.303 388.024V380.704H254.687ZM261.842 382.768C262.274 382.064 262.834 381.512 263.522 381.112C264.226 380.712 265.026 380.512 265.922 380.512V384.04H265.034C263.978 384.04 263.178 384.288 262.634 384.784C262.106 385.28 261.842 386.144 261.842 387.376V394H258.482V380.704H261.842V382.768ZM280.408 390.904L283.768 380.704H287.344L282.424 394H278.344L273.448 380.704H277.048L280.408 390.904ZM302.071 387.064C302.071 387.544 302.039 387.976 301.975 388.36H292.255C292.335 389.32 292.671 390.072 293.263 390.616C293.855 391.16 294.583 391.432 295.447 391.432C296.695 391.432 297.583 390.896 298.111 389.824H301.735C301.351 391.104 300.615 392.16 299.527 392.992C298.439 393.808 297.103 394.216 295.519 394.216C294.239 394.216 293.087 393.936 292.063 393.376C291.055 392.8 290.263 391.992 289.687 390.952C289.127 389.912 288.847 388.712 288.847 387.352C288.847 385.976 289.127 384.768 289.687 383.728C290.247 382.688 291.031 381.888 292.039 381.328C293.047 380.768 294.207 380.488 295.519 380.488C296.783 380.488 297.911 380.76 298.903 381.304C299.911 381.848 300.687 382.624 301.231 383.632C301.791 384.624 302.071 385.768 302.071 387.064ZM298.591 386.104C298.575 385.24 298.263 384.552 297.655 384.04C297.047 383.512 296.303 383.248 295.423 383.248C294.591 383.248 293.887 383.504 293.311 384.016C292.751 384.512 292.407 385.208 292.279 386.104H298.591ZM312.491 380.512C313.499 380.512 314.395 380.736 315.179 381.184C315.963 381.616 316.571 382.264 317.003 383.128C317.451 383.976 317.675 385 317.675 386.2V394H314.315V386.656C314.315 385.6 314.051 384.792 313.523 384.232C312.995 383.656 312.275 383.368 311.363 383.368C310.435 383.368 309.699 383.656 309.155 384.232C308.627 384.792 308.363 385.6 308.363 386.656V394H305.003V376.24H308.363V382.36C308.795 381.784 309.371 381.336 310.091 381.016C310.811 380.68 311.611 380.512 312.491 380.512ZM323.055 379.12C322.463 379.12 321.967 378.936 321.567 378.568C321.183 378.184 320.991 377.712 320.991 377.152C320.991 376.592 321.183 376.128 321.567 375.76C321.967 375.376 322.463 375.184 323.055 375.184C323.647 375.184 324.135 375.376 324.519 375.76C324.919 376.128 325.119 376.592 325.119 377.152C325.119 377.712 324.919 378.184 324.519 378.568C324.135 378.936 323.647 379.12 323.055 379.12ZM324.711 380.704V394H321.351V380.704H324.711ZM327.646 387.352C327.646 385.976 327.926 384.776 328.486 383.752C329.046 382.712 329.822 381.912 330.814 381.352C331.806 380.776 332.942 380.488 334.222 380.488C335.87 380.488 337.23 380.904 338.302 381.736C339.39 382.552 340.118 383.704 340.486 385.192H336.862C336.67 384.616 336.342 384.168 335.878 383.848C335.43 383.512 334.87 383.344 334.198 383.344C333.238 383.344 332.478 383.696 331.918 384.4C331.358 385.088 331.078 386.072 331.078 387.352C331.078 388.616 331.358 389.6 331.918 390.304C332.478 390.992 333.238 391.336 334.198 391.336C335.558 391.336 336.446 390.728 336.862 389.512H340.486C340.118 390.952 339.39 392.096 338.302 392.944C337.214 393.792 335.854 394.216 334.222 394.216C332.942 394.216 331.806 393.936 330.814 393.376C329.822 392.8 329.046 392 328.486 390.976C327.926 389.936 327.646 388.728 327.646 387.352ZM346.788 376.24V394H343.428V376.24H346.788ZM362.947 387.064C362.947 387.544 362.915 387.976 362.851 388.36H353.131C353.211 389.32 353.547 390.072 354.139 390.616C354.731 391.16 355.459 391.432 356.323 391.432C357.571 391.432 358.459 390.896 358.987 389.824H362.611C362.227 391.104 361.491 392.16 360.403 392.992C359.315 393.808 357.979 394.216 356.395 394.216C355.115 394.216 353.963 393.936 352.939 393.376C351.931 392.8 351.139 391.992 350.563 390.952C350.003 389.912 349.723 388.712 349.723 387.352C349.723 385.976 350.003 384.768 350.563 383.728C351.123 382.688 351.907 381.888 352.915 381.328C353.923 380.768 355.083 380.488 356.395 380.488C357.659 380.488 358.787 380.76 359.779 381.304C360.787 381.848 361.563 382.624 362.107 383.632C362.667 384.624 362.947 385.768 362.947 387.064ZM359.467 386.104C359.451 385.24 359.139 384.552 358.531 384.04C357.923 383.512 357.179 383.248 356.299 383.248C355.467 383.248 354.763 383.504 354.187 384.016C353.627 384.512 353.283 385.208 353.155 386.104H359.467Z" fill="black"/>
<defs>
<linearGradient id="paint0_linear_2060_843" x1="51" y1="510.838" x2="339" y2="510.838" gradientUnits="userSpaceOnUse">
<stop offset="0.5" stop-color="#FFF200"/>
<stop offset="1" stop-color="#FFCB14"/>
</linearGradient>
<linearGradient id="paint1_linear_2060_843" x1="51" y1="510.838" x2="339" y2="510.838" gradientUnits="userSpaceOnUse">
<stop offset="0.5" stop-color="#FFF200"/>
<stop offset="1" stop-color="#FFCB14"/>
</linearGradient>
</defs>
</svg>
