<svg width="393" height="852" viewBox="0 0 393 852" fill="none" xmlns="http://www.w3.org/2000/svg">
<rect width="393" height="852" fill="white"/>
<rect x="45" y="559" width="288" height="42" rx="10" fill="url(#paint0_linear_2060_890)"/>
<path d="M144.027 586.105C143.297 586.105 142.637 585.98 142.047 585.73C141.467 585.48 141.007 585.12 140.667 584.65C140.327 584.18 140.152 583.625 140.142 582.985H142.392C142.422 583.415 142.572 583.755 142.842 584.005C143.122 584.255 143.502 584.38 143.982 584.38C144.472 584.38 144.857 584.265 145.137 584.035C145.417 583.795 145.557 583.485 145.557 583.105C145.557 582.795 145.462 582.54 145.272 582.34C145.082 582.14 144.842 581.985 144.552 581.875C144.272 581.755 143.882 581.625 143.382 581.485C142.702 581.285 142.147 581.09 141.717 580.9C141.297 580.7 140.932 580.405 140.622 580.015C140.322 579.615 140.172 579.085 140.172 578.425C140.172 577.805 140.327 577.265 140.637 576.805C140.947 576.345 141.382 575.995 141.942 575.755C142.502 575.505 143.142 575.38 143.862 575.38C144.942 575.38 145.817 575.645 146.487 576.175C147.167 576.695 147.542 577.425 147.612 578.365H145.302C145.282 578.005 145.127 577.71 144.837 577.48C144.557 577.24 144.182 577.12 143.712 577.12C143.302 577.12 142.972 577.225 142.722 577.435C142.482 577.645 142.362 577.95 142.362 578.35C142.362 578.63 142.452 578.865 142.632 579.055C142.822 579.235 143.052 579.385 143.322 579.505C143.602 579.615 143.992 579.745 144.492 579.895C145.172 580.095 145.727 580.295 146.157 580.495C146.587 580.695 146.957 580.995 147.267 581.395C147.577 581.795 147.732 582.32 147.732 582.97C147.732 583.53 147.587 584.05 147.297 584.53C147.007 585.01 146.582 585.395 146.022 585.685C145.462 585.965 144.797 586.105 144.027 586.105ZM157.577 581.665C157.577 581.965 157.557 582.235 157.517 582.475H151.442C151.492 583.075 151.702 583.545 152.072 583.885C152.442 584.225 152.897 584.395 153.437 584.395C154.217 584.395 154.772 584.06 155.102 583.39H157.367C157.127 584.19 156.667 584.85 155.987 585.37C155.307 585.88 154.472 586.135 153.482 586.135C152.682 586.135 151.962 585.96 151.322 585.61C150.692 585.25 150.197 584.745 149.837 584.095C149.487 583.445 149.312 582.695 149.312 581.845C149.312 580.985 149.487 580.23 149.837 579.58C150.187 578.93 150.677 578.43 151.307 578.08C151.937 577.73 152.662 577.555 153.482 577.555C154.272 577.555 154.977 577.725 155.597 578.065C156.227 578.405 156.712 578.89 157.052 579.52C157.402 580.14 157.577 580.855 157.577 581.665ZM155.402 581.065C155.392 580.525 155.197 580.095 154.817 579.775C154.437 579.445 153.972 579.28 153.422 579.28C152.902 579.28 152.462 579.44 152.102 579.76C151.752 580.07 151.537 580.505 151.457 581.065H155.402ZM164.015 577.57C165.005 577.57 165.805 577.885 166.415 578.515C167.025 579.135 167.33 580.005 167.33 581.125V586H165.23V581.41C165.23 580.75 165.065 580.245 164.735 579.895C164.405 579.535 163.955 579.355 163.385 579.355C162.805 579.355 162.345 579.535 162.005 579.895C161.675 580.245 161.51 580.75 161.51 581.41V586H159.41V577.69H161.51V578.725C161.79 578.365 162.145 578.085 162.575 577.885C163.015 577.675 163.495 577.57 164.015 577.57ZM169.087 581.815C169.087 580.975 169.252 580.23 169.582 579.58C169.922 578.93 170.382 578.43 170.962 578.08C171.542 577.73 172.187 577.555 172.897 577.555C173.437 577.555 173.952 577.675 174.442 577.915C174.932 578.145 175.322 578.455 175.612 578.845V574.9H177.742V586H175.612V584.77C175.352 585.18 174.987 585.51 174.517 585.76C174.047 586.01 173.502 586.135 172.882 586.135C172.182 586.135 171.542 585.955 170.962 585.595C170.382 585.235 169.922 584.73 169.582 584.08C169.252 583.42 169.087 582.665 169.087 581.815ZM175.627 581.845C175.627 581.335 175.527 580.9 175.327 580.54C175.127 580.17 174.857 579.89 174.517 579.7C174.177 579.5 173.812 579.4 173.422 579.4C173.032 579.4 172.672 579.495 172.342 579.685C172.012 579.875 171.742 580.155 171.532 580.525C171.332 580.885 171.232 581.315 171.232 581.815C171.232 582.315 171.332 582.755 171.532 583.135C171.742 583.505 172.012 583.79 172.342 583.99C172.682 584.19 173.042 584.29 173.422 584.29C173.812 584.29 174.177 584.195 174.517 584.005C174.857 583.805 175.127 583.525 175.327 583.165C175.527 582.795 175.627 582.355 175.627 581.845ZM191.692 581.665C191.692 581.965 191.672 582.235 191.632 582.475H185.557C185.607 583.075 185.817 583.545 186.187 583.885C186.557 584.225 187.012 584.395 187.552 584.395C188.332 584.395 188.887 584.06 189.217 583.39H191.482C191.242 584.19 190.782 584.85 190.102 585.37C189.422 585.88 188.587 586.135 187.597 586.135C186.797 586.135 186.077 585.96 185.437 585.61C184.807 585.25 184.312 584.745 183.952 584.095C183.602 583.445 183.427 582.695 183.427 581.845C183.427 580.985 183.602 580.23 183.952 579.58C184.302 578.93 184.792 578.43 185.422 578.08C186.052 577.73 186.777 577.555 187.597 577.555C188.387 577.555 189.092 577.725 189.712 578.065C190.342 578.405 190.827 578.89 191.167 579.52C191.517 580.14 191.692 580.855 191.692 581.665ZM189.517 581.065C189.507 580.525 189.312 580.095 188.932 579.775C188.552 579.445 188.087 579.28 187.537 579.28C187.017 579.28 186.577 579.44 186.217 579.76C185.867 580.07 185.652 580.505 185.572 581.065H189.517ZM203.845 577.57C204.865 577.57 205.685 577.885 206.305 578.515C206.935 579.135 207.25 580.005 207.25 581.125V586H205.15V581.41C205.15 580.76 204.985 580.265 204.655 579.925C204.325 579.575 203.875 579.4 203.305 579.4C202.735 579.4 202.28 579.575 201.94 579.925C201.61 580.265 201.445 580.76 201.445 581.41V586H199.345V581.41C199.345 580.76 199.18 580.265 198.85 579.925C198.52 579.575 198.07 579.4 197.5 579.4C196.92 579.4 196.46 579.575 196.12 579.925C195.79 580.265 195.625 580.76 195.625 581.41V586H193.525V577.69H195.625V578.695C195.895 578.345 196.24 578.07 196.66 577.87C197.09 577.67 197.56 577.57 198.07 577.57C198.72 577.57 199.3 577.71 199.81 577.99C200.32 578.26 200.715 578.65 200.995 579.16C201.265 578.68 201.655 578.295 202.165 578.005C202.685 577.715 203.245 577.57 203.845 577.57ZM209.003 581.815C209.003 580.975 209.168 580.23 209.498 579.58C209.838 578.93 210.293 578.43 210.863 578.08C211.443 577.73 212.088 577.555 212.798 577.555C213.418 577.555 213.958 577.68 214.418 577.93C214.888 578.18 215.263 578.495 215.543 578.875V577.69H217.658V586H215.543V584.785C215.273 585.175 214.898 585.5 214.418 585.76C213.948 586.01 213.403 586.135 212.783 586.135C212.083 586.135 211.443 585.955 210.863 585.595C210.293 585.235 209.838 584.73 209.498 584.08C209.168 583.42 209.003 582.665 209.003 581.815ZM215.543 581.845C215.543 581.335 215.443 580.9 215.243 580.54C215.043 580.17 214.773 579.89 214.433 579.7C214.093 579.5 213.728 579.4 213.338 579.4C212.948 579.4 212.588 579.495 212.258 579.685C211.928 579.875 211.658 580.155 211.448 580.525C211.248 580.885 211.148 581.315 211.148 581.815C211.148 582.315 211.248 582.755 211.448 583.135C211.658 583.505 211.928 583.79 212.258 583.99C212.598 584.19 212.958 584.29 213.338 584.29C213.728 584.29 214.093 584.195 214.433 584.005C214.773 583.805 215.043 583.525 215.243 583.165C215.443 582.795 215.543 582.355 215.543 581.845ZM221.074 576.7C220.704 576.7 220.394 576.585 220.144 576.355C219.904 576.115 219.784 575.82 219.784 575.47C219.784 575.12 219.904 574.83 220.144 574.6C220.394 574.36 220.704 574.24 221.074 574.24C221.444 574.24 221.749 574.36 221.989 574.6C222.239 574.83 222.364 575.12 222.364 575.47C222.364 575.82 222.239 576.115 221.989 576.355C221.749 576.585 221.444 576.7 221.074 576.7ZM222.109 577.69V586H220.009V577.69H222.109ZM226.584 574.9V586H224.484V574.9H226.584Z" fill="black"/>
<path d="M38.5102 416.032V419.76H42.5742V420.96H38.5102V424.8H43.0542V426H37.0542V414.832H43.0542V416.032H38.5102ZM49.8493 417.072C50.916 417.072 51.78 417.397 52.4413 418.048C53.1026 418.688 53.4333 419.616 53.4333 420.832V426H51.9933V421.04C51.9933 420.165 51.7746 419.499 51.3373 419.04C50.9 418.571 50.3026 418.336 49.5453 418.336C48.7773 418.336 48.164 418.576 47.7053 419.056C47.2573 419.536 47.0333 420.235 47.0333 421.152V426H45.5773V417.232H47.0333V418.48C47.3213 418.032 47.7106 417.685 48.2013 417.44C48.7026 417.195 49.252 417.072 49.8493 417.072ZM57.9077 418.432V423.6C57.9077 424.027 57.9984 424.331 58.1797 424.512C58.361 424.683 58.6757 424.768 59.1237 424.768H60.1957V426H58.8837C58.073 426 57.465 425.813 57.0597 425.44C56.6544 425.067 56.4517 424.453 56.4517 423.6V418.432H55.3157V417.232H56.4517V415.024H57.9077V417.232H60.1957V418.432H57.9077ZM70.2798 421.28C70.2798 421.557 70.2638 421.851 70.2318 422.16H63.2238C63.2771 423.024 63.5705 423.701 64.1038 424.192C64.6478 424.672 65.3038 424.912 66.0718 424.912C66.7011 424.912 67.2238 424.768 67.6398 424.48C68.0665 424.181 68.3651 423.787 68.5358 423.296H70.1038C69.8691 424.139 69.3998 424.827 68.6958 425.36C67.9918 425.883 67.1171 426.144 66.0718 426.144C65.2398 426.144 64.4931 425.957 63.8318 425.584C63.1811 425.211 62.6691 424.683 62.2958 424C61.9225 423.307 61.7358 422.507 61.7358 421.6C61.7358 420.693 61.9171 419.899 62.2798 419.216C62.6425 418.533 63.1491 418.011 63.7998 417.648C64.4611 417.275 65.2185 417.088 66.0718 417.088C66.9038 417.088 67.6398 417.269 68.2798 417.632C68.9198 417.995 69.4105 418.496 69.7518 419.136C70.1038 419.765 70.2798 420.48 70.2798 421.28ZM68.7758 420.976C68.7758 420.421 68.6531 419.947 68.4078 419.552C68.1625 419.147 67.8265 418.843 67.3998 418.64C66.9838 418.427 66.5198 418.32 66.0078 418.32C65.2718 418.32 64.6425 418.555 64.1198 419.024C63.6078 419.493 63.3145 420.144 63.2398 420.976H68.7758ZM73.9777 418.656C74.2337 418.155 74.5964 417.765 75.0657 417.488C75.5457 417.211 76.127 417.072 76.8097 417.072V418.576H76.4257C74.7937 418.576 73.9777 419.461 73.9777 421.232V426H72.5217V417.232H73.9777V418.656ZM90.9481 417.232L85.6681 430.128H84.1641L85.8921 425.904L82.3561 417.232H83.9721L86.7241 424.336L89.4441 417.232H90.9481ZM96.5557 426.144C95.7344 426.144 94.9877 425.957 94.3157 425.584C93.6544 425.211 93.1317 424.683 92.7477 424C92.3744 423.307 92.1877 422.507 92.1877 421.6C92.1877 420.704 92.3797 419.915 92.7637 419.232C93.1584 418.539 93.6917 418.011 94.3637 417.648C95.0357 417.275 95.7877 417.088 96.6197 417.088C97.4517 417.088 98.2037 417.275 98.8757 417.648C99.5477 418.011 100.076 418.533 100.46 419.216C100.854 419.899 101.052 420.693 101.052 421.6C101.052 422.507 100.849 423.307 100.444 424C100.049 424.683 99.5104 425.211 98.8277 425.584C98.145 425.957 97.3877 426.144 96.5557 426.144ZM96.5557 424.864C97.0784 424.864 97.569 424.741 98.0277 424.496C98.4864 424.251 98.8544 423.883 99.1317 423.392C99.4197 422.901 99.5637 422.304 99.5637 421.6C99.5637 420.896 99.425 420.299 99.1477 419.808C98.8704 419.317 98.5077 418.955 98.0597 418.72C97.6117 418.475 97.1264 418.352 96.6037 418.352C96.0704 418.352 95.5797 418.475 95.1317 418.72C94.6944 418.955 94.3424 419.317 94.0757 419.808C93.809 420.299 93.6757 420.896 93.6757 421.6C93.6757 422.315 93.8037 422.917 94.0597 423.408C94.3264 423.899 94.6784 424.267 95.1157 424.512C95.553 424.747 96.033 424.864 96.5557 424.864ZM111.062 417.232V426H109.606V424.704C109.329 425.152 108.939 425.504 108.438 425.76C107.947 426.005 107.403 426.128 106.806 426.128C106.123 426.128 105.51 425.989 104.966 425.712C104.422 425.424 103.99 424.997 103.67 424.432C103.361 423.867 103.206 423.179 103.206 422.368V417.232H104.646V422.176C104.646 423.04 104.865 423.707 105.302 424.176C105.739 424.635 106.337 424.864 107.094 424.864C107.873 424.864 108.486 424.624 108.934 424.144C109.382 423.664 109.606 422.965 109.606 422.048V417.232H111.062ZM115.296 418.656C115.552 418.155 115.915 417.765 116.384 417.488C116.864 417.211 117.446 417.072 118.128 417.072V418.576H117.744C116.112 418.576 115.296 419.461 115.296 421.232V426H113.84V417.232H115.296V418.656ZM132.715 421.28C132.715 421.557 132.699 421.851 132.667 422.16H125.659C125.712 423.024 126.005 423.701 126.539 424.192C127.083 424.672 127.739 424.912 128.507 424.912C129.136 424.912 129.659 424.768 130.075 424.48C130.501 424.181 130.8 423.787 130.971 423.296H132.539C132.304 424.139 131.835 424.827 131.131 425.36C130.427 425.883 129.552 426.144 128.507 426.144C127.675 426.144 126.928 425.957 126.267 425.584C125.616 425.211 125.104 424.683 124.731 424C124.357 423.307 124.171 422.507 124.171 421.6C124.171 420.693 124.352 419.899 124.715 419.216C125.077 418.533 125.584 418.011 126.235 417.648C126.896 417.275 127.653 417.088 128.507 417.088C129.339 417.088 130.075 417.269 130.715 417.632C131.355 417.995 131.845 418.496 132.187 419.136C132.539 419.765 132.715 420.48 132.715 421.28ZM131.211 420.976C131.211 420.421 131.088 419.947 130.843 419.552C130.597 419.147 130.261 418.843 129.835 418.64C129.419 418.427 128.955 418.32 128.443 418.32C127.707 418.32 127.077 418.555 126.555 419.024C126.043 419.493 125.749 420.144 125.675 420.976H131.211ZM145.501 417.072C146.183 417.072 146.791 417.216 147.325 417.504C147.858 417.781 148.279 418.203 148.589 418.768C148.898 419.333 149.053 420.021 149.053 420.832V426H147.613V421.04C147.613 420.165 147.394 419.499 146.957 419.04C146.53 418.571 145.949 418.336 145.213 418.336C144.455 418.336 143.853 418.581 143.405 419.072C142.957 419.552 142.733 420.251 142.733 421.168V426H141.293V421.04C141.293 420.165 141.074 419.499 140.637 419.04C140.21 418.571 139.629 418.336 138.893 418.336C138.135 418.336 137.533 418.581 137.085 419.072C136.637 419.552 136.413 420.251 136.413 421.168V426H134.957V417.232H136.413V418.496C136.701 418.037 137.085 417.685 137.565 417.44C138.055 417.195 138.594 417.072 139.181 417.072C139.917 417.072 140.567 417.237 141.133 417.568C141.698 417.899 142.119 418.384 142.397 419.024C142.642 418.405 143.047 417.925 143.613 417.584C144.178 417.243 144.807 417.072 145.501 417.072ZM151.217 421.584C151.217 420.688 151.398 419.904 151.761 419.232C152.124 418.549 152.62 418.021 153.249 417.648C153.889 417.275 154.598 417.088 155.377 417.088C156.145 417.088 156.812 417.253 157.377 417.584C157.942 417.915 158.364 418.331 158.641 418.832V417.232H160.113V426H158.641V424.368C158.353 424.88 157.921 425.307 157.345 425.648C156.78 425.979 156.118 426.144 155.361 426.144C154.582 426.144 153.878 425.952 153.249 425.568C152.62 425.184 152.124 424.645 151.761 423.952C151.398 423.259 151.217 422.469 151.217 421.584ZM158.641 421.6C158.641 420.939 158.508 420.363 158.241 419.872C157.974 419.381 157.612 419.008 157.153 418.752C156.705 418.485 156.209 418.352 155.665 418.352C155.121 418.352 154.625 418.48 154.177 418.736C153.729 418.992 153.372 419.365 153.105 419.856C152.838 420.347 152.705 420.923 152.705 421.584C152.705 422.256 152.838 422.843 153.105 423.344C153.372 423.835 153.729 424.213 154.177 424.48C154.625 424.736 155.121 424.864 155.665 424.864C156.209 424.864 156.705 424.736 157.153 424.48C157.612 424.213 157.974 423.835 158.241 423.344C158.508 422.843 158.641 422.261 158.641 421.6ZM163.646 415.808C163.368 415.808 163.134 415.712 162.942 415.52C162.75 415.328 162.654 415.093 162.654 414.816C162.654 414.539 162.75 414.304 162.942 414.112C163.134 413.92 163.368 413.824 163.646 413.824C163.912 413.824 164.136 413.92 164.318 414.112C164.51 414.304 164.606 414.539 164.606 414.816C164.606 415.093 164.51 415.328 164.318 415.52C164.136 415.712 163.912 415.808 163.646 415.808ZM164.35 417.232V426H162.894V417.232H164.35ZM168.607 414.16V426H167.151V414.16H168.607ZM175.45 421.584C175.45 420.688 175.632 419.904 175.994 419.232C176.357 418.549 176.853 418.021 177.482 417.648C178.122 417.275 178.832 417.088 179.61 417.088C180.378 417.088 181.045 417.253 181.61 417.584C182.176 417.915 182.597 418.331 182.874 418.832V417.232H184.346V426H182.874V424.368C182.586 424.88 182.154 425.307 181.578 425.648C181.013 425.979 180.352 426.144 179.594 426.144C178.816 426.144 178.112 425.952 177.482 425.568C176.853 425.184 176.357 424.645 175.994 423.952C175.632 423.259 175.45 422.469 175.45 421.584ZM182.874 421.6C182.874 420.939 182.741 420.363 182.474 419.872C182.208 419.381 181.845 419.008 181.386 418.752C180.938 418.485 180.442 418.352 179.898 418.352C179.354 418.352 178.858 418.48 178.41 418.736C177.962 418.992 177.605 419.365 177.338 419.856C177.072 420.347 176.938 420.923 176.938 421.584C176.938 422.256 177.072 422.843 177.338 423.344C177.605 423.835 177.962 424.213 178.41 424.48C178.858 424.736 179.354 424.864 179.898 424.864C180.442 424.864 180.938 424.736 181.386 424.48C181.845 424.213 182.208 423.835 182.474 423.344C182.741 422.843 182.874 422.261 182.874 421.6ZM191.399 417.072C192.465 417.072 193.329 417.397 193.991 418.048C194.652 418.688 194.983 419.616 194.983 420.832V426H193.543V421.04C193.543 420.165 193.324 419.499 192.887 419.04C192.449 418.571 191.852 418.336 191.095 418.336C190.327 418.336 189.713 418.576 189.255 419.056C188.807 419.536 188.583 420.235 188.583 421.152V426H187.127V417.232H188.583V418.48C188.871 418.032 189.26 417.685 189.751 417.44C190.252 417.195 190.801 417.072 191.399 417.072ZM197.137 421.584C197.137 420.688 197.318 419.904 197.681 419.232C198.044 418.549 198.54 418.021 199.169 417.648C199.809 417.275 200.524 417.088 201.313 417.088C201.996 417.088 202.63 417.248 203.217 417.568C203.804 417.877 204.252 418.288 204.561 418.8V414.16H206.033V426H204.561V424.352C204.273 424.875 203.846 425.307 203.281 425.648C202.716 425.979 202.054 426.144 201.297 426.144C200.518 426.144 199.809 425.952 199.169 425.568C198.54 425.184 198.044 424.645 197.681 423.952C197.318 423.259 197.137 422.469 197.137 421.584ZM204.561 421.6C204.561 420.939 204.428 420.363 204.161 419.872C203.894 419.381 203.532 419.008 203.073 418.752C202.625 418.485 202.129 418.352 201.585 418.352C201.041 418.352 200.545 418.48 200.097 418.736C199.649 418.992 199.292 419.365 199.025 419.856C198.758 420.347 198.625 420.923 198.625 421.584C198.625 422.256 198.758 422.843 199.025 423.344C199.292 423.835 199.649 424.213 200.097 424.48C200.545 424.736 201.041 424.864 201.585 424.864C202.129 424.864 202.625 424.736 203.073 424.48C203.532 424.213 203.894 423.835 204.161 423.344C204.428 422.843 204.561 422.261 204.561 421.6ZM225.079 417.232L222.343 426H220.839L218.727 419.04L216.615 426H215.111L212.359 417.232H213.847L215.863 424.592L218.039 417.232H219.527L221.655 424.608L223.639 417.232H225.079ZM234.844 421.28C234.844 421.557 234.828 421.851 234.796 422.16H227.788C227.842 423.024 228.135 423.701 228.668 424.192C229.212 424.672 229.868 424.912 230.636 424.912C231.266 424.912 231.788 424.768 232.204 424.48C232.631 424.181 232.93 423.787 233.1 423.296H234.668C234.434 424.139 233.964 424.827 233.26 425.36C232.556 425.883 231.682 426.144 230.636 426.144C229.804 426.144 229.058 425.957 228.396 425.584C227.746 425.211 227.234 424.683 226.86 424C226.487 423.307 226.3 422.507 226.3 421.6C226.3 420.693 226.482 419.899 226.844 419.216C227.207 418.533 227.714 418.011 228.364 417.648C229.026 417.275 229.783 417.088 230.636 417.088C231.468 417.088 232.204 417.269 232.844 417.632C233.484 417.995 233.975 418.496 234.316 419.136C234.668 419.765 234.844 420.48 234.844 421.28ZM233.34 420.976C233.34 420.421 233.218 419.947 232.972 419.552C232.727 419.147 232.391 418.843 231.964 418.64C231.548 418.427 231.084 418.32 230.572 418.32C229.836 418.32 229.207 418.555 228.684 419.024C228.172 419.493 227.879 420.144 227.804 420.976H233.34ZM237.822 413.264L237.63 416.448H236.622L236.414 413.264H237.822ZM241.409 414.16V426H239.953V414.16H241.409ZM245.666 414.16V426H244.21V414.16H245.666ZM256.158 426.144C255.486 426.144 254.883 426.032 254.35 425.808C253.816 425.573 253.395 425.253 253.086 424.848C252.776 424.432 252.606 423.957 252.574 423.424H254.078C254.12 423.861 254.323 424.219 254.686 424.496C255.059 424.773 255.544 424.912 256.142 424.912C256.696 424.912 257.134 424.789 257.454 424.544C257.774 424.299 257.934 423.989 257.934 423.616C257.934 423.232 257.763 422.949 257.422 422.768C257.08 422.576 256.552 422.389 255.838 422.208C255.187 422.037 254.654 421.867 254.238 421.696C253.832 421.515 253.48 421.253 253.182 420.912C252.894 420.56 252.75 420.101 252.75 419.536C252.75 419.088 252.883 418.677 253.15 418.304C253.416 417.931 253.795 417.637 254.286 417.424C254.776 417.2 255.336 417.088 255.966 417.088C256.936 417.088 257.72 417.333 258.318 417.824C258.915 418.315 259.235 418.987 259.278 419.84H257.822C257.79 419.381 257.603 419.013 257.262 418.736C256.931 418.459 256.483 418.32 255.918 418.32C255.395 418.32 254.979 418.432 254.67 418.656C254.36 418.88 254.206 419.173 254.206 419.536C254.206 419.824 254.296 420.064 254.478 420.256C254.67 420.437 254.904 420.587 255.182 420.704C255.47 420.811 255.864 420.933 256.366 421.072C256.995 421.243 257.507 421.413 257.902 421.584C258.296 421.744 258.632 421.989 258.91 422.32C259.198 422.651 259.347 423.083 259.358 423.616C259.358 424.096 259.224 424.528 258.958 424.912C258.691 425.296 258.312 425.6 257.822 425.824C257.342 426.037 256.787 426.144 256.158 426.144ZM269.733 421.28C269.733 421.557 269.717 421.851 269.685 422.16H262.677C262.73 423.024 263.024 423.701 263.557 424.192C264.101 424.672 264.757 424.912 265.525 424.912C266.154 424.912 266.677 424.768 267.093 424.48C267.52 424.181 267.818 423.787 267.989 423.296H269.557C269.322 424.139 268.853 424.827 268.149 425.36C267.445 425.883 266.57 426.144 265.525 426.144C264.693 426.144 263.946 425.957 263.285 425.584C262.634 425.211 262.122 424.683 261.749 424C261.376 423.307 261.189 422.507 261.189 421.6C261.189 420.693 261.37 419.899 261.733 419.216C262.096 418.533 262.602 418.011 263.253 417.648C263.914 417.275 264.672 417.088 265.525 417.088C266.357 417.088 267.093 417.269 267.733 417.632C268.373 417.995 268.864 418.496 269.205 419.136C269.557 419.765 269.733 420.48 269.733 421.28ZM268.229 420.976C268.229 420.421 268.106 419.947 267.861 419.552C267.616 419.147 267.28 418.843 266.853 418.64C266.437 418.427 265.973 418.32 265.461 418.32C264.725 418.32 264.096 418.555 263.573 419.024C263.061 419.493 262.768 420.144 262.693 420.976H268.229ZM276.247 417.072C277.313 417.072 278.177 417.397 278.839 418.048C279.5 418.688 279.831 419.616 279.831 420.832V426H278.391V421.04C278.391 420.165 278.172 419.499 277.735 419.04C277.297 418.571 276.7 418.336 275.943 418.336C275.175 418.336 274.561 418.576 274.103 419.056C273.655 419.536 273.431 420.235 273.431 421.152V426H271.975V417.232H273.431V418.48C273.719 418.032 274.108 417.685 274.599 417.44C275.1 417.195 275.649 417.072 276.247 417.072ZM281.985 421.584C281.985 420.688 282.167 419.904 282.529 419.232C282.892 418.549 283.388 418.021 284.017 417.648C284.657 417.275 285.372 417.088 286.161 417.088C286.844 417.088 287.479 417.248 288.065 417.568C288.652 417.877 289.1 418.288 289.409 418.8V414.16H290.881V426H289.409V424.352C289.121 424.875 288.695 425.307 288.129 425.648C287.564 425.979 286.903 426.144 286.145 426.144C285.367 426.144 284.657 425.952 284.017 425.568C283.388 425.184 282.892 424.645 282.529 423.952C282.167 423.259 281.985 422.469 281.985 421.584ZM289.409 421.6C289.409 420.939 289.276 420.363 289.009 419.872C288.743 419.381 288.38 419.008 287.921 418.752C287.473 418.485 286.977 418.352 286.433 418.352C285.889 418.352 285.393 418.48 284.945 418.736C284.497 418.992 284.14 419.365 283.873 419.856C283.607 420.347 283.473 420.923 283.473 421.584C283.473 422.256 283.607 422.843 283.873 423.344C284.14 423.835 284.497 424.213 284.945 424.48C285.393 424.736 285.889 424.864 286.433 424.864C286.977 424.864 287.473 424.736 287.921 424.48C288.38 424.213 288.743 423.835 289.009 423.344C289.276 422.843 289.409 422.261 289.409 421.6ZM305.799 417.232L300.519 430.128H299.015L300.743 425.904L297.207 417.232H298.823L301.575 424.336L304.295 417.232H305.799ZM311.407 426.144C310.586 426.144 309.839 425.957 309.167 425.584C308.506 425.211 307.983 424.683 307.599 424C307.226 423.307 307.039 422.507 307.039 421.6C307.039 420.704 307.231 419.915 307.615 419.232C308.01 418.539 308.543 418.011 309.215 417.648C309.887 417.275 310.639 417.088 311.471 417.088C312.303 417.088 313.055 417.275 313.727 417.648C314.399 418.011 314.927 418.533 315.311 419.216C315.706 419.899 315.903 420.693 315.903 421.6C315.903 422.507 315.7 423.307 315.295 424C314.9 424.683 314.362 425.211 313.679 425.584C312.996 425.957 312.239 426.144 311.407 426.144ZM311.407 424.864C311.93 424.864 312.42 424.741 312.879 424.496C313.338 424.251 313.706 423.883 313.983 423.392C314.271 422.901 314.415 422.304 314.415 421.6C314.415 420.896 314.276 420.299 313.999 419.808C313.722 419.317 313.359 418.955 312.911 418.72C312.463 418.475 311.978 418.352 311.455 418.352C310.922 418.352 310.431 418.475 309.983 418.72C309.546 418.955 309.194 419.317 308.927 419.808C308.66 420.299 308.527 420.896 308.527 421.6C308.527 422.315 308.655 422.917 308.911 423.408C309.178 423.899 309.53 424.267 309.967 424.512C310.404 424.747 310.884 424.864 311.407 424.864ZM325.913 417.232V426H324.457V424.704C324.18 425.152 323.791 425.504 323.289 425.76C322.799 426.005 322.255 426.128 321.657 426.128C320.975 426.128 320.361 425.989 319.817 425.712C319.273 425.424 318.841 424.997 318.521 424.432C318.212 423.867 318.057 423.179 318.057 422.368V417.232H319.497V422.176C319.497 423.04 319.716 423.707 320.153 424.176C320.591 424.635 321.188 424.864 321.945 424.864C322.724 424.864 323.337 424.624 323.785 424.144C324.233 423.664 324.457 422.965 324.457 422.048V417.232H325.913ZM332.733 421.584C332.733 420.688 332.915 419.904 333.277 419.232C333.64 418.549 334.136 418.021 334.765 417.648C335.405 417.275 336.115 417.088 336.893 417.088C337.661 417.088 338.328 417.253 338.893 417.584C339.459 417.915 339.88 418.331 340.157 418.832V417.232H341.629V426H340.157V424.368C339.869 424.88 339.437 425.307 338.861 425.648C338.296 425.979 337.635 426.144 336.877 426.144C336.099 426.144 335.395 425.952 334.765 425.568C334.136 425.184 333.64 424.645 333.277 423.952C332.915 423.259 332.733 422.469 332.733 421.584ZM340.157 421.6C340.157 420.939 340.024 420.363 339.757 419.872C339.491 419.381 339.128 419.008 338.669 418.752C338.221 418.485 337.725 418.352 337.181 418.352C336.637 418.352 336.141 418.48 335.693 418.736C335.245 418.992 334.888 419.365 334.621 419.856C334.355 420.347 334.221 420.923 334.221 421.584C334.221 422.256 334.355 422.843 334.621 423.344C334.888 423.835 335.245 424.213 335.693 424.48C336.141 424.736 336.637 424.864 337.181 424.864C337.725 424.864 338.221 424.736 338.669 424.48C339.128 424.213 339.491 423.835 339.757 423.344C340.024 422.843 340.157 422.261 340.157 421.6ZM79.4852 430.16V442H78.0292V430.16H79.4852ZM83.0387 431.808C82.7614 431.808 82.5267 431.712 82.3347 431.52C82.1427 431.328 82.0467 431.093 82.0467 430.816C82.0467 430.539 82.1427 430.304 82.3347 430.112C82.5267 429.92 82.7614 429.824 83.0387 429.824C83.3054 429.824 83.5294 429.92 83.7107 430.112C83.9027 430.304 83.9987 430.539 83.9987 430.816C83.9987 431.093 83.9027 431.328 83.7107 431.52C83.5294 431.712 83.3054 431.808 83.0387 431.808ZM83.7427 433.232V442H82.2867V433.232H83.7427ZM90.8162 433.072C91.8829 433.072 92.7469 433.397 93.4082 434.048C94.0695 434.688 94.4002 435.616 94.4002 436.832V442H92.9602V437.04C92.9602 436.165 92.7415 435.499 92.3042 435.04C91.8669 434.571 91.2695 434.336 90.5122 434.336C89.7442 434.336 89.1309 434.576 88.6722 435.056C88.2242 435.536 88.0002 436.235 88.0002 437.152V442H86.5442V433.232H88.0002V434.48C88.2882 434.032 88.6775 433.685 89.1682 433.44C89.6695 433.195 90.2189 433.072 90.8162 433.072ZM101.995 442L98.5546 438.128V442H97.0986V430.16H98.5546V437.12L101.931 433.232H103.963L99.8346 437.6L103.979 442H101.995ZM112.015 434.432V439.6C112.015 440.027 112.105 440.331 112.287 440.512C112.468 440.683 112.783 440.768 113.231 440.768H114.303V442H112.991C112.18 442 111.572 441.813 111.167 441.44C110.761 441.067 110.559 440.453 110.559 439.6V434.432H109.423V433.232H110.559V431.024H112.015V433.232H114.303V434.432H112.015ZM120.211 442.144C119.389 442.144 118.643 441.957 117.971 441.584C117.309 441.211 116.787 440.683 116.403 440C116.029 439.307 115.843 438.507 115.843 437.6C115.843 436.704 116.035 435.915 116.419 435.232C116.813 434.539 117.347 434.011 118.019 433.648C118.691 433.275 119.443 433.088 120.275 433.088C121.107 433.088 121.859 433.275 122.531 433.648C123.203 434.011 123.731 434.533 124.115 435.216C124.509 435.899 124.707 436.693 124.707 437.6C124.707 438.507 124.504 439.307 124.099 440C123.704 440.683 123.165 441.211 122.483 441.584C121.8 441.957 121.043 442.144 120.211 442.144ZM120.211 440.864C120.733 440.864 121.224 440.741 121.683 440.496C122.141 440.251 122.509 439.883 122.787 439.392C123.075 438.901 123.219 438.304 123.219 437.6C123.219 436.896 123.08 436.299 122.803 435.808C122.525 435.317 122.163 434.955 121.715 434.72C121.267 434.475 120.781 434.352 120.259 434.352C119.725 434.352 119.235 434.475 118.787 434.72C118.349 434.955 117.997 435.317 117.731 435.808C117.464 436.299 117.331 436.896 117.331 437.6C117.331 438.315 117.459 438.917 117.715 439.408C117.981 439.899 118.333 440.267 118.771 440.512C119.208 440.747 119.688 440.864 120.211 440.864ZM132.983 434.656C133.239 434.155 133.601 433.765 134.071 433.488C134.551 433.211 135.132 433.072 135.815 433.072V434.576H135.431C133.799 434.576 132.983 435.461 132.983 437.232V442H131.527V433.232H132.983V434.656ZM145.815 437.28C145.815 437.557 145.799 437.851 145.767 438.16H138.759C138.813 439.024 139.106 439.701 139.639 440.192C140.183 440.672 140.839 440.912 141.607 440.912C142.237 440.912 142.759 440.768 143.175 440.48C143.602 440.181 143.901 439.787 144.071 439.296H145.639C145.405 440.139 144.935 440.827 144.231 441.36C143.527 441.883 142.653 442.144 141.607 442.144C140.775 442.144 140.029 441.957 139.367 441.584C138.717 441.211 138.205 440.683 137.831 440C137.458 439.307 137.271 438.507 137.271 437.6C137.271 436.693 137.453 435.899 137.815 435.216C138.178 434.533 138.685 434.011 139.335 433.648C139.997 433.275 140.754 433.088 141.607 433.088C142.439 433.088 143.175 433.269 143.815 433.632C144.455 433.995 144.946 434.496 145.287 435.136C145.639 435.765 145.815 436.48 145.815 437.28ZM144.311 436.976C144.311 436.421 144.189 435.947 143.943 435.552C143.698 435.147 143.362 434.843 142.935 434.64C142.519 434.427 142.055 434.32 141.543 434.32C140.807 434.32 140.178 434.555 139.655 435.024C139.143 435.493 138.85 436.144 138.775 436.976H144.311ZM151.161 442.144C150.489 442.144 149.887 442.032 149.353 441.808C148.82 441.573 148.399 441.253 148.089 440.848C147.78 440.432 147.609 439.957 147.577 439.424H149.081C149.124 439.861 149.327 440.219 149.689 440.496C150.063 440.773 150.548 440.912 151.145 440.912C151.7 440.912 152.137 440.789 152.457 440.544C152.777 440.299 152.937 439.989 152.937 439.616C152.937 439.232 152.767 438.949 152.425 438.768C152.084 438.576 151.556 438.389 150.841 438.208C150.191 438.037 149.657 437.867 149.241 437.696C148.836 437.515 148.484 437.253 148.185 436.912C147.897 436.56 147.753 436.101 147.753 435.536C147.753 435.088 147.887 434.677 148.153 434.304C148.42 433.931 148.799 433.637 149.289 433.424C149.78 433.2 150.34 433.088 150.969 433.088C151.94 433.088 152.724 433.333 153.321 433.824C153.919 434.315 154.239 434.987 154.281 435.84H152.825C152.793 435.381 152.607 435.013 152.265 434.736C151.935 434.459 151.487 434.32 150.921 434.32C150.399 434.32 149.983 434.432 149.673 434.656C149.364 434.88 149.209 435.173 149.209 435.536C149.209 435.824 149.3 436.064 149.481 436.256C149.673 436.437 149.908 436.587 150.185 436.704C150.473 436.811 150.868 436.933 151.369 437.072C151.999 437.243 152.511 437.413 152.905 437.584C153.3 437.744 153.636 437.989 153.913 438.32C154.201 438.651 154.351 439.083 154.361 439.616C154.361 440.096 154.228 440.528 153.961 440.912C153.695 441.296 153.316 441.6 152.825 441.824C152.345 442.037 151.791 442.144 151.161 442.144ZM164.737 437.28C164.737 437.557 164.721 437.851 164.689 438.16H157.681C157.734 439.024 158.027 439.701 158.561 440.192C159.105 440.672 159.761 440.912 160.529 440.912C161.158 440.912 161.681 440.768 162.097 440.48C162.523 440.181 162.822 439.787 162.993 439.296H164.561C164.326 440.139 163.857 440.827 163.153 441.36C162.449 441.883 161.574 442.144 160.529 442.144C159.697 442.144 158.95 441.957 158.289 441.584C157.638 441.211 157.126 440.683 156.753 440C156.379 439.307 156.193 438.507 156.193 437.6C156.193 436.693 156.374 435.899 156.737 435.216C157.099 434.533 157.606 434.011 158.257 433.648C158.918 433.275 159.675 433.088 160.529 433.088C161.361 433.088 162.097 433.269 162.737 433.632C163.377 433.995 163.867 434.496 164.209 435.136C164.561 435.765 164.737 436.48 164.737 437.28ZM163.233 436.976C163.233 436.421 163.11 435.947 162.865 435.552C162.619 435.147 162.283 434.843 161.857 434.64C161.441 434.427 160.977 434.32 160.465 434.32C159.729 434.32 159.099 434.555 158.577 435.024C158.065 435.493 157.771 436.144 157.697 436.976H163.233ZM168.755 434.432V439.6C168.755 440.027 168.845 440.331 169.027 440.512C169.208 440.683 169.523 440.768 169.971 440.768H171.043V442H169.731C168.92 442 168.312 441.813 167.907 441.44C167.501 441.067 167.299 440.453 167.299 439.6V434.432H166.163V433.232H167.299V431.024H168.755V433.232H171.043V434.432H168.755ZM185.264 433.232L179.984 446.128H178.48L180.208 441.904L176.672 433.232H178.288L181.04 440.336L183.76 433.232H185.264ZM190.872 442.144C190.051 442.144 189.304 441.957 188.632 441.584C187.971 441.211 187.448 440.683 187.064 440C186.691 439.307 186.504 438.507 186.504 437.6C186.504 436.704 186.696 435.915 187.08 435.232C187.475 434.539 188.008 434.011 188.68 433.648C189.352 433.275 190.104 433.088 190.936 433.088C191.768 433.088 192.52 433.275 193.192 433.648C193.864 434.011 194.392 434.533 194.776 435.216C195.171 435.899 195.368 436.693 195.368 437.6C195.368 438.507 195.165 439.307 194.76 440C194.365 440.683 193.827 441.211 193.144 441.584C192.461 441.957 191.704 442.144 190.872 442.144ZM190.872 440.864C191.395 440.864 191.885 440.741 192.344 440.496C192.803 440.251 193.171 439.883 193.448 439.392C193.736 438.901 193.88 438.304 193.88 437.6C193.88 436.896 193.741 436.299 193.464 435.808C193.187 435.317 192.824 434.955 192.376 434.72C191.928 434.475 191.443 434.352 190.92 434.352C190.387 434.352 189.896 434.475 189.448 434.72C189.011 434.955 188.659 435.317 188.392 435.808C188.125 436.299 187.992 436.896 187.992 437.6C187.992 438.315 188.12 438.917 188.376 439.408C188.643 439.899 188.995 440.267 189.432 440.512C189.869 440.747 190.349 440.864 190.872 440.864ZM205.378 433.232V442H203.922V440.704C203.645 441.152 203.256 441.504 202.754 441.76C202.264 442.005 201.72 442.128 201.122 442.128C200.44 442.128 199.826 441.989 199.282 441.712C198.738 441.424 198.306 440.997 197.986 440.432C197.677 439.867 197.522 439.179 197.522 438.368V433.232H198.962V438.176C198.962 439.04 199.181 439.707 199.618 440.176C200.056 440.635 200.653 440.864 201.41 440.864C202.189 440.864 202.802 440.624 203.25 440.144C203.698 439.664 203.922 438.965 203.922 438.048V433.232H205.378ZM209.613 434.656C209.869 434.155 210.231 433.765 210.701 433.488C211.181 433.211 211.762 433.072 212.445 433.072V434.576H212.061C210.429 434.576 209.613 435.461 209.613 437.232V442H208.157V433.232H209.613V434.656ZM220.487 434.848C220.775 434.347 221.202 433.931 221.767 433.6C222.343 433.259 223.01 433.088 223.767 433.088C224.546 433.088 225.25 433.275 225.879 433.648C226.519 434.021 227.02 434.549 227.383 435.232C227.746 435.904 227.927 436.688 227.927 437.584C227.927 438.469 227.746 439.259 227.383 439.952C227.02 440.645 226.519 441.184 225.879 441.568C225.25 441.952 224.546 442.144 223.767 442.144C223.02 442.144 222.359 441.979 221.783 441.648C221.218 441.307 220.786 440.885 220.487 440.384V446.16H219.031V433.232H220.487V434.848ZM226.439 437.584C226.439 436.923 226.306 436.347 226.039 435.856C225.772 435.365 225.41 434.992 224.951 434.736C224.503 434.48 224.007 434.352 223.463 434.352C222.93 434.352 222.434 434.485 221.975 434.752C221.527 435.008 221.164 435.387 220.887 435.888C220.62 436.379 220.487 436.949 220.487 437.6C220.487 438.261 220.62 438.843 220.887 439.344C221.164 439.835 221.527 440.213 221.975 440.48C222.434 440.736 222.93 440.864 223.463 440.864C224.007 440.864 224.503 440.736 224.951 440.48C225.41 440.213 225.772 439.835 226.039 439.344C226.306 438.843 226.439 438.256 226.439 437.584ZM229.62 437.584C229.62 436.688 229.801 435.904 230.164 435.232C230.526 434.549 231.022 434.021 231.652 433.648C232.292 433.275 233.001 433.088 233.78 433.088C234.548 433.088 235.214 433.253 235.78 433.584C236.345 433.915 236.766 434.331 237.044 434.832V433.232H238.516V442H237.044V440.368C236.756 440.88 236.324 441.307 235.748 441.648C235.182 441.979 234.521 442.144 233.764 442.144C232.985 442.144 232.281 441.952 231.652 441.568C231.022 441.184 230.526 440.645 230.164 439.952C229.801 439.259 229.62 438.469 229.62 437.584ZM237.044 437.6C237.044 436.939 236.91 436.363 236.644 435.872C236.377 435.381 236.014 435.008 235.556 434.752C235.108 434.485 234.612 434.352 234.068 434.352C233.524 434.352 233.028 434.48 232.58 434.736C232.132 434.992 231.774 435.365 231.508 435.856C231.241 436.347 231.108 436.923 231.108 437.584C231.108 438.256 231.241 438.843 231.508 439.344C231.774 439.835 232.132 440.213 232.58 440.48C233.028 440.736 233.524 440.864 234.068 440.864C234.612 440.864 235.108 440.736 235.556 440.48C236.014 440.213 236.377 439.835 236.644 439.344C236.91 438.843 237.044 438.261 237.044 437.6ZM244.4 442.144C243.728 442.144 243.125 442.032 242.592 441.808C242.059 441.573 241.637 441.253 241.328 440.848C241.019 440.432 240.848 439.957 240.816 439.424H242.32C242.363 439.861 242.565 440.219 242.928 440.496C243.301 440.773 243.787 440.912 244.384 440.912C244.939 440.912 245.376 440.789 245.696 440.544C246.016 440.299 246.176 439.989 246.176 439.616C246.176 439.232 246.005 438.949 245.664 438.768C245.323 438.576 244.795 438.389 244.08 438.208C243.429 438.037 242.896 437.867 242.48 437.696C242.075 437.515 241.723 437.253 241.424 436.912C241.136 436.56 240.992 436.101 240.992 435.536C240.992 435.088 241.125 434.677 241.392 434.304C241.659 433.931 242.037 433.637 242.528 433.424C243.019 433.2 243.579 433.088 244.208 433.088C245.179 433.088 245.963 433.333 246.56 433.824C247.157 434.315 247.477 434.987 247.52 435.84H246.064C246.032 435.381 245.845 435.013 245.504 434.736C245.173 434.459 244.725 434.32 244.16 434.32C243.637 434.32 243.221 434.432 242.912 434.656C242.603 434.88 242.448 435.173 242.448 435.536C242.448 435.824 242.539 436.064 242.72 436.256C242.912 436.437 243.147 436.587 243.424 436.704C243.712 436.811 244.107 436.933 244.608 437.072C245.237 437.243 245.749 437.413 246.144 437.584C246.539 437.744 246.875 437.989 247.152 438.32C247.44 438.651 247.589 439.083 247.6 439.616C247.6 440.096 247.467 440.528 247.2 440.912C246.933 441.296 246.555 441.6 246.064 441.824C245.584 442.037 245.029 442.144 244.4 442.144ZM253.079 442.144C252.407 442.144 251.805 442.032 251.271 441.808C250.738 441.573 250.317 441.253 250.007 440.848C249.698 440.432 249.527 439.957 249.495 439.424H250.999C251.042 439.861 251.245 440.219 251.607 440.496C251.981 440.773 252.466 440.912 253.063 440.912C253.618 440.912 254.055 440.789 254.375 440.544C254.695 440.299 254.855 439.989 254.855 439.616C254.855 439.232 254.685 438.949 254.343 438.768C254.002 438.576 253.474 438.389 252.759 438.208C252.109 438.037 251.575 437.867 251.159 437.696C250.754 437.515 250.402 437.253 250.103 436.912C249.815 436.56 249.671 436.101 249.671 435.536C249.671 435.088 249.805 434.677 250.071 434.304C250.338 433.931 250.717 433.637 251.207 433.424C251.698 433.2 252.258 433.088 252.887 433.088C253.858 433.088 254.642 433.333 255.239 433.824C255.837 434.315 256.157 434.987 256.199 435.84H254.743C254.711 435.381 254.525 435.013 254.183 434.736C253.853 434.459 253.405 434.32 252.839 434.32C252.317 434.32 251.901 434.432 251.591 434.656C251.282 434.88 251.127 435.173 251.127 435.536C251.127 435.824 251.218 436.064 251.399 436.256C251.591 436.437 251.826 436.587 252.103 436.704C252.391 436.811 252.786 436.933 253.287 437.072C253.917 437.243 254.429 437.413 254.823 437.584C255.218 437.744 255.554 437.989 255.831 438.32C256.119 438.651 256.269 439.083 256.279 439.616C256.279 440.096 256.146 440.528 255.879 440.912C255.613 441.296 255.234 441.6 254.743 441.824C254.263 442.037 253.709 442.144 253.079 442.144ZM270.335 433.232L267.599 442H266.095L263.983 435.04L261.871 442H260.367L257.615 433.232H259.103L261.119 440.592L263.295 433.232H264.783L266.911 440.608L268.895 433.232H270.335ZM275.924 442.144C275.102 442.144 274.356 441.957 273.684 441.584C273.022 441.211 272.5 440.683 272.116 440C271.742 439.307 271.556 438.507 271.556 437.6C271.556 436.704 271.748 435.915 272.132 435.232C272.526 434.539 273.06 434.011 273.732 433.648C274.404 433.275 275.156 433.088 275.988 433.088C276.82 433.088 277.572 433.275 278.244 433.648C278.916 434.011 279.444 434.533 279.828 435.216C280.222 435.899 280.42 436.693 280.42 437.6C280.42 438.507 280.217 439.307 279.812 440C279.417 440.683 278.878 441.211 278.196 441.584C277.513 441.957 276.756 442.144 275.924 442.144ZM275.924 440.864C276.446 440.864 276.937 440.741 277.396 440.496C277.854 440.251 278.222 439.883 278.5 439.392C278.788 438.901 278.932 438.304 278.932 437.6C278.932 436.896 278.793 436.299 278.516 435.808C278.238 435.317 277.876 434.955 277.428 434.72C276.98 434.475 276.494 434.352 275.972 434.352C275.438 434.352 274.948 434.475 274.5 434.72C274.062 434.955 273.71 435.317 273.444 435.808C273.177 436.299 273.044 436.896 273.044 437.6C273.044 438.315 273.172 438.917 273.428 439.408C273.694 439.899 274.046 440.267 274.484 440.512C274.921 440.747 275.401 440.864 275.924 440.864ZM284.11 434.656C284.366 434.155 284.729 433.765 285.198 433.488C285.678 433.211 286.26 433.072 286.942 433.072V434.576H286.558C284.926 434.576 284.11 435.461 284.11 437.232V442H282.654V433.232H284.11V434.656ZM288.399 437.584C288.399 436.688 288.58 435.904 288.943 435.232C289.306 434.549 289.802 434.021 290.431 433.648C291.071 433.275 291.786 433.088 292.575 433.088C293.258 433.088 293.892 433.248 294.479 433.568C295.066 433.877 295.514 434.288 295.823 434.8V430.16H297.295V442H295.823V440.352C295.535 440.875 295.108 441.307 294.543 441.648C293.978 441.979 293.316 442.144 292.559 442.144C291.78 442.144 291.071 441.952 290.431 441.568C289.802 441.184 289.306 440.645 288.943 439.952C288.58 439.259 288.399 438.469 288.399 437.584ZM295.823 437.6C295.823 436.939 295.69 436.363 295.423 435.872C295.156 435.381 294.794 435.008 294.335 434.752C293.887 434.485 293.391 434.352 292.847 434.352C292.303 434.352 291.807 434.48 291.359 434.736C290.911 434.992 290.554 435.365 290.287 435.856C290.02 436.347 289.887 436.923 289.887 437.584C289.887 438.256 290.02 438.843 290.287 439.344C290.554 439.835 290.911 440.213 291.359 440.48C291.807 440.736 292.303 440.864 292.847 440.864C293.391 440.864 293.887 440.736 294.335 440.48C294.794 440.213 295.156 439.835 295.423 439.344C295.69 438.843 295.823 438.261 295.823 437.6ZM300.539 442.096C300.262 442.096 300.027 442 299.835 441.808C299.643 441.616 299.547 441.381 299.547 441.104C299.547 440.827 299.643 440.592 299.835 440.4C300.027 440.208 300.262 440.112 300.539 440.112C300.806 440.112 301.03 440.208 301.211 440.4C301.403 440.592 301.499 440.827 301.499 441.104C301.499 441.381 301.403 441.616 301.211 441.808C301.03 442 300.806 442.096 300.539 442.096Z" fill="black"/>
<rect x="147.5" y="245.5" width="84" height="84" rx="10.5" fill="#FAEEDA" stroke="#FFD110"/>
<path d="M96.1734 374.248V376.96H89.1894V381.256H94.5414V383.92H89.1894V391H85.8294V374.248H96.1734ZM104.94 391.216C103.66 391.216 102.508 390.936 101.484 390.376C100.46 389.8 99.652 388.992 99.06 387.952C98.484 386.912 98.196 385.712 98.196 384.352C98.196 382.992 98.492 381.792 99.084 380.752C99.692 379.712 100.516 378.912 101.556 378.352C102.596 377.776 103.756 377.488 105.036 377.488C106.316 377.488 107.476 377.776 108.516 378.352C109.556 378.912 110.372 379.712 110.964 380.752C111.572 381.792 111.876 382.992 111.876 384.352C111.876 385.712 111.564 386.912 110.94 387.952C110.332 388.992 109.5 389.8 108.444 390.376C107.404 390.936 106.236 391.216 104.94 391.216ZM104.94 388.288C105.548 388.288 106.116 388.144 106.644 387.856C107.188 387.552 107.62 387.104 107.94 386.512C108.26 385.92 108.42 385.2 108.42 384.352C108.42 383.088 108.084 382.12 107.412 381.448C106.756 380.76 105.948 380.416 104.988 380.416C104.028 380.416 103.22 380.76 102.564 381.448C101.924 382.12 101.604 383.088 101.604 384.352C101.604 385.616 101.916 386.592 102.54 387.28C103.18 387.952 103.98 388.288 104.94 388.288ZM118.181 379.768C118.613 379.064 119.173 378.512 119.861 378.112C120.565 377.712 121.365 377.512 122.261 377.512V381.04H121.373C120.317 381.04 119.517 381.288 118.973 381.784C118.445 382.28 118.181 383.144 118.181 384.376V391H114.821V377.704H118.181V379.768ZM130.212 377.488C131.204 377.488 132.076 377.688 132.828 378.088C133.58 378.472 134.172 378.976 134.604 379.6V377.704H137.988V391.096C137.988 392.328 137.74 393.424 137.244 394.384C136.748 395.36 136.004 396.128 135.012 396.688C134.02 397.264 132.82 397.552 131.412 397.552C129.524 397.552 127.972 397.112 126.756 396.232C125.556 395.352 124.876 394.152 124.716 392.632H128.052C128.228 393.24 128.604 393.72 129.18 394.072C129.772 394.44 130.484 394.624 131.316 394.624C132.292 394.624 133.084 394.328 133.692 393.736C134.3 393.16 134.604 392.28 134.604 391.096V389.032C134.172 389.656 133.572 390.176 132.804 390.592C132.052 391.008 131.188 391.216 130.212 391.216C129.092 391.216 128.068 390.928 127.14 390.352C126.212 389.776 125.476 388.968 124.932 387.928C124.404 386.872 124.14 385.664 124.14 384.304C124.14 382.96 124.404 381.768 124.932 380.728C125.476 379.688 126.204 378.888 127.116 378.328C128.044 377.768 129.076 377.488 130.212 377.488ZM134.604 384.352C134.604 383.536 134.444 382.84 134.124 382.264C133.804 381.672 133.372 381.224 132.828 380.92C132.284 380.6 131.7 380.44 131.076 380.44C130.452 380.44 129.876 380.592 129.348 380.896C128.82 381.2 128.388 381.648 128.052 382.24C127.732 382.816 127.572 383.504 127.572 384.304C127.572 385.104 127.732 385.808 128.052 386.416C128.388 387.008 128.82 387.464 129.348 387.784C129.892 388.104 130.468 388.264 131.076 388.264C131.7 388.264 132.284 388.112 132.828 387.808C133.372 387.488 133.804 387.04 134.124 386.464C134.444 385.872 134.604 385.168 134.604 384.352ZM147.653 391.216C146.373 391.216 145.221 390.936 144.197 390.376C143.173 389.8 142.365 388.992 141.773 387.952C141.197 386.912 140.909 385.712 140.909 384.352C140.909 382.992 141.205 381.792 141.797 380.752C142.405 379.712 143.229 378.912 144.269 378.352C145.309 377.776 146.469 377.488 147.749 377.488C149.029 377.488 150.189 377.776 151.229 378.352C152.269 378.912 153.085 379.712 153.677 380.752C154.285 381.792 154.589 382.992 154.589 384.352C154.589 385.712 154.277 386.912 153.653 387.952C153.045 388.992 152.213 389.8 151.157 390.376C150.117 390.936 148.949 391.216 147.653 391.216ZM147.653 388.288C148.261 388.288 148.829 388.144 149.357 387.856C149.901 387.552 150.333 387.104 150.653 386.512C150.973 385.92 151.133 385.2 151.133 384.352C151.133 383.088 150.797 382.12 150.125 381.448C149.469 380.76 148.661 380.416 147.701 380.416C146.741 380.416 145.933 380.76 145.277 381.448C144.637 382.12 144.317 383.088 144.317 384.352C144.317 385.616 144.629 386.592 145.253 387.28C145.893 387.952 146.693 388.288 147.653 388.288ZM161.446 380.464V386.896C161.446 387.344 161.55 387.672 161.758 387.88C161.982 388.072 162.35 388.168 162.862 388.168H164.422V391H162.31C159.478 391 158.062 389.624 158.062 386.872V380.464H156.478V377.704H158.062V374.416H161.446V377.704H164.422V380.464H161.446ZM176.878 379.624C177.31 379.016 177.902 378.512 178.654 378.112C179.422 377.696 180.294 377.488 181.27 377.488C182.406 377.488 183.43 377.768 184.342 378.328C185.27 378.888 185.998 379.688 186.526 380.728C187.07 381.752 187.342 382.944 187.342 384.304C187.342 385.664 187.07 386.872 186.526 387.928C185.998 388.968 185.27 389.776 184.342 390.352C183.43 390.928 182.406 391.216 181.27 391.216C180.294 391.216 179.43 391.016 178.678 390.616C177.942 390.216 177.342 389.712 176.878 389.104V397.336H173.518V377.704H176.878V379.624ZM183.91 384.304C183.91 383.504 183.742 382.816 183.406 382.24C183.086 381.648 182.654 381.2 182.11 380.896C181.582 380.592 181.006 380.44 180.382 380.44C179.774 380.44 179.198 380.6 178.654 380.92C178.126 381.224 177.694 381.672 177.358 382.264C177.038 382.856 176.878 383.552 176.878 384.352C176.878 385.152 177.038 385.848 177.358 386.44C177.694 387.032 178.126 387.488 178.654 387.808C179.198 388.112 179.774 388.264 180.382 388.264C181.006 388.264 181.582 388.104 182.11 387.784C182.654 387.464 183.086 387.008 183.406 386.416C183.742 385.824 183.91 385.12 183.91 384.304ZM189.399 384.304C189.399 382.96 189.663 381.768 190.191 380.728C190.735 379.688 191.463 378.888 192.375 378.328C193.303 377.768 194.335 377.488 195.471 377.488C196.463 377.488 197.327 377.688 198.063 378.088C198.815 378.488 199.415 378.992 199.863 379.6V377.704H203.247V391H199.863V389.056C199.431 389.68 198.831 390.2 198.063 390.616C197.311 391.016 196.439 391.216 195.447 391.216C194.327 391.216 193.303 390.928 192.375 390.352C191.463 389.776 190.735 388.968 190.191 387.928C189.663 386.872 189.399 385.664 189.399 384.304ZM199.863 384.352C199.863 383.536 199.703 382.84 199.383 382.264C199.063 381.672 198.631 381.224 198.087 380.92C197.543 380.6 196.959 380.44 196.335 380.44C195.711 380.44 195.135 380.592 194.607 380.896C194.079 381.2 193.647 381.648 193.311 382.24C192.991 382.816 192.831 383.504 192.831 384.304C192.831 385.104 192.991 385.808 193.311 386.416C193.647 387.008 194.079 387.464 194.607 387.784C195.151 388.104 195.727 388.264 196.335 388.264C196.959 388.264 197.543 388.112 198.087 387.808C198.631 387.488 199.063 387.04 199.383 386.464C199.703 385.872 199.863 385.168 199.863 384.352ZM212.097 391.216C211.009 391.216 210.033 391.024 209.169 390.64C208.305 390.24 207.617 389.704 207.105 389.032C206.609 388.36 206.337 387.616 206.289 386.8H209.673C209.737 387.312 209.985 387.736 210.417 388.072C210.865 388.408 211.417 388.576 212.073 388.576C212.713 388.576 213.209 388.448 213.561 388.192C213.929 387.936 214.113 387.608 214.113 387.208C214.113 386.776 213.889 386.456 213.441 386.248C213.009 386.024 212.313 385.784 211.353 385.528C210.361 385.288 209.545 385.04 208.905 384.784C208.281 384.528 207.737 384.136 207.273 383.608C206.825 383.08 206.601 382.368 206.601 381.472C206.601 380.736 206.809 380.064 207.225 379.456C207.657 378.848 208.265 378.368 209.049 378.016C209.849 377.664 210.785 377.488 211.857 377.488C213.441 377.488 214.705 377.888 215.649 378.688C216.593 379.472 217.113 380.536 217.209 381.88H213.993C213.945 381.352 213.721 380.936 213.321 380.632C212.937 380.312 212.417 380.152 211.761 380.152C211.153 380.152 210.681 380.264 210.345 380.488C210.025 380.712 209.865 381.024 209.865 381.424C209.865 381.872 210.089 382.216 210.537 382.456C210.985 382.68 211.681 382.912 212.625 383.152C213.585 383.392 214.377 383.64 215.001 383.896C215.625 384.152 216.161 384.552 216.609 385.096C217.073 385.624 217.313 386.328 217.329 387.208C217.329 387.976 217.113 388.664 216.681 389.272C216.265 389.88 215.657 390.36 214.857 390.712C214.073 391.048 213.153 391.216 212.097 391.216ZM225.655 391.216C224.567 391.216 223.591 391.024 222.727 390.64C221.863 390.24 221.175 389.704 220.663 389.032C220.167 388.36 219.895 387.616 219.847 386.8H223.231C223.295 387.312 223.543 387.736 223.975 388.072C224.423 388.408 224.975 388.576 225.631 388.576C226.271 388.576 226.767 388.448 227.119 388.192C227.487 387.936 227.671 387.608 227.671 387.208C227.671 386.776 227.447 386.456 226.999 386.248C226.567 386.024 225.871 385.784 224.911 385.528C223.919 385.288 223.103 385.04 222.463 384.784C221.839 384.528 221.295 384.136 220.831 383.608C220.383 383.08 220.159 382.368 220.159 381.472C220.159 380.736 220.367 380.064 220.783 379.456C221.215 378.848 221.823 378.368 222.607 378.016C223.407 377.664 224.343 377.488 225.415 377.488C226.999 377.488 228.263 377.888 229.207 378.688C230.151 379.472 230.671 380.536 230.767 381.88H227.551C227.503 381.352 227.279 380.936 226.879 380.632C226.495 380.312 225.975 380.152 225.319 380.152C224.711 380.152 224.239 380.264 223.903 380.488C223.583 380.712 223.423 381.024 223.423 381.424C223.423 381.872 223.647 382.216 224.095 382.456C224.543 382.68 225.239 382.912 226.183 383.152C227.143 383.392 227.935 383.64 228.559 383.896C229.183 384.152 229.719 384.552 230.167 385.096C230.631 385.624 230.871 386.328 230.887 387.208C230.887 387.976 230.671 388.664 230.239 389.272C229.823 389.88 229.215 390.36 228.415 390.712C227.631 391.048 226.711 391.216 225.655 391.216ZM252.557 377.704L248.669 391H245.045L242.621 381.712L240.197 391H236.549L232.637 377.704H236.045L238.397 387.832L240.941 377.704H244.493L246.989 387.808L249.341 377.704H252.557ZM260.759 391.216C259.479 391.216 258.327 390.936 257.303 390.376C256.279 389.8 255.471 388.992 254.879 387.952C254.303 386.912 254.015 385.712 254.015 384.352C254.015 382.992 254.311 381.792 254.903 380.752C255.511 379.712 256.335 378.912 257.375 378.352C258.415 377.776 259.575 377.488 260.855 377.488C262.135 377.488 263.295 377.776 264.335 378.352C265.375 378.912 266.191 379.712 266.783 380.752C267.391 381.792 267.695 382.992 267.695 384.352C267.695 385.712 267.383 386.912 266.759 387.952C266.151 388.992 265.319 389.8 264.263 390.376C263.223 390.936 262.055 391.216 260.759 391.216ZM260.759 388.288C261.367 388.288 261.935 388.144 262.463 387.856C263.007 387.552 263.439 387.104 263.759 386.512C264.079 385.92 264.239 385.2 264.239 384.352C264.239 383.088 263.903 382.12 263.231 381.448C262.575 380.76 261.767 380.416 260.807 380.416C259.847 380.416 259.039 380.76 258.383 381.448C257.743 382.12 257.423 383.088 257.423 384.352C257.423 385.616 257.735 386.592 258.359 387.28C258.999 387.952 259.799 388.288 260.759 388.288ZM274 379.768C274.432 379.064 274.992 378.512 275.68 378.112C276.384 377.712 277.184 377.512 278.08 377.512V381.04H277.192C276.136 381.04 275.336 381.288 274.792 381.784C274.264 382.28 274 383.144 274 384.376V391H270.64V377.704H274V379.768ZM279.959 384.304C279.959 382.96 280.223 381.768 280.751 380.728C281.295 379.688 282.031 378.888 282.959 378.328C283.887 377.768 284.919 377.488 286.055 377.488C286.919 377.488 287.743 377.68 288.527 378.064C289.311 378.432 289.935 378.928 290.399 379.552V373.24H293.807V391H290.399V389.032C289.983 389.688 289.399 390.216 288.647 390.616C287.895 391.016 287.023 391.216 286.031 391.216C284.911 391.216 283.887 390.928 282.959 390.352C282.031 389.776 281.295 388.968 280.751 387.928C280.223 386.872 279.959 385.664 279.959 384.304ZM290.423 384.352C290.423 383.536 290.263 382.84 289.943 382.264C289.623 381.672 289.191 381.224 288.647 380.92C288.103 380.6 287.519 380.44 286.895 380.44C286.271 380.44 285.695 380.592 285.167 380.896C284.639 381.2 284.207 381.648 283.871 382.24C283.551 382.816 283.391 383.504 283.391 384.304C283.391 385.104 283.551 385.808 283.871 386.416C284.207 387.008 284.639 387.464 285.167 387.784C285.711 388.104 286.287 388.264 286.895 388.264C287.519 388.264 288.103 388.112 288.647 387.808C289.191 387.488 289.623 387.04 289.943 386.464C290.263 385.872 290.423 385.168 290.423 384.352ZM302.249 373.672C303.913 373.672 305.249 374.128 306.257 375.04C307.281 375.936 307.793 377.176 307.793 378.76C307.793 380.328 307.289 381.528 306.281 382.36C305.273 383.176 303.937 383.584 302.273 383.584L302.177 385.432H299.225L299.105 381.352H300.185C301.577 381.352 302.649 381.168 303.401 380.8C304.153 380.432 304.529 379.76 304.529 378.784C304.529 378.08 304.321 377.52 303.905 377.104C303.505 376.688 302.953 376.48 302.249 376.48C301.513 376.48 300.937 376.68 300.521 377.08C300.121 377.48 299.921 378.032 299.921 378.736H296.753C296.737 377.76 296.945 376.888 297.377 376.12C297.809 375.352 298.441 374.752 299.273 374.32C300.121 373.888 301.113 373.672 302.249 373.672ZM300.689 391.168C300.081 391.168 299.577 390.984 299.177 390.616C298.793 390.232 298.601 389.76 298.601 389.2C298.601 388.64 298.793 388.176 299.177 387.808C299.577 387.424 300.081 387.232 300.689 387.232C301.281 387.232 301.769 387.424 302.153 387.808C302.537 388.176 302.729 388.64 302.729 389.2C302.729 389.76 302.537 390.232 302.153 390.616C301.769 390.984 301.281 391.168 300.689 391.168Z" fill="black"/>
<path d="M189.049 267.88C193.401 267.88 196.879 269.075 199.481 271.464C202.127 273.853 203.449 277.117 203.449 281.256C203.449 285.565 202.084 288.808 199.353 290.984C196.623 293.16 192.996 294.248 188.473 294.248L188.217 299.304H181.881L181.561 289.256H183.673C187.812 289.256 190.969 288.701 193.145 287.592C195.364 286.483 196.473 284.371 196.473 281.256C196.473 278.995 195.812 277.224 194.489 275.944C193.209 274.664 191.417 274.024 189.113 274.024C186.809 274.024 184.996 274.643 183.673 275.88C182.351 277.117 181.689 278.845 181.689 281.064H174.841C174.841 278.504 175.417 276.221 176.569 274.216C177.721 272.211 179.364 270.653 181.497 269.544C183.673 268.435 186.191 267.88 189.049 267.88ZM184.953 313.448C183.631 313.448 182.521 313 181.625 312.104C180.729 311.208 180.281 310.099 180.281 308.776C180.281 307.453 180.729 306.344 181.625 305.448C182.521 304.552 183.631 304.104 184.953 304.104C186.233 304.104 187.321 304.552 188.217 305.448C189.113 306.344 189.561 307.453 189.561 308.776C189.561 310.099 189.113 311.208 188.217 312.104C187.321 313 186.233 313.448 184.953 313.448Z" fill="#FFCF13"/>
<path d="M0 51H86C92.0751 51 97 55.9249 97 62V72C97 78.0751 92.0751 83 86 83H0V51Z" fill="#1E1E1E"/>
<path d="M7.29289 66.2929C6.90237 66.6834 6.90237 67.3166 7.29289 67.7071L13.6569 74.0711C14.0474 74.4616 14.6805 74.4616 15.0711 74.0711C15.4616 73.6805 15.4616 73.0474 15.0711 72.6569L9.41421 67L15.0711 61.3431C15.4616 60.9526 15.4616 60.3195 15.0711 59.9289C14.6805 59.5384 14.0474 59.5384 13.6569 59.9289L7.29289 66.2929ZM23.1873 67V66H8V67V68H23.1873V67Z" fill="white"/>
<path d="M41.705 66.645C42.265 66.745 42.74 67.04 43.13 67.53C43.52 68.02 43.715 68.575 43.715 69.195C43.715 69.725 43.575 70.205 43.295 70.635C43.025 71.055 42.63 71.39 42.11 71.64C41.59 71.88 40.985 72 40.295 72H36.125V61.575H40.1C40.81 61.575 41.42 61.695 41.93 61.935C42.44 62.175 42.825 62.5 43.085 62.91C43.345 63.31 43.475 63.76 43.475 64.26C43.475 64.86 43.315 65.36 42.995 65.76C42.675 66.16 42.245 66.455 41.705 66.645ZM37.835 65.955H39.95C40.51 65.955 40.945 65.83 41.255 65.58C41.575 65.32 41.735 64.95 41.735 64.47C41.735 64 41.575 63.635 41.255 63.375C40.945 63.105 40.51 62.97 39.95 62.97H37.835V65.955ZM40.145 70.605C40.725 70.605 41.18 70.465 41.51 70.185C41.84 69.905 42.005 69.515 42.005 69.015C42.005 68.505 41.83 68.1 41.48 67.8C41.13 67.5 40.665 67.35 40.085 67.35H37.835V70.605H40.145ZM45.3032 67.83C45.3032 67 45.4732 66.265 45.8132 65.625C46.1632 64.985 46.6332 64.49 47.2232 64.14C47.8232 63.78 48.4832 63.6 49.2032 63.6C49.8532 63.6 50.4182 63.73 50.8982 63.99C51.3882 64.24 51.7782 64.555 52.0682 64.935V63.735H53.7932V72H52.0682V70.77C51.7782 71.16 51.3832 71.485 50.8832 71.745C50.3832 72.005 49.8132 72.135 49.1732 72.135C48.4632 72.135 47.8132 71.955 47.2232 71.595C46.6332 71.225 46.1632 70.715 45.8132 70.065C45.4732 69.405 45.3032 68.66 45.3032 67.83ZM52.0682 67.86C52.0682 67.29 51.9482 66.795 51.7082 66.375C51.4782 65.955 51.1732 65.635 50.7932 65.415C50.4132 65.195 50.0032 65.085 49.5632 65.085C49.1232 65.085 48.7132 65.195 48.3332 65.415C47.9532 65.625 47.6432 65.94 47.4032 66.36C47.1732 66.77 47.0582 67.26 47.0582 67.83C47.0582 68.4 47.1732 68.9 47.4032 69.33C47.6432 69.76 47.9532 70.09 48.3332 70.32C48.7232 70.54 49.1332 70.65 49.5632 70.65C50.0032 70.65 50.4132 70.54 50.7932 70.32C51.1732 70.1 51.4782 69.78 51.7082 69.36C51.9482 68.93 52.0682 68.43 52.0682 67.86ZM55.7693 67.86C55.7693 67.01 55.9393 66.265 56.2793 65.625C56.6293 64.975 57.1093 64.475 57.7193 64.125C58.3293 63.775 59.0293 63.6 59.8193 63.6C60.8193 63.6 61.6443 63.84 62.2943 64.32C62.9543 64.79 63.3993 65.465 63.6293 66.345H61.7843C61.6343 65.935 61.3943 65.615 61.0643 65.385C60.7343 65.155 60.3193 65.04 59.8193 65.04C59.1193 65.04 58.5593 65.29 58.1393 65.79C57.7293 66.28 57.5243 66.97 57.5243 67.86C57.5243 68.75 57.7293 69.445 58.1393 69.945C58.5593 70.445 59.1193 70.695 59.8193 70.695C60.8093 70.695 61.4643 70.26 61.7843 69.39H63.6293C63.3893 70.23 62.9393 70.9 62.2793 71.4C61.6193 71.89 60.7993 72.135 59.8193 72.135C59.0293 72.135 58.3293 71.96 57.7193 71.61C57.1093 71.25 56.6293 70.75 56.2793 70.11C55.9393 69.46 55.7693 68.71 55.7693 67.86ZM68.9034 67.875L72.7134 72H70.4034L67.3434 68.445V72H65.6334V60.9H67.3434V67.35L70.3434 63.735H72.7134L68.9034 67.875Z" fill="white"/>
<defs>
<linearGradient id="paint0_linear_2060_890" x1="45" y1="580" x2="333" y2="580" gradientUnits="userSpaceOnUse">
<stop offset="0.5" stop-color="#FFF200"/>
<stop offset="1" stop-color="#FFCB14"/>
</linearGradient>
</defs>
</svg>
