<svg width="393" height="852" viewBox="0 0 393 852" fill="none" xmlns="http://www.w3.org/2000/svg">
<g clip-path="url(#clip0_2053_558)">
<rect width="393" height="852" fill="#AAAAAA"/>
<g filter="url(#filter0_d_2053_558)">
<path d="M0 289C0 277.954 8.95431 269 20 269H373C384.046 269 393 277.954 393 289V852H0V289Z" fill="white"/>
<path d="M20 269.5H373C383.77 269.5 392.5 278.23 392.5 289V851.5H0.5V289C0.500005 278.23 9.23045 269.5 20 269.5Z" stroke="#F2F2F2"/>
</g>
<rect x="25" y="785" width="345" height="42" rx="10" fill="url(#paint0_linear_2053_558)"/>
<path d="M159.673 811.105C158.943 811.105 158.283 810.98 157.693 810.73C157.113 810.48 156.653 810.12 156.313 809.65C155.973 809.18 155.798 808.625 155.788 807.985H158.038C158.068 808.415 158.218 808.755 158.488 809.005C158.768 809.255 159.148 809.38 159.628 809.38C160.118 809.38 160.503 809.265 160.783 809.035C161.063 808.795 161.203 808.485 161.203 808.105C161.203 807.795 161.108 807.54 160.918 807.34C160.728 807.14 160.488 806.985 160.198 806.875C159.918 806.755 159.528 806.625 159.028 806.485C158.348 806.285 157.793 806.09 157.363 805.9C156.943 805.7 156.578 805.405 156.268 805.015C155.968 804.615 155.818 804.085 155.818 803.425C155.818 802.805 155.973 802.265 156.283 801.805C156.593 801.345 157.028 800.995 157.588 800.755C158.148 800.505 158.788 800.38 159.508 800.38C160.588 800.38 161.463 800.645 162.133 801.175C162.813 801.695 163.188 802.425 163.258 803.365H160.948C160.928 803.005 160.773 802.71 160.483 802.48C160.203 802.24 159.828 802.12 159.358 802.12C158.948 802.12 158.618 802.225 158.368 802.435C158.128 802.645 158.008 802.95 158.008 803.35C158.008 803.63 158.098 803.865 158.278 804.055C158.468 804.235 158.698 804.385 158.968 804.505C159.248 804.615 159.638 804.745 160.138 804.895C160.818 805.095 161.373 805.295 161.803 805.495C162.233 805.695 162.603 805.995 162.913 806.395C163.223 806.795 163.378 807.32 163.378 807.97C163.378 808.53 163.233 809.05 162.943 809.53C162.653 810.01 162.228 810.395 161.668 810.685C161.108 810.965 160.443 811.105 159.673 811.105ZM164.958 806.815C164.958 805.975 165.123 805.23 165.453 804.58C165.793 803.93 166.248 803.43 166.818 803.08C167.398 802.73 168.043 802.555 168.753 802.555C169.373 802.555 169.913 802.68 170.373 802.93C170.843 803.18 171.218 803.495 171.498 803.875V802.69H173.613V811H171.498V809.785C171.228 810.175 170.853 810.5 170.373 810.76C169.903 811.01 169.358 811.135 168.738 811.135C168.038 811.135 167.398 810.955 166.818 810.595C166.248 810.235 165.793 809.73 165.453 809.08C165.123 808.42 164.958 807.665 164.958 806.815ZM171.498 806.845C171.498 806.335 171.398 805.9 171.198 805.54C170.998 805.17 170.728 804.89 170.388 804.7C170.048 804.5 169.683 804.4 169.293 804.4C168.903 804.4 168.543 804.495 168.213 804.685C167.883 804.875 167.613 805.155 167.403 805.525C167.203 805.885 167.103 806.315 167.103 806.815C167.103 807.315 167.203 807.755 167.403 808.135C167.613 808.505 167.883 808.79 168.213 808.99C168.553 809.19 168.913 809.29 169.293 809.29C169.683 809.29 170.048 809.195 170.388 809.005C170.728 808.805 170.998 808.525 171.198 808.165C171.398 807.795 171.498 807.355 171.498 806.845ZM179.429 809.065L181.529 802.69H183.764L180.689 811H178.139L175.079 802.69H177.329L179.429 809.065ZM192.969 806.665C192.969 806.965 192.949 807.235 192.909 807.475H186.834C186.884 808.075 187.094 808.545 187.464 808.885C187.834 809.225 188.289 809.395 188.829 809.395C189.609 809.395 190.164 809.06 190.494 808.39H192.759C192.519 809.19 192.059 809.85 191.379 810.37C190.699 810.88 189.864 811.135 188.874 811.135C188.074 811.135 187.354 810.96 186.714 810.61C186.084 810.25 185.589 809.745 185.229 809.095C184.879 808.445 184.704 807.695 184.704 806.845C184.704 805.985 184.879 805.23 185.229 804.58C185.579 803.93 186.069 803.43 186.699 803.08C187.329 802.73 188.054 802.555 188.874 802.555C189.664 802.555 190.369 802.725 190.989 803.065C191.619 803.405 192.104 803.89 192.444 804.52C192.794 805.14 192.969 805.855 192.969 806.665ZM190.794 806.065C190.784 805.525 190.589 805.095 190.209 804.775C189.829 804.445 189.364 804.28 188.814 804.28C188.294 804.28 187.854 804.44 187.494 804.76C187.144 805.07 186.929 805.505 186.849 806.065H190.794ZM206.401 806.665C206.401 806.965 206.381 807.235 206.341 807.475H200.266C200.316 808.075 200.526 808.545 200.896 808.885C201.266 809.225 201.721 809.395 202.261 809.395C203.041 809.395 203.596 809.06 203.926 808.39H206.191C205.951 809.19 205.491 809.85 204.811 810.37C204.131 810.88 203.296 811.135 202.306 811.135C201.506 811.135 200.786 810.96 200.146 810.61C199.516 810.25 199.021 809.745 198.661 809.095C198.311 808.445 198.136 807.695 198.136 806.845C198.136 805.985 198.311 805.23 198.661 804.58C199.011 803.93 199.501 803.43 200.131 803.08C200.761 802.73 201.486 802.555 202.306 802.555C203.096 802.555 203.801 802.725 204.421 803.065C205.051 803.405 205.536 803.89 205.876 804.52C206.226 805.14 206.401 805.855 206.401 806.665ZM204.226 806.065C204.216 805.525 204.021 805.095 203.641 804.775C203.261 804.445 202.796 804.28 202.246 804.28C201.726 804.28 201.286 804.44 200.926 804.76C200.576 805.07 200.361 805.505 200.281 806.065H204.226ZM212.839 802.57C213.829 802.57 214.629 802.885 215.239 803.515C215.849 804.135 216.154 805.005 216.154 806.125V811H214.054V806.41C214.054 805.75 213.889 805.245 213.559 804.895C213.229 804.535 212.779 804.355 212.209 804.355C211.629 804.355 211.169 804.535 210.829 804.895C210.499 805.245 210.334 805.75 210.334 806.41V811H208.234V802.69H210.334V803.725C210.614 803.365 210.969 803.085 211.399 802.885C211.839 802.675 212.319 802.57 212.839 802.57ZM220.896 804.415V808.435C220.896 808.715 220.961 808.92 221.091 809.05C221.231 809.17 221.461 809.23 221.781 809.23H222.756V811H221.436C219.666 811 218.781 810.14 218.781 808.42V804.415H217.791V802.69H218.781V800.635H220.896V802.69H222.756V804.415H220.896ZM226.666 803.98C226.936 803.54 227.286 803.195 227.716 802.945C228.156 802.695 228.656 802.57 229.216 802.57V804.775H228.661C228.001 804.775 227.501 804.93 227.161 805.24C226.831 805.55 226.666 806.09 226.666 806.86V811H224.566V802.69H226.666V803.98ZM238.88 802.69L233.735 814.93H231.5L233.3 810.79L229.97 802.69H232.325L234.47 808.495L236.645 802.69H238.88Z" fill="black"/>
<rect x="133" y="292" width="103" height="7" rx="3.5" fill="#E8E6E9"/>
<path d="M34.22 358.24C34.22 358.947 34.0533 359.613 33.72 360.24C33.3867 360.867 32.8533 361.38 32.12 361.78C31.3867 362.167 30.4467 362.36 29.3 362.36H26.78V368H24.5V354.1H29.3C30.3667 354.1 31.2667 354.287 32 354.66C32.7467 355.02 33.3 355.513 33.66 356.14C34.0333 356.767 34.22 357.467 34.22 358.24ZM29.3 360.5C30.1667 360.5 30.8133 360.307 31.24 359.92C31.6667 359.52 31.88 358.96 31.88 358.24C31.88 356.72 31.02 355.96 29.3 355.96H26.78V360.5H29.3ZM39.0745 353.2V368H36.7945V353.2H39.0745ZM41.708 362.44C41.708 361.333 41.9346 360.353 42.388 359.5C42.8546 358.647 43.4813 357.987 44.268 357.52C45.068 357.04 45.948 356.8 46.908 356.8C47.7746 356.8 48.528 356.973 49.168 357.32C49.8213 357.653 50.3413 358.073 50.728 358.58V356.98H53.028V368H50.728V366.36C50.3413 366.88 49.8146 367.313 49.148 367.66C48.4813 368.007 47.7213 368.18 46.868 368.18C45.9213 368.18 45.0546 367.94 44.268 367.46C43.4813 366.967 42.8546 366.287 42.388 365.42C41.9346 364.54 41.708 363.547 41.708 362.44ZM50.728 362.48C50.728 361.72 50.568 361.06 50.248 360.5C49.9413 359.94 49.5346 359.513 49.028 359.22C48.5213 358.927 47.9746 358.78 47.388 358.78C46.8013 358.78 46.2546 358.927 45.748 359.22C45.2413 359.5 44.828 359.92 44.508 360.48C44.2013 361.027 44.048 361.68 44.048 362.44C44.048 363.2 44.2013 363.867 44.508 364.44C44.828 365.013 45.2413 365.453 45.748 365.76C46.268 366.053 46.8146 366.2 47.388 366.2C47.9746 366.2 48.5213 366.053 49.028 365.76C49.5346 365.467 49.9413 365.04 50.248 364.48C50.568 363.907 50.728 363.24 50.728 362.48ZM61.9827 356.8C62.8493 356.8 63.6227 356.98 64.3027 357.34C64.996 357.7 65.536 358.233 65.9227 358.94C66.3093 359.647 66.5027 360.5 66.5027 361.5V368H64.2427V361.84C64.2427 360.853 63.996 360.1 63.5027 359.58C63.0093 359.047 62.336 358.78 61.4827 358.78C60.6293 358.78 59.9493 359.047 59.4427 359.58C58.9493 360.1 58.7027 360.853 58.7027 361.84V368H56.4227V356.98H58.7027V358.24C59.076 357.787 59.5493 357.433 60.1227 357.18C60.7093 356.927 61.3293 356.8 61.9827 356.8ZM74.6463 362.44C74.6463 361.333 74.8729 360.353 75.3263 359.5C75.7929 358.647 76.4196 357.987 77.2063 357.52C78.0063 357.04 78.8863 356.8 79.8463 356.8C80.7129 356.8 81.4663 356.973 82.1063 357.32C82.7596 357.653 83.2796 358.073 83.6663 358.58V356.98H85.9663V368H83.6663V366.36C83.2796 366.88 82.7529 367.313 82.0863 367.66C81.4196 368.007 80.6596 368.18 79.8063 368.18C78.8596 368.18 77.9929 367.94 77.2063 367.46C76.4196 366.967 75.7929 366.287 75.3263 365.42C74.8729 364.54 74.6463 363.547 74.6463 362.44ZM83.6663 362.48C83.6663 361.72 83.5063 361.06 83.1863 360.5C82.8796 359.94 82.4729 359.513 81.9663 359.22C81.4596 358.927 80.9129 358.78 80.3263 358.78C79.7396 358.78 79.1929 358.927 78.6863 359.22C78.1796 359.5 77.7663 359.92 77.4463 360.48C77.1396 361.027 76.9863 361.68 76.9863 362.44C76.9863 363.2 77.1396 363.867 77.4463 364.44C77.7663 365.013 78.1796 365.453 78.6863 365.76C79.2063 366.053 79.7529 366.2 80.3263 366.2C80.9129 366.2 81.4596 366.053 81.9663 365.76C82.4729 365.467 82.8796 365.04 83.1863 364.48C83.5063 363.907 83.6663 363.24 83.6663 362.48ZM97.6163 358.84V364.94C97.6163 365.353 97.7096 365.653 97.8963 365.84C98.0963 366.013 98.4296 366.1 98.8963 366.1H100.296V368H98.4963C97.4696 368 96.6829 367.76 96.1363 367.28C95.5896 366.8 95.3163 366.02 95.3163 364.94V358.84H94.0163V356.98H95.3163V354.24H97.6163V356.98H100.296V358.84H97.6163ZM105.078 358.58C105.411 358.02 105.851 357.587 106.398 357.28C106.958 356.96 107.618 356.8 108.378 356.8V359.16H107.798C106.904 359.16 106.224 359.387 105.758 359.84C105.304 360.293 105.078 361.08 105.078 362.2V368H102.798V356.98H105.078V358.58ZM112.033 355.52C111.62 355.52 111.273 355.38 110.993 355.1C110.713 354.82 110.573 354.473 110.573 354.06C110.573 353.647 110.713 353.3 110.993 353.02C111.273 352.74 111.62 352.6 112.033 352.6C112.433 352.6 112.773 352.74 113.053 353.02C113.333 353.3 113.473 353.647 113.473 354.06C113.473 354.473 113.333 354.82 113.053 355.1C112.773 355.38 112.433 355.52 112.033 355.52ZM113.153 356.98V368H110.873V356.98H113.153ZM118.827 358.6C119.214 358.093 119.74 357.667 120.407 357.32C121.074 356.973 121.827 356.8 122.667 356.8C123.627 356.8 124.5 357.04 125.287 357.52C126.087 357.987 126.714 358.647 127.167 359.5C127.62 360.353 127.847 361.333 127.847 362.44C127.847 363.547 127.62 364.54 127.167 365.42C126.714 366.287 126.087 366.967 125.287 367.46C124.5 367.94 123.627 368.18 122.667 368.18C121.827 368.18 121.08 368.013 120.427 367.68C119.774 367.333 119.24 366.907 118.827 366.4V373.24H116.547V356.98H118.827V358.6ZM125.527 362.44C125.527 361.68 125.367 361.027 125.047 360.48C124.74 359.92 124.327 359.5 123.807 359.22C123.3 358.927 122.754 358.78 122.167 358.78C121.594 358.78 121.047 358.927 120.527 359.22C120.02 359.513 119.607 359.94 119.287 360.5C118.98 361.06 118.827 361.72 118.827 362.48C118.827 363.24 118.98 363.907 119.287 364.48C119.607 365.04 120.02 365.467 120.527 365.76C121.047 366.053 121.594 366.2 122.167 366.2C122.754 366.2 123.3 366.053 123.807 365.76C124.327 365.453 124.74 365.013 125.047 364.44C125.367 363.867 125.527 363.2 125.527 362.44Z" fill="black"/>
<path d="M25.457 396.804H28.512V398H23.975V388.965H25.457V396.804ZM33.1184 398.117C32.4424 398.117 31.8314 397.965 31.2854 397.662C30.7394 397.35 30.3104 396.917 29.9984 396.362C29.6864 395.799 29.5304 395.149 29.5304 394.412C29.5304 393.684 29.6907 393.038 30.0114 392.475C30.332 391.912 30.7697 391.478 31.3244 391.175C31.879 390.872 32.4987 390.72 33.1834 390.72C33.868 390.72 34.4877 390.872 35.0424 391.175C35.597 391.478 36.0347 391.912 36.3554 392.475C36.676 393.038 36.8364 393.684 36.8364 394.412C36.8364 395.14 36.6717 395.786 36.3424 396.349C36.013 396.912 35.5624 397.35 34.9904 397.662C34.427 397.965 33.803 398.117 33.1184 398.117ZM33.1184 396.83C33.4997 396.83 33.855 396.739 34.1844 396.557C34.5224 396.375 34.7954 396.102 35.0034 395.738C35.2114 395.374 35.3154 394.932 35.3154 394.412C35.3154 393.892 35.2157 393.454 35.0164 393.099C34.817 392.735 34.5527 392.462 34.2234 392.28C33.894 392.098 33.5387 392.007 33.1574 392.007C32.776 392.007 32.4207 392.098 32.0914 392.28C31.7707 392.462 31.515 392.735 31.3244 393.099C31.1337 393.454 31.0384 393.892 31.0384 394.412C31.0384 395.183 31.2334 395.781 31.6234 396.206C32.022 396.622 32.5204 396.83 33.1184 396.83ZM41.4474 390.72C42.0021 390.72 42.4917 390.833 42.9164 391.058C43.3497 391.275 43.6877 391.548 43.9304 391.877V390.837H45.4254V398.117C45.4254 398.776 45.2867 399.361 45.0094 399.872C44.7321 400.392 44.3291 400.799 43.8004 401.094C43.2804 401.389 42.6564 401.536 41.9284 401.536C40.9577 401.536 40.1517 401.306 39.5104 400.847C38.8691 400.396 38.5051 399.781 38.4184 399.001H39.8874C40.0001 399.374 40.2384 399.673 40.6024 399.898C40.9751 400.132 41.4171 400.249 41.9284 400.249C42.5264 400.249 43.0074 400.067 43.3714 399.703C43.7441 399.339 43.9304 398.81 43.9304 398.117V396.921C43.6791 397.259 43.3367 397.545 42.9034 397.779C42.4787 398.004 41.9934 398.117 41.4474 398.117C40.8234 398.117 40.2514 397.961 39.7314 397.649C39.2201 397.328 38.8127 396.886 38.5094 396.323C38.2147 395.751 38.0674 395.105 38.0674 394.386C38.0674 393.667 38.2147 393.03 38.5094 392.475C38.8127 391.92 39.2201 391.491 39.7314 391.188C40.2514 390.876 40.8234 390.72 41.4474 390.72ZM43.9304 394.412C43.9304 393.918 43.8264 393.489 43.6184 393.125C43.4191 392.761 43.1547 392.484 42.8254 392.293C42.4961 392.102 42.1407 392.007 41.7594 392.007C41.3781 392.007 41.0227 392.102 40.6934 392.293C40.3641 392.475 40.0954 392.748 39.8874 393.112C39.6881 393.467 39.5884 393.892 39.5884 394.386C39.5884 394.88 39.6881 395.313 39.8874 395.686C40.0954 396.059 40.3641 396.345 40.6934 396.544C41.0314 396.735 41.3867 396.83 41.7594 396.83C42.1407 396.83 42.4961 396.735 42.8254 396.544C43.1547 396.353 43.4191 396.076 43.6184 395.712C43.8264 395.339 43.9304 394.906 43.9304 394.412ZM52.7509 391.903C53.0022 391.556 53.3446 391.275 53.7779 391.058C54.2199 390.833 54.7096 390.72 55.2469 390.72C55.8796 390.72 56.4516 390.872 56.9629 391.175C57.4742 391.478 57.8772 391.912 58.1719 392.475C58.4666 393.03 58.6139 393.667 58.6139 394.386C58.6139 395.105 58.4666 395.751 58.1719 396.323C57.8772 396.886 57.4699 397.328 56.9499 397.649C56.4386 397.961 55.8709 398.117 55.2469 398.117C54.6922 398.117 54.1982 398.009 53.7649 397.792C53.3402 397.575 53.0022 397.298 52.7509 396.96V398H51.2689V388.38H52.7509V391.903ZM57.1059 394.386C57.1059 393.892 57.0019 393.467 56.7939 393.112C56.5946 392.748 56.3259 392.475 55.9879 392.293C55.6586 392.102 55.3032 392.007 54.9219 392.007C54.5492 392.007 54.1939 392.102 53.8559 392.293C53.5266 392.484 53.2579 392.761 53.0499 393.125C52.8506 393.489 52.7509 393.918 52.7509 394.412C52.7509 394.906 52.8506 395.339 53.0499 395.712C53.2579 396.076 53.5266 396.353 53.8559 396.544C54.1939 396.735 54.5492 396.83 54.9219 396.83C55.3032 396.83 55.6586 396.735 55.9879 396.544C56.3259 396.345 56.5946 396.059 56.7939 395.686C57.0019 395.313 57.1059 394.88 57.1059 394.386ZM66.9045 394.243C66.9045 394.512 66.8871 394.754 66.8525 394.971H61.3795C61.4228 395.543 61.6351 396.002 62.0165 396.349C62.3978 396.696 62.8658 396.869 63.4205 396.869C64.2178 396.869 64.7811 396.535 65.1105 395.868H66.7095C66.4928 396.527 66.0985 397.068 65.5265 397.493C64.9631 397.909 64.2611 398.117 63.4205 398.117C62.7358 398.117 62.1205 397.965 61.5745 397.662C61.0371 397.35 60.6125 396.917 60.3005 396.362C59.9971 395.799 59.8455 395.149 59.8455 394.412C59.8455 393.675 59.9928 393.03 60.2875 392.475C60.5908 391.912 61.0111 391.478 61.5485 391.175C62.0945 390.872 62.7185 390.72 63.4205 390.72C64.0965 390.72 64.6988 390.867 65.2275 391.162C65.7561 391.457 66.1678 391.873 66.4625 392.41C66.7571 392.939 66.9045 393.55 66.9045 394.243ZM65.3575 393.775C65.3488 393.229 65.1538 392.791 64.7725 392.462C64.3911 392.133 63.9188 391.968 63.3555 391.968C62.8441 391.968 62.4065 392.133 62.0425 392.462C61.6785 392.783 61.4618 393.22 61.3925 393.775H65.3575ZM71.6259 392.046H70.2999V398H68.8049V392.046H67.9599V390.837H68.8049V390.33C68.8049 389.507 69.0216 388.909 69.4549 388.536C69.8969 388.155 70.5859 387.964 71.5219 387.964V389.199C71.0712 389.199 70.7549 389.286 70.5729 389.459C70.3909 389.624 70.2999 389.914 70.2999 390.33V390.837H71.6259V392.046ZM76.3063 398.117C75.6303 398.117 75.0193 397.965 74.4733 397.662C73.9273 397.35 73.4983 396.917 73.1863 396.362C72.8743 395.799 72.7183 395.149 72.7183 394.412C72.7183 393.684 72.8786 393.038 73.1993 392.475C73.52 391.912 73.9576 391.478 74.5123 391.175C75.067 390.872 75.6866 390.72 76.3713 390.72C77.056 390.72 77.6756 390.872 78.2303 391.175C78.785 391.478 79.2226 391.912 79.5433 392.475C79.864 393.038 80.0243 393.684 80.0243 394.412C80.0243 395.14 79.8596 395.786 79.5303 396.349C79.201 396.912 78.7503 397.35 78.1783 397.662C77.615 397.965 76.991 398.117 76.3063 398.117ZM76.3063 396.83C76.6876 396.83 77.043 396.739 77.3723 396.557C77.7103 396.375 77.9833 396.102 78.1913 395.738C78.3993 395.374 78.5033 394.932 78.5033 394.412C78.5033 393.892 78.4036 393.454 78.2043 393.099C78.005 392.735 77.7406 392.462 77.4113 392.28C77.082 392.098 76.7266 392.007 76.3453 392.007C75.964 392.007 75.6086 392.098 75.2793 392.28C74.9586 392.462 74.703 392.735 74.5123 393.099C74.3216 393.454 74.2263 393.892 74.2263 394.412C74.2263 395.183 74.4213 395.781 74.8113 396.206C75.21 396.622 75.7083 396.83 76.3063 396.83ZM83.2313 391.877C83.448 391.513 83.734 391.231 84.0893 391.032C84.4533 390.824 84.8823 390.72 85.3763 390.72V392.254H84.9993C84.4187 392.254 83.9767 392.401 83.6733 392.696C83.3787 392.991 83.2313 393.502 83.2313 394.23V398H81.7493V390.837H83.2313V391.877ZM93.5636 394.243C93.5636 394.512 93.5463 394.754 93.5116 394.971H88.0386C88.0819 395.543 88.2943 396.002 88.6756 396.349C89.0569 396.696 89.5249 396.869 90.0796 396.869C90.8769 396.869 91.4403 396.535 91.7696 395.868H93.3686C93.1519 396.527 92.7576 397.068 92.1856 397.493C91.6223 397.909 90.9203 398.117 90.0796 398.117C89.3949 398.117 88.7796 397.965 88.2336 397.662C87.6963 397.35 87.2716 396.917 86.9596 396.362C86.6563 395.799 86.5046 395.149 86.5046 394.412C86.5046 393.675 86.6519 393.03 86.9466 392.475C87.2499 391.912 87.6703 391.478 88.2076 391.175C88.7536 390.872 89.3776 390.72 90.0796 390.72C90.7556 390.72 91.3579 390.867 91.8866 391.162C92.4153 391.457 92.8269 391.873 93.1216 392.41C93.4163 392.939 93.5636 393.55 93.5636 394.243ZM92.0166 393.775C92.0079 393.229 91.8129 392.791 91.4316 392.462C91.0503 392.133 90.5779 391.968 90.0146 391.968C89.5033 391.968 89.0656 392.133 88.7016 392.462C88.3376 392.783 88.1209 393.22 88.0516 393.775H92.0166ZM105.367 390.837L100.973 401.367H99.439L100.895 397.883L98.074 390.837H99.725L101.74 396.297L103.833 390.837H105.367ZM109.852 398.117C109.176 398.117 108.565 397.965 108.019 397.662C107.473 397.35 107.044 396.917 106.732 396.362C106.42 395.799 106.264 395.149 106.264 394.412C106.264 393.684 106.425 393.038 106.745 392.475C107.066 391.912 107.504 391.478 108.058 391.175C108.613 390.872 109.233 390.72 109.917 390.72C110.602 390.72 111.222 390.872 111.776 391.175C112.331 391.478 112.769 391.912 113.089 392.475C113.41 393.038 113.57 393.684 113.57 394.412C113.57 395.14 113.406 395.786 113.076 396.349C112.747 396.912 112.296 397.35 111.724 397.662C111.161 397.965 110.537 398.117 109.852 398.117ZM109.852 396.83C110.234 396.83 110.589 396.739 110.918 396.557C111.256 396.375 111.529 396.102 111.737 395.738C111.945 395.374 112.049 394.932 112.049 394.412C112.049 393.892 111.95 393.454 111.75 393.099C111.551 392.735 111.287 392.462 110.957 392.28C110.628 392.098 110.273 392.007 109.891 392.007C109.51 392.007 109.155 392.098 108.825 392.28C108.505 392.462 108.249 392.735 108.058 393.099C107.868 393.454 107.772 393.892 107.772 394.412C107.772 395.183 107.967 395.781 108.357 396.206C108.756 396.622 109.254 396.83 109.852 396.83ZM121.782 390.837V398H120.3V397.155C120.066 397.45 119.759 397.684 119.377 397.857C119.005 398.022 118.606 398.104 118.181 398.104C117.618 398.104 117.111 397.987 116.66 397.753C116.218 397.519 115.867 397.172 115.607 396.713C115.356 396.254 115.23 395.699 115.23 395.049V390.837H116.699V394.828C116.699 395.469 116.86 395.963 117.18 396.31C117.501 396.648 117.939 396.817 118.493 396.817C119.048 396.817 119.486 396.648 119.806 396.31C120.136 395.963 120.3 395.469 120.3 394.828V390.837H121.782ZM125.48 391.877C125.696 391.513 125.982 391.231 126.338 391.032C126.702 390.824 127.131 390.72 127.625 390.72V392.254H127.248C126.667 392.254 126.225 392.401 125.922 392.696C125.627 392.991 125.48 393.502 125.48 394.23V398H123.998V390.837H125.48V391.877ZM133.638 389.888C133.369 389.888 133.144 389.797 132.962 389.615C132.78 389.433 132.689 389.208 132.689 388.939C132.689 388.67 132.78 388.445 132.962 388.263C133.144 388.081 133.369 387.99 133.638 387.99C133.898 387.99 134.119 388.081 134.301 388.263C134.483 388.445 134.574 388.67 134.574 388.939C134.574 389.208 134.483 389.433 134.301 389.615C134.119 389.797 133.898 389.888 133.638 389.888ZM134.366 399.404C134.366 400.106 134.188 400.613 133.833 400.925C133.486 401.246 132.979 401.406 132.312 401.406H131.545V400.158H132.052C132.355 400.158 132.568 400.097 132.689 399.976C132.819 399.863 132.884 399.673 132.884 399.404V390.837H134.366V399.404ZM139.679 398.117C139.003 398.117 138.392 397.965 137.846 397.662C137.3 397.35 136.871 396.917 136.559 396.362C136.247 395.799 136.091 395.149 136.091 394.412C136.091 393.684 136.251 393.038 136.572 392.475C136.892 391.912 137.33 391.478 137.885 391.175C138.439 390.872 139.059 390.72 139.744 390.72C140.428 390.72 141.048 390.872 141.603 391.175C142.157 391.478 142.595 391.912 142.916 392.475C143.236 393.038 143.397 393.684 143.397 394.412C143.397 395.14 143.232 395.786 142.903 396.349C142.573 396.912 142.123 397.35 141.551 397.662C140.987 397.965 140.363 398.117 139.679 398.117ZM139.679 396.83C140.06 396.83 140.415 396.739 140.745 396.557C141.083 396.375 141.356 396.102 141.564 395.738C141.772 395.374 141.876 394.932 141.876 394.412C141.876 393.892 141.776 393.454 141.577 393.099C141.377 392.735 141.113 392.462 140.784 392.28C140.454 392.098 140.099 392.007 139.718 392.007C139.336 392.007 138.981 392.098 138.652 392.28C138.331 392.462 138.075 392.735 137.885 393.099C137.694 393.454 137.599 393.892 137.599 394.412C137.599 395.183 137.794 395.781 138.184 396.206C138.582 396.622 139.081 396.83 139.679 396.83ZM151.609 390.837V398H150.127V397.155C149.893 397.45 149.585 397.684 149.204 397.857C148.831 398.022 148.432 398.104 148.008 398.104C147.444 398.104 146.937 397.987 146.487 397.753C146.045 397.519 145.694 397.172 145.434 396.713C145.182 396.254 145.057 395.699 145.057 395.049V390.837H146.526V394.828C146.526 395.469 146.686 395.963 147.007 396.31C147.327 396.648 147.765 396.817 148.32 396.817C148.874 396.817 149.312 396.648 149.633 396.31C149.962 395.963 150.127 395.469 150.127 394.828V390.837H151.609ZM155.306 391.877C155.523 391.513 155.809 391.231 156.164 391.032C156.528 390.824 156.957 390.72 157.451 390.72V392.254H157.074C156.494 392.254 156.052 392.401 155.748 392.696C155.454 392.991 155.306 393.502 155.306 394.23V398H153.824V390.837H155.306V391.877ZM162.687 390.72C163.251 390.72 163.753 390.837 164.195 391.071C164.646 391.305 164.997 391.652 165.248 392.111C165.5 392.57 165.625 393.125 165.625 393.775V398H164.156V393.996C164.156 393.355 163.996 392.865 163.675 392.527C163.355 392.18 162.917 392.007 162.362 392.007C161.808 392.007 161.366 392.18 161.036 392.527C160.716 392.865 160.555 393.355 160.555 393.996V398H159.073V390.837H160.555V391.656C160.798 391.361 161.106 391.132 161.478 390.967C161.86 390.802 162.263 390.72 162.687 390.72ZM174.341 394.243C174.341 394.512 174.323 394.754 174.289 394.971H168.816C168.859 395.543 169.071 396.002 169.453 396.349C169.834 396.696 170.302 396.869 170.857 396.869C171.654 396.869 172.217 396.535 172.547 395.868H174.146C173.929 396.527 173.535 397.068 172.963 397.493C172.399 397.909 171.697 398.117 170.857 398.117C170.172 398.117 169.557 397.965 169.011 397.662C168.473 397.35 168.049 396.917 167.737 396.362C167.433 395.799 167.282 395.149 167.282 394.412C167.282 393.675 167.429 393.03 167.724 392.475C168.027 391.912 168.447 391.478 168.985 391.175C169.531 390.872 170.155 390.72 170.857 390.72C171.533 390.72 172.135 390.867 172.664 391.162C173.192 391.457 173.604 391.873 173.899 392.41C174.193 392.939 174.341 393.55 174.341 394.243ZM172.794 393.775C172.785 393.229 172.59 392.791 172.209 392.462C171.827 392.133 171.355 391.968 170.792 391.968C170.28 391.968 169.843 392.133 169.479 392.462C169.115 392.783 168.898 393.22 168.829 393.775H172.794ZM182.507 390.837L178.113 401.367H176.579L178.035 397.883L175.214 390.837H176.865L178.88 396.297L180.973 390.837H182.507Z" fill="#878787"/>
<path d="M29.008 592.832C30.1813 592.832 31.2107 593.061 32.096 593.52C32.992 593.979 33.68 594.635 34.16 595.488C34.6507 596.331 34.896 597.312 34.896 598.432C34.896 599.552 34.6507 600.533 34.16 601.376C33.68 602.208 32.992 602.853 32.096 603.312C31.2107 603.771 30.1813 604 29.008 604H25.104V592.832H29.008ZM28.928 602.096C30.1013 602.096 31.008 601.776 31.648 601.136C32.288 600.496 32.608 599.595 32.608 598.432C32.608 597.269 32.288 596.363 31.648 595.712C31.008 595.051 30.1013 594.72 28.928 594.72H27.344V602.096H28.928ZM36.3167 599.536C36.3167 598.64 36.4927 597.845 36.8447 597.152C37.2074 596.459 37.6927 595.925 38.3007 595.552C38.9194 595.179 39.6074 594.992 40.3647 594.992C41.0261 594.992 41.6021 595.125 42.0928 595.392C42.5941 595.659 42.9941 595.995 43.2927 596.4V595.136H45.5487V604H43.2927V602.704C43.0048 603.12 42.6048 603.467 42.0928 603.744C41.5914 604.011 41.0101 604.144 40.3488 604.144C39.6021 604.144 38.9194 603.952 38.3007 603.568C37.6927 603.184 37.2074 602.645 36.8447 601.952C36.4927 601.248 36.3167 600.443 36.3167 599.536ZM43.2927 599.568C43.2927 599.024 43.1861 598.56 42.9728 598.176C42.7594 597.781 42.4714 597.483 42.1087 597.28C41.7461 597.067 41.3568 596.96 40.9408 596.96C40.5248 596.96 40.1407 597.061 39.7887 597.264C39.4367 597.467 39.1487 597.765 38.9247 598.16C38.7114 598.544 38.6047 599.003 38.6047 599.536C38.6047 600.069 38.7114 600.539 38.9247 600.944C39.1487 601.339 39.4367 601.643 39.7887 601.856C40.1514 602.069 40.5354 602.176 40.9408 602.176C41.3568 602.176 41.7461 602.075 42.1087 601.872C42.4714 601.659 42.7594 601.36 42.9728 600.976C43.1861 600.581 43.2927 600.112 43.2927 599.568ZM50.6645 596.976V601.264C50.6645 601.563 50.7338 601.781 50.8725 601.92C51.0218 602.048 51.2672 602.112 51.6085 602.112H52.6485V604H51.2405C49.3525 604 48.4085 603.083 48.4085 601.248V596.976H47.3525V595.136H48.4085V592.944H50.6645V595.136H52.6485V596.976H50.6645ZM62.8196 599.376C62.8196 599.696 62.7983 599.984 62.7556 600.24H56.2756C56.329 600.88 56.553 601.381 56.9476 601.744C57.3423 602.107 57.8276 602.288 58.4036 602.288C59.2356 602.288 59.8276 601.931 60.1796 601.216H62.5956C62.3396 602.069 61.849 602.773 61.1236 603.328C60.3983 603.872 59.5076 604.144 58.4516 604.144C57.5983 604.144 56.8303 603.957 56.1476 603.584C55.4756 603.2 54.9476 602.661 54.5636 601.968C54.1903 601.275 54.0036 600.475 54.0036 599.568C54.0036 598.651 54.1903 597.845 54.5636 597.152C54.937 596.459 55.4596 595.925 56.1316 595.552C56.8036 595.179 57.577 594.992 58.4516 594.992C59.2943 594.992 60.0463 595.173 60.7076 595.536C61.3796 595.899 61.897 596.416 62.2596 597.088C62.633 597.749 62.8196 598.512 62.8196 599.376ZM60.4996 598.736C60.489 598.16 60.281 597.701 59.8756 597.36C59.4703 597.008 58.9743 596.832 58.3876 596.832C57.833 596.832 57.3636 597.003 56.9796 597.344C56.6063 597.675 56.377 598.139 56.2916 598.736H60.4996Z" fill="#878787"/>
<rect x="24.5" y="616.5" width="350" height="40" rx="14.5" fill="white" stroke="#D9D9D9"/>
<path d="M49.822 631.939C50.81 631.939 51.6637 632.125 52.383 632.498C53.111 632.862 53.6657 633.386 54.047 634.071C54.437 634.756 54.632 635.562 54.632 636.489C54.632 637.416 54.437 638.222 54.047 638.907C53.6657 639.583 53.111 640.103 52.383 640.467C51.6637 640.822 50.81 641 49.822 641H47.001V631.939H49.822ZM49.822 640.025C50.992 640.025 51.8847 639.717 52.5 639.102C53.1153 638.478 53.423 637.607 53.423 636.489C53.423 635.362 53.111 634.483 52.487 633.85C51.8717 633.217 50.9833 632.901 49.822 632.901H48.184V640.025H49.822ZM59.2734 631.939C60.2614 631.939 61.1151 632.125 61.8344 632.498C62.5624 632.862 63.1171 633.386 63.4984 634.071C63.8884 634.756 64.0834 635.562 64.0834 636.489C64.0834 637.416 63.8884 638.222 63.4984 638.907C63.1171 639.583 62.5624 640.103 61.8344 640.467C61.1151 640.822 60.2614 641 59.2734 641H56.4524V631.939H59.2734ZM59.2734 640.025C60.4434 640.025 61.3361 639.717 61.9514 639.102C62.5667 638.478 62.8744 637.607 62.8744 636.489C62.8744 635.362 62.5624 634.483 61.9384 633.85C61.3231 633.217 60.4347 632.901 59.2734 632.901H57.6354V640.025H59.2734ZM78.8206 632.004V641H77.6376V634.292L74.6476 641H73.8156L70.8126 634.279V641H69.6296V632.004H70.9036L74.2316 639.44L77.5596 632.004H78.8206ZM90.2779 632.004V641H89.0949V634.292L86.1049 641H85.2729L82.2699 634.279V641H81.0869V632.004H82.3609L85.6889 639.44L89.0169 632.004H90.2779ZM101.735 632.004V641H100.552V634.292L97.5622 641H96.7302L93.7272 634.279V641H92.5442V632.004H93.8182L97.1462 639.44L100.474 632.004H101.735ZM114.071 631.939L111.12 637.581V641H109.937V637.581L106.973 631.939H108.286L110.522 636.528L112.758 631.939H114.071ZM121.923 631.939L118.972 637.581V641H117.789V637.581L114.825 631.939H116.138L118.374 636.528L120.61 631.939H121.923ZM129.775 631.939L126.824 637.581V641H125.641V637.581L122.677 631.939H123.99L126.226 636.528L128.462 631.939H129.775ZM137.627 631.939L134.676 637.581V641H133.493V637.581L130.529 631.939H131.842L134.078 636.528L136.314 631.939H137.627Z" fill="#878787"/>
<path d="M28.96 695.112C28.1813 695.112 27.4773 694.979 26.848 694.712C26.2293 694.445 25.7387 694.061 25.376 693.56C25.0133 693.059 24.8267 692.467 24.816 691.784H27.216C27.248 692.243 27.408 692.605 27.696 692.872C27.9947 693.139 28.4 693.272 28.912 693.272C29.4347 693.272 29.8453 693.149 30.144 692.904C30.4427 692.648 30.592 692.317 30.592 691.912C30.592 691.581 30.4907 691.309 30.288 691.096C30.0853 690.883 29.8293 690.717 29.52 690.6C29.2213 690.472 28.8053 690.333 28.272 690.184C27.5467 689.971 26.9547 689.763 26.496 689.56C26.048 689.347 25.6587 689.032 25.328 688.616C25.008 688.189 24.848 687.624 24.848 686.92C24.848 686.259 25.0133 685.683 25.344 685.192C25.6747 684.701 26.1387 684.328 26.736 684.072C27.3333 683.805 28.016 683.672 28.784 683.672C29.936 683.672 30.8693 683.955 31.584 684.52C32.3093 685.075 32.7093 685.853 32.784 686.856H30.32C30.2987 686.472 30.1333 686.157 29.824 685.912C29.5253 685.656 29.1253 685.528 28.624 685.528C28.1867 685.528 27.8347 685.64 27.568 685.864C27.312 686.088 27.184 686.413 27.184 686.84C27.184 687.139 27.28 687.389 27.472 687.592C27.6747 687.784 27.92 687.944 28.208 688.072C28.5067 688.189 28.9227 688.328 29.456 688.488C30.1813 688.701 30.7733 688.915 31.232 689.128C31.6907 689.341 32.0853 689.661 32.416 690.088C32.7467 690.515 32.912 691.075 32.912 691.768C32.912 692.365 32.7573 692.92 32.448 693.432C32.1387 693.944 31.6853 694.355 31.088 694.664C30.4907 694.963 29.7813 695.112 28.96 695.112ZM37.782 687.976V692.264C37.782 692.563 37.8513 692.781 37.99 692.92C38.1393 693.048 38.3847 693.112 38.726 693.112H39.766V695H38.358C36.47 695 35.526 694.083 35.526 692.248V687.976H34.47V686.136H35.526V683.944H37.782V686.136H39.766V687.976H37.782ZM41.1211 690.536C41.1211 689.64 41.2971 688.845 41.6491 688.152C42.0118 687.459 42.4971 686.925 43.1051 686.552C43.7238 686.179 44.4118 685.992 45.1691 685.992C45.8305 685.992 46.4065 686.125 46.8971 686.392C47.3985 686.659 47.7985 686.995 48.0971 687.4V686.136H50.3531V695H48.0971V693.704C47.8091 694.12 47.4091 694.467 46.8971 694.744C46.3958 695.011 45.8145 695.144 45.1531 695.144C44.4065 695.144 43.7238 694.952 43.1051 694.568C42.4971 694.184 42.0118 693.645 41.6491 692.952C41.2971 692.248 41.1211 691.443 41.1211 690.536ZM48.0971 690.568C48.0971 690.024 47.9905 689.56 47.7771 689.176C47.5638 688.781 47.2758 688.483 46.9131 688.28C46.5505 688.067 46.1611 687.96 45.7451 687.96C45.3291 687.96 44.9451 688.061 44.5931 688.264C44.2411 688.467 43.9531 688.765 43.7291 689.16C43.5158 689.544 43.4091 690.003 43.4091 690.536C43.4091 691.069 43.5158 691.539 43.7291 691.944C43.9531 692.339 44.2411 692.643 44.5931 692.856C44.9558 693.069 45.3398 693.176 45.7451 693.176C46.1611 693.176 46.5505 693.075 46.9131 692.872C47.2758 692.659 47.5638 692.36 47.7771 691.976C47.9905 691.581 48.0971 691.112 48.0971 690.568ZM55.1009 687.512C55.3889 687.043 55.7622 686.675 56.2209 686.408C56.6902 686.141 57.2235 686.008 57.8209 686.008V688.36H57.2289C56.5249 688.36 55.9915 688.525 55.6289 688.856C55.2769 689.187 55.1009 689.763 55.1009 690.584V695H52.8609V686.136H55.1009V687.512ZM62.2576 687.976V692.264C62.2576 692.563 62.327 692.781 62.4656 692.92C62.615 693.048 62.8603 693.112 63.2016 693.112H64.2416V695H62.8336C60.9456 695 60.0016 694.083 60.0016 692.248V687.976H58.9456V686.136H60.0016V683.944H62.2576V686.136H64.2416V687.976H62.2576ZM81.3132 686.008C82.4012 686.008 83.2759 686.344 83.9372 687.016C84.6092 687.677 84.9452 688.605 84.9452 689.8V695H82.7052V690.104C82.7052 689.411 82.5292 688.883 82.1772 688.52C81.8252 688.147 81.3452 687.96 80.7372 687.96C80.1292 687.96 79.6439 688.147 79.2812 688.52C78.9292 688.883 78.7532 689.411 78.7532 690.104V695H76.5132V690.104C76.5132 689.411 76.3372 688.883 75.9852 688.52C75.6332 688.147 75.1532 687.96 74.5452 687.96C73.9266 687.96 73.4359 688.147 73.0732 688.52C72.7212 688.883 72.5452 689.411 72.5452 690.104V695H70.3052V686.136H72.5452V687.208C72.8332 686.835 73.2012 686.541 73.6492 686.328C74.1079 686.115 74.6092 686.008 75.1532 686.008C75.8466 686.008 76.4652 686.157 77.0092 686.456C77.5532 686.744 77.9746 687.16 78.2732 687.704C78.5612 687.192 78.9772 686.781 79.5212 686.472C80.0759 686.163 80.6732 686.008 81.3132 686.008ZM88.5269 685.08C88.1322 685.08 87.8015 684.957 87.5349 684.712C87.2789 684.456 87.1509 684.141 87.1509 683.768C87.1509 683.395 87.2789 683.085 87.5349 682.84C87.8015 682.584 88.1322 682.456 88.5269 682.456C88.9215 682.456 89.2469 682.584 89.5029 682.84C89.7695 683.085 89.9029 683.395 89.9029 683.768C89.9029 684.141 89.7695 684.456 89.5029 684.712C89.2469 684.957 88.9215 685.08 88.5269 685.08ZM89.6309 686.136V695H87.3909V686.136H89.6309ZM94.404 683.16V695H92.164V683.16H94.404ZM105.177 690.376C105.177 690.696 105.156 690.984 105.113 691.24H98.6331C98.6865 691.88 98.9105 692.381 99.3051 692.744C99.6998 693.107 100.185 693.288 100.761 693.288C101.593 693.288 102.185 692.931 102.537 692.216H104.953C104.697 693.069 104.206 693.773 103.481 694.328C102.756 694.872 101.865 695.144 100.809 695.144C99.9558 695.144 99.1878 694.957 98.5051 694.584C97.8331 694.2 97.3051 693.661 96.9211 692.968C96.5478 692.275 96.3611 691.475 96.3611 690.568C96.3611 689.651 96.5478 688.845 96.9211 688.152C97.2945 687.459 97.8171 686.925 98.4891 686.552C99.1611 686.179 99.9345 685.992 100.809 685.992C101.652 685.992 102.404 686.173 103.065 686.536C103.737 686.899 104.254 687.416 104.617 688.088C104.99 688.749 105.177 689.512 105.177 690.376ZM102.857 689.736C102.846 689.16 102.638 688.701 102.233 688.36C101.828 688.008 101.332 687.832 100.745 687.832C100.19 687.832 99.7211 688.003 99.3371 688.344C98.9638 688.675 98.7345 689.139 98.6491 689.736H102.857ZM106.556 690.536C106.556 689.64 106.732 688.845 107.084 688.152C107.447 687.459 107.932 686.925 108.54 686.552C109.159 686.179 109.847 685.992 110.604 685.992C111.265 685.992 111.841 686.125 112.332 686.392C112.833 686.659 113.233 686.995 113.532 687.4V686.136H115.788V695H113.532V693.704C113.244 694.12 112.844 694.467 112.332 694.744C111.831 695.011 111.249 695.144 110.588 695.144C109.841 695.144 109.159 694.952 108.54 694.568C107.932 694.184 107.447 693.645 107.084 692.952C106.732 692.248 106.556 691.443 106.556 690.536ZM113.532 690.568C113.532 690.024 113.425 689.56 113.212 689.176C112.999 688.781 112.711 688.483 112.348 688.28C111.985 688.067 111.596 687.96 111.18 687.96C110.764 687.96 110.38 688.061 110.028 688.264C109.676 688.467 109.388 688.765 109.164 689.16C108.951 689.544 108.844 690.003 108.844 690.536C108.844 691.069 108.951 691.539 109.164 691.944C109.388 692.339 109.676 692.643 110.028 692.856C110.391 693.069 110.775 693.176 111.18 693.176C111.596 693.176 111.985 693.075 112.348 692.872C112.711 692.659 112.999 692.36 113.212 691.976C113.425 691.581 113.532 691.112 113.532 690.568ZM121.768 685.992C122.429 685.992 123.011 686.125 123.512 686.392C124.013 686.648 124.408 686.984 124.696 687.4V686.136H126.952V695.064C126.952 695.885 126.787 696.616 126.456 697.256C126.125 697.907 125.629 698.419 124.968 698.792C124.307 699.176 123.507 699.368 122.568 699.368C121.309 699.368 120.275 699.075 119.464 698.488C118.664 697.901 118.211 697.101 118.104 696.088H120.328C120.445 696.493 120.696 696.813 121.08 697.048C121.475 697.293 121.949 697.416 122.504 697.416C123.155 697.416 123.683 697.219 124.088 696.824C124.493 696.44 124.696 695.853 124.696 695.064V693.688C124.408 694.104 124.008 694.451 123.496 694.728C122.995 695.005 122.419 695.144 121.768 695.144C121.021 695.144 120.339 694.952 119.72 694.568C119.101 694.184 118.611 693.645 118.248 692.952C117.896 692.248 117.72 691.443 117.72 690.536C117.72 689.64 117.896 688.845 118.248 688.152C118.611 687.459 119.096 686.925 119.704 686.552C120.323 686.179 121.011 685.992 121.768 685.992ZM124.696 690.568C124.696 690.024 124.589 689.56 124.376 689.176C124.163 688.781 123.875 688.483 123.512 688.28C123.149 688.067 122.76 687.96 122.344 687.96C121.928 687.96 121.544 688.061 121.192 688.264C120.84 688.467 120.552 688.765 120.328 689.16C120.115 689.544 120.008 690.003 120.008 690.536C120.008 691.069 120.115 691.539 120.328 691.944C120.552 692.339 120.84 692.643 121.192 692.856C121.555 693.069 121.939 693.176 122.344 693.176C122.76 693.176 123.149 693.075 123.512 692.872C123.875 692.659 124.163 692.36 124.376 691.976C124.589 691.581 124.696 691.112 124.696 690.568ZM137.7 690.376C137.7 690.696 137.678 690.984 137.636 691.24H131.156C131.209 691.88 131.433 692.381 131.828 692.744C132.222 693.107 132.708 693.288 133.284 693.288C134.116 693.288 134.708 692.931 135.06 692.216H137.476C137.22 693.069 136.729 693.773 136.004 694.328C135.278 694.872 134.388 695.144 133.332 695.144C132.478 695.144 131.71 694.957 131.028 694.584C130.356 694.2 129.828 693.661 129.444 692.968C129.07 692.275 128.884 691.475 128.884 690.568C128.884 689.651 129.07 688.845 129.444 688.152C129.817 687.459 130.34 686.925 131.012 686.552C131.684 686.179 132.457 685.992 133.332 685.992C134.174 685.992 134.926 686.173 135.588 686.536C136.26 686.899 136.777 687.416 137.14 688.088C137.513 688.749 137.7 689.512 137.7 690.376ZM135.38 689.736C135.369 689.16 135.161 688.701 134.756 688.36C134.35 688.008 133.854 687.832 133.268 687.832C132.713 687.832 132.244 688.003 131.86 688.344C131.486 688.675 131.257 689.139 131.172 689.736H135.38ZM147.659 698.152C146.624 697.149 145.819 695.869 145.243 694.312C144.678 692.755 144.395 691.085 144.395 689.304C144.395 687.48 144.694 685.768 145.291 684.168C145.888 682.557 146.758 681.24 147.899 680.216H150.155V680.424C148.982 681.544 148.086 682.888 147.467 684.456C146.859 686.024 146.555 687.64 146.555 689.304C146.555 690.925 146.843 692.493 147.419 694.008C148.006 695.512 148.838 696.819 149.915 697.928V698.152H147.659ZM157.121 695L154.113 691.224V695H151.873V683.16H154.113V689.896L157.089 686.136H160.001L156.097 690.584L160.033 695H157.121ZM172.544 686.008C173.632 686.008 174.507 686.344 175.168 687.016C175.84 687.677 176.176 688.605 176.176 689.8V695H173.936V690.104C173.936 689.411 173.76 688.883 173.408 688.52C173.056 688.147 172.576 687.96 171.968 687.96C171.36 687.96 170.875 688.147 170.512 688.52C170.16 688.883 169.984 689.411 169.984 690.104V695H167.744V690.104C167.744 689.411 167.568 688.883 167.216 688.52C166.864 688.147 166.384 687.96 165.776 687.96C165.158 687.96 164.667 688.147 164.304 688.52C163.952 688.883 163.776 689.411 163.776 690.104V695H161.536V686.136H163.776V687.208C164.064 686.835 164.432 686.541 164.88 686.328C165.339 686.115 165.84 686.008 166.384 686.008C167.078 686.008 167.696 686.157 168.24 686.456C168.784 686.744 169.206 687.16 169.504 687.704C169.792 687.192 170.208 686.781 170.752 686.472C171.307 686.163 171.904 686.008 172.544 686.008ZM178.046 698.152V697.928C179.123 696.819 179.95 695.512 180.526 694.008C181.113 692.493 181.406 690.925 181.406 689.304C181.406 687.64 181.097 686.024 180.478 684.456C179.87 682.888 178.979 681.544 177.806 680.424V680.216H180.062C181.203 681.24 182.073 682.557 182.67 684.168C183.267 685.768 183.566 687.48 183.566 689.304C183.566 691.085 183.278 692.755 182.702 694.312C182.137 695.869 181.337 697.149 180.302 698.152H178.046Z" fill="#878787"/>
<rect x="24.5" y="707.5" width="350" height="40" rx="14.5" fill="white" stroke="#D9D9D9"/>
<path d="M53.501 728.165C53.501 728.39 53.488 728.629 53.462 728.88H47.768C47.8113 729.582 48.0497 730.132 48.483 730.531C48.925 730.921 49.458 731.116 50.082 731.116C50.5933 731.116 51.018 730.999 51.356 730.765C51.7027 730.522 51.9453 730.202 52.084 729.803H53.358C53.1673 730.488 52.786 731.047 52.214 731.48C51.642 731.905 50.9313 732.117 50.082 732.117C49.406 732.117 48.7993 731.965 48.262 731.662C47.7333 731.359 47.3173 730.93 47.014 730.375C46.7107 729.812 46.559 729.162 46.559 728.425C46.559 727.688 46.7063 727.043 47.001 726.488C47.2957 725.933 47.7073 725.509 48.236 725.214C48.7733 724.911 49.3887 724.759 50.082 724.759C50.758 724.759 51.356 724.906 51.876 725.201C52.396 725.496 52.7947 725.903 53.072 726.423C53.358 726.934 53.501 727.515 53.501 728.165ZM52.279 727.918C52.279 727.467 52.1793 727.082 51.98 726.761C51.7807 726.432 51.5077 726.185 51.161 726.02C50.823 725.847 50.446 725.76 50.03 725.76C49.432 725.76 48.9207 725.951 48.496 726.332C48.08 726.713 47.8417 727.242 47.781 727.918H52.279ZM55.6995 732.078C55.4742 732.078 55.2835 732 55.1275 731.844C54.9715 731.688 54.8935 731.497 54.8935 731.272C54.8935 731.047 54.9715 730.856 55.1275 730.7C55.2835 730.544 55.4742 730.466 55.6995 730.466C55.9162 730.466 56.0982 730.544 56.2455 730.7C56.4015 730.856 56.4795 731.047 56.4795 731.272C56.4795 731.497 56.4015 731.688 56.2455 731.844C56.0982 732 55.9162 732.078 55.6995 732.078ZM61.25 724.759C61.8653 724.759 62.4027 724.893 62.862 725.162C63.33 725.431 63.6767 725.769 63.902 726.176V724.876H65.098V732.156C65.098 732.806 64.9593 733.382 64.682 733.885C64.4047 734.396 64.006 734.795 63.486 735.081C62.9747 735.367 62.3767 735.51 61.692 735.51C60.756 735.51 59.976 735.289 59.352 734.847C58.728 734.405 58.3597 733.803 58.247 733.04H59.417C59.547 733.473 59.8157 733.82 60.223 734.08C60.6303 734.349 61.12 734.483 61.692 734.483C62.342 734.483 62.8707 734.279 63.278 733.872C63.694 733.465 63.902 732.893 63.902 732.156V730.661C63.668 731.077 63.3213 731.424 62.862 731.701C62.4027 731.978 61.8653 732.117 61.25 732.117C60.6173 732.117 60.041 731.961 59.521 731.649C59.0097 731.337 58.6067 730.899 58.312 730.336C58.0173 729.773 57.87 729.131 57.87 728.412C57.87 727.684 58.0173 727.047 58.312 726.501C58.6067 725.946 59.0097 725.517 59.521 725.214C60.041 724.911 60.6173 724.759 61.25 724.759ZM63.902 728.425C63.902 727.888 63.7937 727.42 63.577 727.021C63.3603 726.622 63.0657 726.319 62.693 726.111C62.329 725.894 61.926 725.786 61.484 725.786C61.042 725.786 60.639 725.89 60.275 726.098C59.911 726.306 59.6207 726.609 59.404 727.008C59.1873 727.407 59.079 727.875 59.079 728.412C59.079 728.958 59.1873 729.435 59.404 729.842C59.6207 730.241 59.911 730.548 60.275 730.765C60.639 730.973 61.042 731.077 61.484 731.077C61.926 731.077 62.329 730.973 62.693 730.765C63.0657 730.548 63.3603 730.241 63.577 729.842C63.7937 729.435 63.902 728.962 63.902 728.425ZM67.7342 732.078C67.5088 732.078 67.3182 732 67.1622 731.844C67.0062 731.688 66.9282 731.497 66.9282 731.272C66.9282 731.047 67.0062 730.856 67.1622 730.7C67.3182 730.544 67.5088 730.466 67.7342 730.466C67.9508 730.466 68.1328 730.544 68.2802 730.7C68.4362 730.856 68.5142 731.047 68.5142 731.272C68.5142 731.497 68.4362 731.688 68.2802 731.844C68.1328 732 67.9508 732.078 67.7342 732.078ZM75.5935 727.112C75.1082 726.921 74.7355 726.644 74.4755 726.28C74.2155 725.916 74.0855 725.474 74.0855 724.954C74.0855 724.486 74.2025 724.066 74.4365 723.693C74.6705 723.312 75.0172 723.013 75.4765 722.796C75.9445 722.571 76.5078 722.458 77.1665 722.458C77.8252 722.458 78.3842 722.571 78.8435 722.796C79.3115 723.013 79.6625 723.312 79.8965 723.693C80.1392 724.066 80.2605 724.486 80.2605 724.954C80.2605 725.457 80.1262 725.899 79.8575 726.28C79.5888 726.653 79.2205 726.93 78.7525 727.112C79.2898 727.277 79.7145 727.567 80.0265 727.983C80.3472 728.39 80.5075 728.884 80.5075 729.465C80.5075 730.028 80.3688 730.522 80.0915 730.947C79.8142 731.363 79.4198 731.688 78.9085 731.922C78.4058 732.147 77.8252 732.26 77.1665 732.26C76.5078 732.26 75.9272 732.147 75.4245 731.922C74.9305 731.688 74.5448 731.363 74.2675 730.947C73.9902 730.522 73.8515 730.028 73.8515 729.465C73.8515 728.884 74.0075 728.386 74.3195 727.97C74.6315 727.554 75.0562 727.268 75.5935 727.112ZM79.1165 725.097C79.1165 724.568 78.9432 724.161 78.5965 723.875C78.2498 723.589 77.7732 723.446 77.1665 723.446C76.5685 723.446 76.0962 723.589 75.7495 723.875C75.4028 724.161 75.2295 724.573 75.2295 725.11C75.2295 725.595 75.4072 725.985 75.7625 726.28C76.1265 726.575 76.5945 726.722 77.1665 726.722C77.7472 726.722 78.2152 726.575 78.5705 726.28C78.9345 725.977 79.1165 725.582 79.1165 725.097ZM77.1665 727.632C76.5252 727.632 76.0008 727.784 75.5935 728.087C75.1862 728.382 74.9825 728.828 74.9825 729.426C74.9825 729.981 75.1775 730.427 75.5675 730.765C75.9662 731.103 76.4992 731.272 77.1665 731.272C77.8338 731.272 78.3625 731.103 78.7525 730.765C79.1425 730.427 79.3375 729.981 79.3375 729.426C79.3375 728.845 79.1382 728.403 78.7395 728.1C78.3408 727.788 77.8165 727.632 77.1665 727.632ZM82.0527 729.907V729.01L86.6157 722.692H88.0327V728.88H89.3327V729.907H88.0327V732H86.8627V729.907H82.0527ZM86.9147 723.927L83.4177 728.88H86.9147V723.927ZM94.4743 724.967C94.5349 724.17 94.8426 723.546 95.3973 723.095C95.9519 722.644 96.6713 722.419 97.5553 722.419C98.1446 722.419 98.6516 722.527 99.0763 722.744C99.5096 722.952 99.8346 723.238 100.051 723.602C100.277 723.966 100.389 724.378 100.389 724.837C100.389 725.374 100.233 725.838 99.9213 726.228C99.6179 726.618 99.2193 726.869 98.7253 726.982V727.047C99.2886 727.186 99.7349 727.459 100.064 727.866C100.394 728.273 100.558 728.806 100.558 729.465C100.558 729.959 100.446 730.405 100.22 730.804C99.9949 731.194 99.6569 731.502 99.2063 731.727C98.7556 731.952 98.2139 732.065 97.5813 732.065C96.6626 732.065 95.9086 731.827 95.3193 731.35C94.7299 730.865 94.4006 730.18 94.3313 729.296H95.4753C95.5359 729.816 95.7483 730.241 96.1123 730.57C96.4763 730.899 96.9616 731.064 97.5683 731.064C98.1749 731.064 98.6343 730.908 98.9463 730.596C99.2669 730.275 99.4273 729.864 99.4273 729.361C99.4273 728.711 99.2106 728.243 98.7773 727.957C98.3439 727.671 97.6896 727.528 96.8143 727.528H96.5153V726.54H96.8273C97.6246 726.531 98.2269 726.401 98.6343 726.15C99.0416 725.89 99.2453 725.491 99.2453 724.954C99.2453 724.495 99.0936 724.126 98.7903 723.849C98.4956 723.572 98.0709 723.433 97.5163 723.433C96.9789 723.433 96.5456 723.572 96.2163 723.849C95.8869 724.126 95.6919 724.499 95.6313 724.967H94.4743ZM102.273 731.051C103.373 730.167 104.236 729.443 104.86 728.88C105.484 728.308 106.008 727.714 106.433 727.099C106.866 726.475 107.083 725.864 107.083 725.266C107.083 724.703 106.944 724.261 106.667 723.94C106.398 723.611 105.96 723.446 105.354 723.446C104.764 723.446 104.305 723.632 103.976 724.005C103.655 724.369 103.482 724.859 103.456 725.474H102.312C102.346 724.503 102.641 723.754 103.196 723.225C103.75 722.696 104.465 722.432 105.341 722.432C106.233 722.432 106.94 722.679 107.46 723.173C107.988 723.667 108.253 724.347 108.253 725.214C108.253 725.933 108.036 726.635 107.603 727.32C107.178 727.996 106.693 728.594 106.147 729.114C105.601 729.625 104.903 730.223 104.054 730.908H108.526V731.896H102.273V731.051ZM110.153 727.203C110.153 725.712 110.396 724.551 110.881 723.719C111.366 722.878 112.216 722.458 113.429 722.458C114.634 722.458 115.479 722.878 115.964 723.719C116.449 724.551 116.692 725.712 116.692 727.203C116.692 728.72 116.449 729.898 115.964 730.739C115.479 731.58 114.634 732 113.429 732C112.216 732 111.366 731.58 110.881 730.739C110.396 729.898 110.153 728.72 110.153 727.203ZM115.522 727.203C115.522 726.449 115.47 725.812 115.366 725.292C115.271 724.763 115.067 724.339 114.755 724.018C114.452 723.697 114.01 723.537 113.429 723.537C112.84 723.537 112.389 723.697 112.077 724.018C111.774 724.339 111.57 724.763 111.466 725.292C111.371 725.812 111.323 726.449 111.323 727.203C111.323 727.983 111.371 728.637 111.466 729.166C111.57 729.695 111.774 730.119 112.077 730.44C112.389 730.761 112.84 730.921 113.429 730.921C114.01 730.921 114.452 730.761 114.755 730.44C115.067 730.119 115.271 729.695 115.366 729.166C115.47 728.637 115.522 727.983 115.522 727.203Z" fill="#878787"/>
<path d="M35.136 425.832L31.04 437H28.32L24.224 425.832H26.624L29.696 434.712L32.752 425.832H35.136ZM45.039 432.376C45.039 432.696 45.0177 432.984 44.975 433.24H38.495C38.5483 433.88 38.7723 434.381 39.167 434.744C39.5617 435.107 40.047 435.288 40.623 435.288C41.455 435.288 42.047 434.931 42.399 434.216H44.815C44.559 435.069 44.0683 435.773 43.343 436.328C42.6177 436.872 41.727 437.144 40.671 437.144C39.8177 437.144 39.0497 436.957 38.367 436.584C37.695 436.2 37.167 435.661 36.783 434.968C36.4097 434.275 36.223 433.475 36.223 432.568C36.223 431.651 36.4097 430.845 36.783 430.152C37.1563 429.459 37.679 428.925 38.351 428.552C39.023 428.179 39.7963 427.992 40.671 427.992C41.5137 427.992 42.2657 428.173 42.927 428.536C43.599 428.899 44.1163 429.416 44.479 430.088C44.8523 430.749 45.039 431.512 45.039 432.376ZM42.719 431.736C42.7083 431.16 42.5003 430.701 42.095 430.36C41.6897 430.008 41.1937 429.832 40.607 429.832C40.0523 429.832 39.583 430.003 39.199 430.344C38.8257 430.675 38.5963 431.139 38.511 431.736H42.719ZM51.986 428.008C52.658 428.008 53.2553 428.157 53.778 428.456C54.3007 428.744 54.706 429.176 54.994 429.752C55.2927 430.317 55.442 431 55.442 431.8V437H53.202V432.104C53.202 431.4 53.026 430.861 52.674 430.488C52.322 430.104 51.842 429.912 51.234 429.912C50.6153 429.912 50.1247 430.104 49.762 430.488C49.41 430.861 49.234 431.4 49.234 432.104V437H46.994V425.16H49.234V429.24C49.522 428.856 49.906 428.557 50.386 428.344C50.866 428.12 51.3993 428.008 51.986 428.008ZM59.0281 427.08C58.6335 427.08 58.3028 426.957 58.0361 426.712C57.7801 426.456 57.6521 426.141 57.6521 425.768C57.6521 425.395 57.7801 425.085 58.0361 424.84C58.3028 424.584 58.6335 424.456 59.0281 424.456C59.4228 424.456 59.7481 424.584 60.0041 424.84C60.2708 425.085 60.4041 425.395 60.4041 425.768C60.4041 426.141 60.2708 426.456 60.0041 426.712C59.7481 426.957 59.4228 427.08 59.0281 427.08ZM60.1321 428.136V437H57.8921V428.136H60.1321ZM62.0892 432.568C62.0892 431.651 62.2759 430.851 62.6492 430.168C63.0226 429.475 63.5399 428.941 64.2012 428.568C64.8626 428.184 65.6199 427.992 66.4732 427.992C67.5719 427.992 68.4786 428.269 69.1932 428.824C69.9186 429.368 70.4039 430.136 70.6492 431.128H68.2332C68.1052 430.744 67.8866 430.445 67.5772 430.232C67.2786 430.008 66.9052 429.896 66.4572 429.896C65.8172 429.896 65.3106 430.131 64.9372 430.6C64.5639 431.059 64.3772 431.715 64.3772 432.568C64.3772 433.411 64.5639 434.067 64.9372 434.536C65.3106 434.995 65.8172 435.224 66.4572 435.224C67.3639 435.224 67.9559 434.819 68.2332 434.008H70.6492C70.4039 434.968 69.9186 435.731 69.1932 436.296C68.4679 436.861 67.5612 437.144 66.4732 437.144C65.6199 437.144 64.8626 436.957 64.2012 436.584C63.5399 436.2 63.0226 435.667 62.6492 434.984C62.2759 434.291 62.0892 433.485 62.0892 432.568ZM74.8502 425.16V437H72.6102V425.16H74.8502ZM85.6234 432.376C85.6234 432.696 85.602 432.984 85.5594 433.24H79.0794C79.1327 433.88 79.3567 434.381 79.7514 434.744C80.146 435.107 80.6314 435.288 81.2074 435.288C82.0394 435.288 82.6314 434.931 82.9834 434.216H85.3994C85.1434 435.069 84.6527 435.773 83.9274 436.328C83.202 436.872 82.3114 437.144 81.2554 437.144C80.402 437.144 79.634 436.957 78.9514 436.584C78.2794 436.2 77.7514 435.661 77.3674 434.968C76.994 434.275 76.8074 433.475 76.8074 432.568C76.8074 431.651 76.994 430.845 77.3674 430.152C77.7407 429.459 78.2634 428.925 78.9354 428.552C79.6074 428.179 80.3807 427.992 81.2554 427.992C82.098 427.992 82.85 428.173 83.5114 428.536C84.1834 428.899 84.7007 429.416 85.0634 430.088C85.4367 430.749 85.6234 431.512 85.6234 432.376ZM83.3034 431.736C83.2927 431.16 83.0847 430.701 82.6794 430.36C82.274 430.008 81.778 429.832 81.1914 429.832C80.6367 429.832 80.1674 430.003 79.7834 430.344C79.41 430.675 79.1807 431.139 79.0954 431.736H83.3034Z" fill="#878787"/>
<rect x="24.5" y="449.5" width="350" height="40" rx="14.5" fill="white" stroke="#D9D9D9"/>
<path d="M52.578 464.939V465.901H50.108V474H48.925V465.901H46.442V464.939H52.578ZM57.4012 474.117C56.7339 474.117 56.1272 473.965 55.5812 473.662C55.0439 473.359 54.6192 472.93 54.3072 472.375C54.0039 471.812 53.8522 471.162 53.8522 470.425C53.8522 469.697 54.0082 469.056 54.3202 468.501C54.6409 467.938 55.0742 467.509 55.6202 467.214C56.1662 466.911 56.7772 466.759 57.4532 466.759C58.1292 466.759 58.7402 466.911 59.2862 467.214C59.8322 467.509 60.2612 467.933 60.5732 468.488C60.8939 469.043 61.0542 469.688 61.0542 470.425C61.0542 471.162 60.8895 471.812 60.5602 472.375C60.2395 472.93 59.8019 473.359 59.2472 473.662C58.6925 473.965 58.0772 474.117 57.4012 474.117ZM57.4012 473.077C57.8259 473.077 58.2245 472.977 58.5972 472.778C58.9699 472.579 59.2689 472.28 59.4942 471.881C59.7282 471.482 59.8452 470.997 59.8452 470.425C59.8452 469.853 59.7325 469.368 59.5072 468.969C59.2819 468.57 58.9872 468.276 58.6232 468.085C58.2592 467.886 57.8649 467.786 57.4402 467.786C57.0069 467.786 56.6082 467.886 56.2442 468.085C55.8889 468.276 55.6029 468.57 55.3862 468.969C55.1695 469.368 55.0612 469.853 55.0612 470.425C55.0612 471.006 55.1652 471.495 55.3732 471.894C55.5899 472.293 55.8759 472.592 56.2312 472.791C56.5865 472.982 56.9765 473.077 57.4012 473.077ZM69.0056 466.876L64.7156 477.354H63.4936L64.8976 473.922L62.0246 466.876H63.3376L65.5736 472.648L67.7836 466.876H69.0056ZM73.5618 474.117C72.8945 474.117 72.2878 473.965 71.7418 473.662C71.2045 473.359 70.7798 472.93 70.4678 472.375C70.1645 471.812 70.0128 471.162 70.0128 470.425C70.0128 469.697 70.1688 469.056 70.4808 468.501C70.8015 467.938 71.2348 467.509 71.7808 467.214C72.3268 466.911 72.9378 466.759 73.6138 466.759C74.2898 466.759 74.9008 466.911 75.4468 467.214C75.9928 467.509 76.4218 467.933 76.7338 468.488C77.0545 469.043 77.2148 469.688 77.2148 470.425C77.2148 471.162 77.0502 471.812 76.7208 472.375C76.4002 472.93 75.9625 473.359 75.4078 473.662C74.8532 473.965 74.2378 474.117 73.5618 474.117ZM73.5618 473.077C73.9865 473.077 74.3852 472.977 74.7578 472.778C75.1305 472.579 75.4295 472.28 75.6548 471.881C75.8888 471.482 76.0058 470.997 76.0058 470.425C76.0058 469.853 75.8932 469.368 75.6678 468.969C75.4425 468.57 75.1478 468.276 74.7838 468.085C74.4198 467.886 74.0255 467.786 73.6008 467.786C73.1675 467.786 72.7688 467.886 72.4048 468.085C72.0495 468.276 71.7635 468.57 71.5468 468.969C71.3302 469.368 71.2218 469.853 71.2218 470.425C71.2218 471.006 71.3258 471.495 71.5338 471.894C71.7505 472.293 72.0365 472.592 72.3918 472.791C72.7472 472.982 73.1372 473.077 73.5618 473.077ZM80.4733 467.851V472.05C80.4733 472.397 80.5469 472.644 80.6943 472.791C80.8416 472.93 81.0973 472.999 81.4613 472.999H82.3323V474H81.2663C80.6076 474 80.1136 473.848 79.7843 473.545C79.4549 473.242 79.2903 472.743 79.2903 472.05V467.851H78.3673V466.876H79.2903V465.082H80.4733V466.876H82.3323V467.851H80.4733ZM83.5836 470.412C83.5836 469.684 83.7309 469.047 84.0256 468.501C84.3203 467.946 84.7233 467.517 85.2346 467.214C85.7546 466.911 86.3309 466.759 86.9636 466.759C87.5876 466.759 88.1293 466.893 88.5886 467.162C89.0479 467.431 89.3903 467.769 89.6156 468.176V466.876H90.8116V474H89.6156V472.674C89.3816 473.09 89.0306 473.437 88.5626 473.714C88.1033 473.983 87.5659 474.117 86.9506 474.117C86.3179 474.117 85.7459 473.961 85.2346 473.649C84.7233 473.337 84.3203 472.899 84.0256 472.336C83.7309 471.773 83.5836 471.131 83.5836 470.412ZM89.6156 470.425C89.6156 469.888 89.5073 469.42 89.2906 469.021C89.0739 468.622 88.7793 468.319 88.4066 468.111C88.0426 467.894 87.6396 467.786 87.1976 467.786C86.7556 467.786 86.3526 467.89 85.9886 468.098C85.6246 468.306 85.3343 468.609 85.1176 469.008C84.9009 469.407 84.7926 469.875 84.7926 470.412C84.7926 470.958 84.9009 471.435 85.1176 471.842C85.3343 472.241 85.6246 472.548 85.9886 472.765C86.3526 472.973 86.7556 473.077 87.1976 473.077C87.6396 473.077 88.0426 472.973 88.4066 472.765C88.7793 472.548 89.0739 472.241 89.2906 471.842C89.5073 471.435 89.6156 470.962 89.6156 470.425ZM103.778 464.939V474H102.595V469.892H97.9796V474H96.7966V464.939H97.9796V468.917H102.595V464.939H103.778ZM106.669 465.719C106.443 465.719 106.253 465.641 106.097 465.485C105.941 465.329 105.863 465.138 105.863 464.913C105.863 464.688 105.941 464.497 106.097 464.341C106.253 464.185 106.443 464.107 106.669 464.107C106.885 464.107 107.067 464.185 107.215 464.341C107.371 464.497 107.449 464.688 107.449 464.913C107.449 465.138 107.371 465.329 107.215 465.485C107.067 465.641 106.885 465.719 106.669 465.719ZM107.241 466.876V474H106.058V466.876H107.241ZM110.7 464.38V474H109.517V464.38H110.7ZM119.294 466.876V474H118.111V472.947C117.886 473.311 117.569 473.597 117.162 473.805C116.763 474.004 116.321 474.104 115.836 474.104C115.281 474.104 114.783 473.991 114.341 473.766C113.899 473.532 113.548 473.185 113.288 472.726C113.037 472.267 112.911 471.708 112.911 471.049V466.876H114.081V470.893C114.081 471.595 114.259 472.137 114.614 472.518C114.969 472.891 115.455 473.077 116.07 473.077C116.703 473.077 117.201 472.882 117.565 472.492C117.929 472.102 118.111 471.534 118.111 470.789V466.876H119.294ZM125.269 474L123.579 471.348L121.954 474H120.719L123.02 470.464L120.719 466.876H122.058L123.748 469.515L125.36 466.876H126.595L124.307 470.399L126.608 474H125.269ZM133.422 471.257C132.98 471.257 132.603 471.105 132.291 470.802C131.988 470.49 131.836 470.113 131.836 469.671C131.836 469.22 131.988 468.843 132.291 468.54C132.603 468.228 132.98 468.072 133.422 468.072C133.873 468.072 134.254 468.228 134.566 468.54C134.878 468.843 135.034 469.22 135.034 469.671C135.034 470.113 134.878 470.49 134.566 470.802C134.254 471.105 133.873 471.257 133.422 471.257ZM144.806 469.476L147.588 474H146.249L144.078 470.464L142.011 474H140.698L143.467 469.476L140.685 464.939H142.011L144.195 468.488L146.275 464.939H147.601L144.806 469.476ZM155.779 464.939L152.828 470.581V474H151.645V470.581L148.681 464.939H149.994L152.23 469.528L154.466 464.939H155.779ZM158.288 472.973H162.708V474H156.884V473.064L161.278 465.966H156.936V464.939H162.682V465.875L158.288 472.973ZM173.896 465.524L170.282 474H169.086L172.752 465.641H167.734V464.627H173.896V465.524ZM177.184 469.112C176.699 468.921 176.326 468.644 176.066 468.28C175.806 467.916 175.676 467.474 175.676 466.954C175.676 466.486 175.793 466.066 176.027 465.693C176.261 465.312 176.608 465.013 177.067 464.796C177.535 464.571 178.098 464.458 178.757 464.458C179.416 464.458 179.975 464.571 180.434 464.796C180.902 465.013 181.253 465.312 181.487 465.693C181.73 466.066 181.851 466.486 181.851 466.954C181.851 467.457 181.717 467.899 181.448 468.28C181.179 468.653 180.811 468.93 180.343 469.112C180.88 469.277 181.305 469.567 181.617 469.983C181.938 470.39 182.098 470.884 182.098 471.465C182.098 472.028 181.959 472.522 181.682 472.947C181.405 473.363 181.01 473.688 180.499 473.922C179.996 474.147 179.416 474.26 178.757 474.26C178.098 474.26 177.518 474.147 177.015 473.922C176.521 473.688 176.135 473.363 175.858 472.947C175.581 472.522 175.442 472.028 175.442 471.465C175.442 470.884 175.598 470.386 175.91 469.97C176.222 469.554 176.647 469.268 177.184 469.112ZM180.707 467.097C180.707 466.568 180.534 466.161 180.187 465.875C179.84 465.589 179.364 465.446 178.757 465.446C178.159 465.446 177.687 465.589 177.34 465.875C176.993 466.161 176.82 466.573 176.82 467.11C176.82 467.595 176.998 467.985 177.353 468.28C177.717 468.575 178.185 468.722 178.757 468.722C179.338 468.722 179.806 468.575 180.161 468.28C180.525 467.977 180.707 467.582 180.707 467.097ZM178.757 469.632C178.116 469.632 177.591 469.784 177.184 470.087C176.777 470.382 176.573 470.828 176.573 471.426C176.573 471.981 176.768 472.427 177.158 472.765C177.557 473.103 178.09 473.272 178.757 473.272C179.424 473.272 179.953 473.103 180.343 472.765C180.733 472.427 180.928 471.981 180.928 471.426C180.928 470.845 180.729 470.403 180.33 470.1C179.931 469.788 179.407 469.632 178.757 469.632ZM185.45 471.478C185.537 471.972 185.736 472.353 186.048 472.622C186.369 472.891 186.798 473.025 187.335 473.025C188.054 473.025 188.583 472.743 188.921 472.18C189.268 471.617 189.432 470.668 189.415 469.333C189.233 469.723 188.93 470.031 188.505 470.256C188.08 470.473 187.608 470.581 187.088 470.581C186.507 470.581 185.987 470.464 185.528 470.23C185.077 469.987 184.722 469.636 184.462 469.177C184.202 468.718 184.072 468.163 184.072 467.513C184.072 466.586 184.341 465.84 184.878 465.277C185.415 464.705 186.178 464.419 187.166 464.419C188.379 464.419 189.229 464.813 189.714 465.602C190.208 466.391 190.455 467.565 190.455 469.125C190.455 470.217 190.355 471.118 190.156 471.829C189.965 472.54 189.636 473.081 189.168 473.454C188.709 473.827 188.076 474.013 187.27 474.013C186.386 474.013 185.697 473.775 185.203 473.298C184.709 472.821 184.427 472.215 184.358 471.478H185.45ZM187.283 469.58C187.864 469.58 188.34 469.402 188.713 469.047C189.086 468.683 189.272 468.193 189.272 467.578C189.272 466.928 189.09 466.404 188.726 466.005C188.362 465.606 187.851 465.407 187.192 465.407C186.585 465.407 186.1 465.598 185.736 465.979C185.381 466.36 185.203 466.863 185.203 467.487C185.203 468.12 185.381 468.627 185.736 469.008C186.091 469.389 186.607 469.58 187.283 469.58Z" fill="black"/>
<path d="M354.704 467.681L358.473 471.412L362.204 467.644" stroke="#727272" stroke-width="1.5" stroke-linecap="round" stroke-linejoin="round"/>
<path d="M355.333 628.667V632M348.667 628.667V632M344.5 635.334H359.5M346.167 630.334H357.833C358.754 630.334 359.5 631.08 359.5 632V643.667C359.5 644.587 358.754 645.334 357.833 645.334H346.167C345.246 645.334 344.5 644.587 344.5 643.667V632C344.5 631.08 345.246 630.334 346.167 630.334Z" stroke="#1E1E1E" stroke-width="2" stroke-linecap="round" stroke-linejoin="round"/>
<path d="M35 509.832V511.64H30.344V514.504H33.912V516.28H30.344V521H28.104V509.832H35ZM39.1484 513.512C39.4364 513.043 39.8097 512.675 40.2684 512.408C40.7377 512.141 41.271 512.008 41.8684 512.008V514.36H41.2764C40.5724 514.36 40.039 514.525 39.6764 514.856C39.3244 515.187 39.1484 515.763 39.1484 516.584V521H36.9084V512.136H39.1484V513.512ZM47.6331 521.144C46.7798 521.144 46.0118 520.957 45.3291 520.584C44.6465 520.2 44.1078 519.661 43.7131 518.968C43.3291 518.275 43.1371 517.475 43.1371 516.568C43.1371 515.661 43.3345 514.861 43.7291 514.168C44.1345 513.475 44.6838 512.941 45.3771 512.568C46.0705 512.184 46.8438 511.992 47.6971 511.992C48.5505 511.992 49.3238 512.184 50.0171 512.568C50.7105 512.941 51.2545 513.475 51.6491 514.168C52.0545 514.861 52.2571 515.661 52.2571 516.568C52.2571 517.475 52.0491 518.275 51.6331 518.968C51.2278 519.661 50.6731 520.2 49.9691 520.584C49.2758 520.957 48.4971 521.144 47.6331 521.144ZM47.6331 519.192C48.0385 519.192 48.4171 519.096 48.7691 518.904C49.1318 518.701 49.4198 518.403 49.6331 518.008C49.8465 517.613 49.9531 517.133 49.9531 516.568C49.9531 515.725 49.7291 515.08 49.2811 514.632C48.8438 514.173 48.3051 513.944 47.6651 513.944C47.0251 513.944 46.4865 514.173 46.0491 514.632C45.6225 515.08 45.4091 515.725 45.4091 516.568C45.4091 517.411 45.6171 518.061 46.0331 518.52C46.4598 518.968 46.9931 519.192 47.6331 519.192ZM65.2282 512.008C66.3162 512.008 67.1909 512.344 67.8523 513.016C68.5242 513.677 68.8602 514.605 68.8602 515.8V521H66.6202V516.104C66.6202 515.411 66.4442 514.883 66.0922 514.52C65.7402 514.147 65.2602 513.96 64.6522 513.96C64.0442 513.96 63.5589 514.147 63.1962 514.52C62.8442 514.883 62.6682 515.411 62.6682 516.104V521H60.4282V516.104C60.4282 515.411 60.2522 514.883 59.9002 514.52C59.5482 514.147 59.0682 513.96 58.4602 513.96C57.8416 513.96 57.3509 514.147 56.9882 514.52C56.6362 514.883 56.4602 515.411 56.4602 516.104V521H54.2202V512.136H56.4602V513.208C56.7482 512.835 57.1162 512.541 57.5642 512.328C58.0229 512.115 58.5242 512.008 59.0682 512.008C59.7616 512.008 60.3802 512.157 60.9242 512.456C61.4682 512.744 61.8896 513.16 62.1882 513.704C62.4762 513.192 62.8922 512.781 63.4362 512.472C63.9909 512.163 64.5882 512.008 65.2282 512.008Z" fill="#878787"/>
<path d="M214.704 509.832V511.64H211.728V521H209.488V511.64H206.512V509.832H214.704ZM220.594 521.144C219.741 521.144 218.973 520.957 218.29 520.584C217.608 520.2 217.069 519.661 216.674 518.968C216.29 518.275 216.098 517.475 216.098 516.568C216.098 515.661 216.296 514.861 216.69 514.168C217.096 513.475 217.645 512.941 218.338 512.568C219.032 512.184 219.805 511.992 220.658 511.992C221.512 511.992 222.285 512.184 222.978 512.568C223.672 512.941 224.216 513.475 224.61 514.168C225.016 514.861 225.218 515.661 225.218 516.568C225.218 517.475 225.01 518.275 224.594 518.968C224.189 519.661 223.634 520.2 222.93 520.584C222.237 520.957 221.458 521.144 220.594 521.144ZM220.594 519.192C221 519.192 221.378 519.096 221.73 518.904C222.093 518.701 222.381 518.403 222.594 518.008C222.808 517.613 222.914 517.133 222.914 516.568C222.914 515.725 222.69 515.08 222.242 514.632C221.805 514.173 221.266 513.944 220.626 513.944C219.986 513.944 219.448 514.173 219.01 514.632C218.584 515.08 218.37 515.725 218.37 516.568C218.37 517.411 218.578 518.061 218.994 518.52C219.421 518.968 219.954 519.192 220.594 519.192Z" fill="#878787"/>
<rect x="24.5" y="532.5" width="169" height="40" rx="14.5" fill="white" stroke="#D9D9D9"/>
<path d="M41.54 553.243C41.54 553.512 41.5227 553.754 41.488 553.971H36.015C36.0583 554.543 36.2707 555.002 36.652 555.349C37.0333 555.696 37.5013 555.869 38.056 555.869C38.8533 555.869 39.4167 555.535 39.746 554.868H41.345C41.1283 555.527 40.734 556.068 40.162 556.493C39.5987 556.909 38.8967 557.117 38.056 557.117C37.3713 557.117 36.756 556.965 36.21 556.662C35.6727 556.35 35.248 555.917 34.936 555.362C34.6327 554.799 34.481 554.149 34.481 553.412C34.481 552.675 34.6283 552.03 34.923 551.475C35.2263 550.912 35.6467 550.478 36.184 550.175C36.73 549.872 37.354 549.72 38.056 549.72C38.732 549.72 39.3343 549.867 39.863 550.162C40.3917 550.457 40.8033 550.873 41.098 551.41C41.3927 551.939 41.54 552.55 41.54 553.243ZM39.993 552.775C39.9843 552.229 39.7893 551.791 39.408 551.462C39.0267 551.133 38.5543 550.968 37.991 550.968C37.4797 550.968 37.042 551.133 36.678 551.462C36.314 551.783 36.0973 552.22 36.028 552.775H39.993ZM43.8564 557.091C43.5878 557.091 43.3624 557 43.1804 556.818C42.9984 556.636 42.9074 556.411 42.9074 556.142C42.9074 555.873 42.9984 555.648 43.1804 555.466C43.3624 555.284 43.5878 555.193 43.8564 555.193C44.1164 555.193 44.3374 555.284 44.5194 555.466C44.7014 555.648 44.7924 555.873 44.7924 556.142C44.7924 556.411 44.7014 556.636 44.5194 556.818C44.3374 557 44.1164 557.091 43.8564 557.091ZM49.5402 549.72C50.0948 549.72 50.5845 549.833 51.0092 550.058C51.4425 550.275 51.7805 550.548 52.0232 550.877V549.837H53.5182V557.117C53.5182 557.776 53.3795 558.361 53.1022 558.872C52.8248 559.392 52.4218 559.799 51.8932 560.094C51.3732 560.389 50.7492 560.536 50.0212 560.536C49.0505 560.536 48.2445 560.306 47.6032 559.847C46.9618 559.396 46.5978 558.781 46.5112 558.001H47.9802C48.0928 558.374 48.3312 558.673 48.6952 558.898C49.0678 559.132 49.5098 559.249 50.0212 559.249C50.6192 559.249 51.1002 559.067 51.4642 558.703C51.8368 558.339 52.0232 557.81 52.0232 557.117V555.921C51.7718 556.259 51.4295 556.545 50.9962 556.779C50.5715 557.004 50.0862 557.117 49.5402 557.117C48.9162 557.117 48.3442 556.961 47.8242 556.649C47.3128 556.328 46.9055 555.886 46.6022 555.323C46.3075 554.751 46.1602 554.105 46.1602 553.386C46.1602 552.667 46.3075 552.03 46.6022 551.475C46.9055 550.92 47.3128 550.491 47.8242 550.188C48.3442 549.876 48.9162 549.72 49.5402 549.72ZM52.0232 553.412C52.0232 552.918 51.9192 552.489 51.7112 552.125C51.5118 551.761 51.2475 551.484 50.9182 551.293C50.5888 551.102 50.2335 551.007 49.8522 551.007C49.4708 551.007 49.1155 551.102 48.7862 551.293C48.4568 551.475 48.1882 551.748 47.9802 552.112C47.7808 552.467 47.6812 552.892 47.6812 553.386C47.6812 553.88 47.7808 554.313 47.9802 554.686C48.1882 555.059 48.4568 555.345 48.7862 555.544C49.1242 555.735 49.4795 555.83 49.8522 555.83C50.2335 555.83 50.5888 555.735 50.9182 555.544C51.2475 555.353 51.5118 555.076 51.7112 554.712C51.9192 554.339 52.0232 553.906 52.0232 553.412ZM56.3227 557.091C56.0541 557.091 55.8287 557 55.6467 556.818C55.4647 556.636 55.3737 556.411 55.3737 556.142C55.3737 555.873 55.4647 555.648 55.6467 555.466C55.8287 555.284 56.0541 555.193 56.3227 555.193C56.5827 555.193 56.8037 555.284 56.9857 555.466C57.1677 555.648 57.2587 555.873 57.2587 556.142C57.2587 556.411 57.1677 556.636 56.9857 556.818C56.8037 557 56.5827 557.091 56.3227 557.091ZM69.9724 547.965V557H68.4904V553.048H64.2394V557H62.7574V547.965H64.2394V551.839H68.4904V547.965H69.9724ZM71.6894 553.386C71.6894 552.667 71.8368 552.03 72.1314 551.475C72.4348 550.92 72.8421 550.491 73.3534 550.188C73.8734 549.876 74.4454 549.72 75.0694 549.72C75.6328 549.72 76.1224 549.833 76.5384 550.058C76.9631 550.275 77.3011 550.548 77.5524 550.877V549.837H79.0474V557H77.5524V555.934C77.3011 556.272 76.9588 556.554 76.5254 556.779C76.0921 557.004 75.5981 557.117 75.0434 557.117C74.4281 557.117 73.8648 556.961 73.3534 556.649C72.8421 556.328 72.4348 555.886 72.1314 555.323C71.8368 554.751 71.6894 554.105 71.6894 553.386ZM77.5524 553.412C77.5524 552.918 77.4484 552.489 77.2404 552.125C77.0411 551.761 76.7768 551.484 76.4474 551.293C76.1181 551.102 75.7628 551.007 75.3814 551.007C75.0001 551.007 74.6448 551.102 74.3154 551.293C73.9861 551.475 73.7174 551.748 73.5094 552.112C73.3101 552.467 73.2104 552.892 73.2104 553.386C73.2104 553.88 73.3101 554.313 73.5094 554.686C73.7174 555.059 73.9861 555.345 74.3154 555.544C74.6534 555.735 75.0088 555.83 75.3814 555.83C75.7628 555.83 76.1181 555.735 76.4474 555.544C76.7768 555.353 77.0411 555.076 77.2404 554.712C77.4484 554.339 77.5524 553.906 77.5524 553.412ZM82.736 550.877C82.9527 550.513 83.2387 550.231 83.594 550.032C83.958 549.824 84.387 549.72 84.881 549.72V551.254H84.504C83.9233 551.254 83.4813 551.401 83.178 551.696C82.8833 551.991 82.736 552.502 82.736 553.23V557H81.254V549.837H82.736V550.877ZM86.0092 553.386C86.0092 552.667 86.1566 552.03 86.4512 551.475C86.7546 550.92 87.1619 550.491 87.6732 550.188C88.1932 549.876 88.7652 549.72 89.3892 549.72C89.9526 549.72 90.4422 549.833 90.8582 550.058C91.2829 550.275 91.6209 550.548 91.8722 550.877V549.837H93.3672V557H91.8722V555.934C91.6209 556.272 91.2786 556.554 90.8452 556.779C90.4119 557.004 89.9179 557.117 89.3632 557.117C88.7479 557.117 88.1846 556.961 87.6732 556.649C87.1619 556.328 86.7546 555.886 86.4512 555.323C86.1566 554.751 86.0092 554.105 86.0092 553.386ZM91.8722 553.412C91.8722 552.918 91.7682 552.489 91.5602 552.125C91.3609 551.761 91.0966 551.484 90.7672 551.293C90.4379 551.102 90.0826 551.007 89.7012 551.007C89.3199 551.007 88.9646 551.102 88.6352 551.293C88.3059 551.475 88.0372 551.748 87.8292 552.112C87.6299 552.467 87.5302 552.892 87.5302 553.386C87.5302 553.88 87.6299 554.313 87.8292 554.686C88.0372 555.059 88.3059 555.345 88.6352 555.544C88.9732 555.735 89.3286 555.83 89.7012 555.83C90.0826 555.83 90.4379 555.735 90.7672 555.544C91.0966 555.353 91.3609 555.076 91.5602 554.712C91.7682 554.339 91.8722 553.906 91.8722 553.412ZM97.0558 550.877C97.2725 550.513 97.5585 550.231 97.9138 550.032C98.2778 549.824 98.7068 549.72 99.2008 549.72V551.254H98.8238C98.2431 551.254 97.8011 551.401 97.4978 551.696C97.2031 551.991 97.0558 552.502 97.0558 553.23V557H95.5738V549.837H97.0558V550.877ZM107.388 553.243C107.388 553.512 107.371 553.754 107.336 553.971H101.863C101.906 554.543 102.119 555.002 102.5 555.349C102.881 555.696 103.349 555.869 103.904 555.869C104.701 555.869 105.265 555.535 105.594 554.868H107.193C106.976 555.527 106.582 556.068 106.01 556.493C105.447 556.909 104.745 557.117 103.904 557.117C103.219 557.117 102.604 556.965 102.058 556.662C101.521 556.35 101.096 555.917 100.784 555.362C100.481 554.799 100.329 554.149 100.329 553.412C100.329 552.675 100.476 552.03 100.771 551.475C101.074 550.912 101.495 550.478 102.032 550.175C102.578 549.872 103.202 549.72 103.904 549.72C104.58 549.72 105.182 549.867 105.711 550.162C106.24 550.457 106.651 550.873 106.946 551.41C107.241 551.939 107.388 552.55 107.388 553.243ZM105.841 552.775C105.832 552.229 105.637 551.791 105.256 551.462C104.875 551.133 104.402 550.968 103.839 550.968C103.328 550.968 102.89 551.133 102.526 551.462C102.162 551.783 101.945 552.22 101.876 552.775H105.841Z" fill="#878787"/>
<rect x="205.5" y="532.5" width="164" height="40" rx="14.5" fill="white" stroke="#D9D9D9"/>
<path d="M222.501 553.165C222.501 553.39 222.488 553.629 222.462 553.88H216.768C216.811 554.582 217.05 555.132 217.483 555.531C217.925 555.921 218.458 556.116 219.082 556.116C219.593 556.116 220.018 555.999 220.356 555.765C220.703 555.522 220.945 555.202 221.084 554.803H222.358C222.167 555.488 221.786 556.047 221.214 556.48C220.642 556.905 219.931 557.117 219.082 557.117C218.406 557.117 217.799 556.965 217.262 556.662C216.733 556.359 216.317 555.93 216.014 555.375C215.711 554.812 215.559 554.162 215.559 553.425C215.559 552.688 215.706 552.043 216.001 551.488C216.296 550.933 216.707 550.509 217.236 550.214C217.773 549.911 218.389 549.759 219.082 549.759C219.758 549.759 220.356 549.906 220.876 550.201C221.396 550.496 221.795 550.903 222.072 551.423C222.358 551.934 222.501 552.515 222.501 553.165ZM221.279 552.918C221.279 552.467 221.179 552.082 220.98 551.761C220.781 551.432 220.508 551.185 220.161 551.02C219.823 550.847 219.446 550.76 219.03 550.76C218.432 550.76 217.921 550.951 217.496 551.332C217.08 551.713 216.842 552.242 216.781 552.918H221.279ZM224.7 557.078C224.474 557.078 224.284 557 224.128 556.844C223.972 556.688 223.894 556.497 223.894 556.272C223.894 556.047 223.972 555.856 224.128 555.7C224.284 555.544 224.474 555.466 224.7 555.466C224.916 555.466 225.098 555.544 225.246 555.7C225.402 555.856 225.48 556.047 225.48 556.272C225.48 556.497 225.402 556.688 225.246 556.844C225.098 557 224.916 557.078 224.7 557.078ZM230.25 549.759C230.865 549.759 231.403 549.893 231.862 550.162C232.33 550.431 232.677 550.769 232.902 551.176V549.876H234.098V557.156C234.098 557.806 233.959 558.382 233.682 558.885C233.405 559.396 233.006 559.795 232.486 560.081C231.975 560.367 231.377 560.51 230.692 560.51C229.756 560.51 228.976 560.289 228.352 559.847C227.728 559.405 227.36 558.803 227.247 558.04H228.417C228.547 558.473 228.816 558.82 229.223 559.08C229.63 559.349 230.12 559.483 230.692 559.483C231.342 559.483 231.871 559.279 232.278 558.872C232.694 558.465 232.902 557.893 232.902 557.156V555.661C232.668 556.077 232.321 556.424 231.862 556.701C231.403 556.978 230.865 557.117 230.25 557.117C229.617 557.117 229.041 556.961 228.521 556.649C228.01 556.337 227.607 555.899 227.312 555.336C227.017 554.773 226.87 554.131 226.87 553.412C226.87 552.684 227.017 552.047 227.312 551.501C227.607 550.946 228.01 550.517 228.521 550.214C229.041 549.911 229.617 549.759 230.25 549.759ZM232.902 553.425C232.902 552.888 232.794 552.42 232.577 552.021C232.36 551.622 232.066 551.319 231.693 551.111C231.329 550.894 230.926 550.786 230.484 550.786C230.042 550.786 229.639 550.89 229.275 551.098C228.911 551.306 228.621 551.609 228.404 552.008C228.187 552.407 228.079 552.875 228.079 553.412C228.079 553.958 228.187 554.435 228.404 554.842C228.621 555.241 228.911 555.548 229.275 555.765C229.639 555.973 230.042 556.077 230.484 556.077C230.926 556.077 231.329 555.973 231.693 555.765C232.066 555.548 232.36 555.241 232.577 554.842C232.794 554.435 232.902 553.962 232.902 553.425ZM236.734 557.078C236.509 557.078 236.318 557 236.162 556.844C236.006 556.688 235.928 556.497 235.928 556.272C235.928 556.047 236.006 555.856 236.162 555.7C236.318 555.544 236.509 555.466 236.734 555.466C236.951 555.466 237.133 555.544 237.28 555.7C237.436 555.856 237.514 556.047 237.514 556.272C237.514 556.497 237.436 556.688 237.28 556.844C237.133 557 236.951 557.078 236.734 557.078ZM247.609 552.333C247.939 552.385 248.238 552.519 248.506 552.736C248.784 552.953 249 553.221 249.156 553.542C249.321 553.863 249.403 554.205 249.403 554.569C249.403 555.028 249.286 555.444 249.052 555.817C248.818 556.181 248.476 556.471 248.025 556.688C247.583 556.896 247.059 557 246.452 557H243.072V547.939H246.322C246.938 547.939 247.462 548.043 247.895 548.251C248.329 548.45 248.654 548.723 248.87 549.07C249.087 549.417 249.195 549.807 249.195 550.24C249.195 550.777 249.048 551.224 248.753 551.579C248.467 551.926 248.086 552.177 247.609 552.333ZM244.255 551.852H246.244C246.799 551.852 247.228 551.722 247.531 551.462C247.835 551.202 247.986 550.842 247.986 550.383C247.986 549.924 247.835 549.564 247.531 549.304C247.228 549.044 246.79 548.914 246.218 548.914H244.255V551.852ZM246.348 556.025C246.938 556.025 247.397 555.886 247.726 555.609C248.056 555.332 248.22 554.946 248.22 554.452C248.22 553.949 248.047 553.555 247.7 553.269C247.354 552.974 246.89 552.827 246.309 552.827H244.255V556.025H246.348ZM257.623 549.876V557H256.44V555.947C256.215 556.311 255.898 556.597 255.491 556.805C255.092 557.004 254.65 557.104 254.165 557.104C253.61 557.104 253.112 556.991 252.67 556.766C252.228 556.532 251.877 556.185 251.617 555.726C251.366 555.267 251.24 554.708 251.24 554.049V549.876H252.41V553.893C252.41 554.595 252.588 555.137 252.943 555.518C253.298 555.891 253.784 556.077 254.399 556.077C255.032 556.077 255.53 555.882 255.894 555.492C256.258 555.102 256.44 554.534 256.44 553.789V549.876H257.623ZM261.064 547.38V557H259.881V547.38H261.064ZM262.898 553.412C262.898 552.684 263.045 552.047 263.34 551.501C263.634 550.946 264.037 550.517 264.549 550.214C265.069 549.911 265.645 549.759 266.278 549.759C266.902 549.759 267.443 549.893 267.903 550.162C268.362 550.431 268.704 550.769 268.93 551.176V549.876H270.126V557H268.93V555.674C268.696 556.09 268.345 556.437 267.877 556.714C267.417 556.983 266.88 557.117 266.265 557.117C265.632 557.117 265.06 556.961 264.549 556.649C264.037 556.337 263.634 555.899 263.34 555.336C263.045 554.773 262.898 554.131 262.898 553.412ZM268.93 553.425C268.93 552.888 268.821 552.42 268.605 552.021C268.388 551.622 268.093 551.319 267.721 551.111C267.357 550.894 266.954 550.786 266.512 550.786C266.07 550.786 265.667 550.89 265.303 551.098C264.939 551.306 264.648 551.609 264.432 552.008C264.215 552.407 264.107 552.875 264.107 553.412C264.107 553.958 264.215 554.435 264.432 554.842C264.648 555.241 264.939 555.548 265.303 555.765C265.667 555.973 266.07 556.077 266.512 556.077C266.954 556.077 267.357 555.973 267.721 555.765C268.093 555.548 268.388 555.241 268.605 554.842C268.821 554.435 268.93 553.962 268.93 553.425ZM281.875 549.876L279.652 557H278.43L276.714 551.345L274.998 557H273.776L271.54 549.876H272.749L274.387 555.856L276.155 549.876H277.364L279.093 555.869L280.705 549.876H281.875ZM282.867 553.412C282.867 552.684 283.014 552.047 283.309 551.501C283.604 550.946 284.007 550.517 284.518 550.214C285.038 549.911 285.614 549.759 286.247 549.759C286.871 549.759 287.413 549.893 287.872 550.162C288.331 550.431 288.674 550.769 288.899 551.176V549.876H290.095V557H288.899V555.674C288.665 556.09 288.314 556.437 287.846 556.714C287.387 556.983 286.849 557.117 286.234 557.117C285.601 557.117 285.029 556.961 284.518 556.649C284.007 556.337 283.604 555.899 283.309 555.336C283.014 554.773 282.867 554.131 282.867 553.412ZM288.899 553.425C288.899 552.888 288.791 552.42 288.574 552.021C288.357 551.622 288.063 551.319 287.69 551.111C287.326 550.894 286.923 550.786 286.481 550.786C286.039 550.786 285.636 550.89 285.272 551.098C284.908 551.306 284.618 551.609 284.401 552.008C284.184 552.407 284.076 552.875 284.076 553.412C284.076 553.958 284.184 554.435 284.401 554.842C284.618 555.241 284.908 555.548 285.272 555.765C285.636 555.973 286.039 556.077 286.481 556.077C286.923 556.077 287.326 555.973 287.69 555.765C288.063 555.548 288.357 555.241 288.574 554.842C288.791 554.435 288.899 553.962 288.899 553.425ZM298.49 549.876L294.2 560.354H292.978L294.382 556.922L291.509 549.876H292.822L295.058 555.648L297.268 549.876H298.49ZM303.046 557.117C302.379 557.117 301.772 556.965 301.226 556.662C300.689 556.359 300.264 555.93 299.952 555.375C299.649 554.812 299.497 554.162 299.497 553.425C299.497 552.697 299.653 552.056 299.965 551.501C300.286 550.938 300.719 550.509 301.265 550.214C301.811 549.911 302.422 549.759 303.098 549.759C303.774 549.759 304.385 549.911 304.931 550.214C305.477 550.509 305.906 550.933 306.218 551.488C306.539 552.043 306.699 552.688 306.699 553.425C306.699 554.162 306.535 554.812 306.205 555.375C305.885 555.93 305.447 556.359 304.892 556.662C304.338 556.965 303.722 557.117 303.046 557.117ZM303.046 556.077C303.471 556.077 303.87 555.977 304.242 555.778C304.615 555.579 304.914 555.28 305.139 554.881C305.373 554.482 305.49 553.997 305.49 553.425C305.49 552.853 305.378 552.368 305.152 551.969C304.927 551.57 304.632 551.276 304.268 551.085C303.904 550.886 303.51 550.786 303.085 550.786C302.652 550.786 302.253 550.886 301.889 551.085C301.534 551.276 301.248 551.57 301.031 551.969C300.815 552.368 300.706 552.853 300.706 553.425C300.706 554.006 300.81 554.495 301.018 554.894C301.235 555.293 301.521 555.592 301.876 555.791C302.232 555.982 302.622 556.077 303.046 556.077Z" fill="#878787"/>
</g>
<defs>
<filter id="filter0_d_2053_558" x="-12.1" y="260.9" width="417.2" height="607.2" filterUnits="userSpaceOnUse" color-interpolation-filters="sRGB">
<feFlood flood-opacity="0" result="BackgroundImageFix"/>
<feColorMatrix in="SourceAlpha" type="matrix" values="0 0 0 0 0 0 0 0 0 0 0 0 0 0 0 0 0 0 127 0" result="hardAlpha"/>
<feOffset dy="4"/>
<feGaussianBlur stdDeviation="6.05"/>
<feComposite in2="hardAlpha" operator="out"/>
<feColorMatrix type="matrix" values="0 0 0 0 0.564423 0 0 0 0 0.564423 0 0 0 0 0.564423 0 0 0 0.25 0"/>
<feBlend mode="normal" in2="BackgroundImageFix" result="effect1_dropShadow_2053_558"/>
<feBlend mode="normal" in="SourceGraphic" in2="effect1_dropShadow_2053_558" result="shape"/>
</filter>
<linearGradient id="paint0_linear_2053_558" x1="25" y1="806" x2="370" y2="806" gradientUnits="userSpaceOnUse">
<stop offset="0.5" stop-color="#FFF200"/>
<stop offset="1" stop-color="#FFCB14"/>
</linearGradient>
<clipPath id="clip0_2053_558">
<rect width="393" height="852" fill="white"/>
</clipPath>
</defs>
</svg>
